<svg id="emergency-kit-svgrepo-com" xmlns="http://www.w3.org/2000/svg" width="419.738" height="419.738" viewBox="0 0 419.738 419.738">
  <path id="Path_7" data-name="Path 7" d="M195.76,206.389H176.64v-19.12a14.229,14.229,0,0,0-28.457,0v19.12h-19.12a14.229,14.229,0,1,0,0,28.457h19.12v19.12a14.229,14.229,0,1,0,28.457,0v-19.12h19.12a14.229,14.229,0,1,0,0-28.457Z" transform="translate(47.456 71.51)" fill="#fff"/>
  <path id="Path_8" data-name="Path 8" d="M356.1,73.365H321.917V53.01A53.069,53.069,0,0,0,268.906,0H150.83A53.069,53.069,0,0,0,97.82,53.01V73.365H63.633A63.706,63.706,0,0,0,0,137V358.08a61.726,61.726,0,0,0,61.656,61.658H358.08a61.727,61.727,0,0,0,61.658-61.658V137A63.706,63.706,0,0,0,356.1,73.365ZM126.277,53.01a24.582,24.582,0,0,1,24.554-24.554H268.908A24.582,24.582,0,0,1,293.462,53.01V73.365H126.277ZM63.633,101.822H356.1A35.217,35.217,0,0,1,391.28,137v9.732H28.457V137A35.217,35.217,0,0,1,63.633,101.822Zm233.829,73.365h20.453V195.64H297.462Zm-195.64,0h20.453V195.64H101.822ZM391.28,358.08a33.239,33.239,0,0,1-33.2,33.2H61.656a33.238,33.238,0,0,1-33.2-33.2V175.187H73.365v34.681A14.229,14.229,0,0,0,87.594,224.1H136.5a14.229,14.229,0,0,0,14.229-14.229V175.187H269.007v34.681A14.229,14.229,0,0,0,283.235,224.1h48.91a14.229,14.229,0,0,0,14.229-14.229V175.187h44.908V358.08Z" fill="#fff"/>
</svg>
