<svg xmlns="http://www.w3.org/2000/svg" width="353.58" height="335.901" viewBox="0 0 353.58 335.901">
  <g id="translation-2-svgrepo-com" transform="translate(-2 -3)">
    <path id="Path_3" data-name="Path 3" d="M116.728,30.937c-47.684,0-86.339,38.04-86.339,84.963a83.983,83.983,0,0,0,25.288,60.077,12,12,0,0,1,0,17.166,12.476,12.476,0,0,1-17.443,0A108.071,108.071,0,0,1,5.721,115.9c0-60.331,49.7-109.238,111.008-109.238S227.737,55.569,227.737,115.9a108.073,108.073,0,0,1-32.513,77.243,12.477,12.477,0,0,1-17.444,0,12,12,0,0,1,0-17.166A83.979,83.979,0,0,0,203.067,115.9C203.067,68.976,164.412,30.937,116.728,30.937Z" transform="translate(62.061 61.072)" fill="#fff" fill-rule="evenodd"/>
    <path id="Path_4" data-name="Path 4" d="M178.79,27.275c-84.014,0-152.121,67.021-152.121,149.7A148.007,148.007,0,0,0,71.224,282.823a12,12,0,0,1,0,17.165,12.476,12.476,0,0,1-17.443,0A172.086,172.086,0,0,1,2,176.972C2,80.89,81.151,3,178.79,3S355.58,80.89,355.58,176.972A172.091,172.091,0,0,1,303.8,299.987a12.477,12.477,0,0,1-17.444,0,12,12,0,0,1,0-17.165,148.008,148.008,0,0,0,44.556-105.851C330.912,94.3,262.8,27.275,178.79,27.275Z" transform="translate(0 0)" fill="#fff" fill-rule="evenodd"/>
    <path id="Path_5" data-name="Path 5" d="M48.837,39.763C62.405,24.279,69.19,16.538,77.567,16.036a18.45,18.45,0,0,1,2.3,0c8.378.5,15.161,8.244,28.73,23.727,29.524,33.689,44.286,50.534,40.153,65.066a26.973,26.973,0,0,1-1.319,3.635c-6.083,13.611-26.96,13.611-68.713,13.611s-62.629,0-68.713-13.611a27,27,0,0,1-1.319-3.635C4.551,90.3,19.313,73.452,48.837,39.763Z" transform="translate(100.074 216.826)" fill="#fff"/>
    <path id="Path_6" data-name="Path 6" d="M97.895,54.2A44.2,44.2,0,1,1,53.7,10,44.2,44.2,0,0,1,97.895,54.2Z" transform="translate(125.092 116.753)" fill="#fff"/>
  </g>
</svg>
