<svg xmlns="http://www.w3.org/2000/svg" xmlns:xlink="http://www.w3.org/1999/xlink" width="100%" height="50" viewBox="0 0 250 50">
  <defs>
    <clipPath>
      <rect id="Rectangle_1" data-name="Rectangle 1" width="33.285" height="50" fill="none"/>
    </clipPath>
  </defs>
  <g id="Group_4" data-name="Group 4" transform="translate(-480 -255)">
    <g id="Group_3" data-name="Group 3" transform="translate(480 255)">
      <g id="Group_2" data-name="Group 2">
        <g id="Group_1" data-name="Group 1">
          <path id="Path_1" data-name="Path 1" d="M37.048,154.745a13.383,13.383,0,0,0-.663-1.211,22.813,22.813,0,0,0-3.264-4.318,23.635,23.635,0,0,0-4.1-3.377,28.561,28.561,0,0,0-4.842-2.51c-1.222-.5-2.491-.88-3.874-1.362a24.363,24.363,0,0,0,6.588-7.31c1.646-2.748,2.731-8.228,2.036-9.836,0,.141-.088.706-.1.808a8.523,8.523,0,0,1-3.086,5.758,40.758,40.758,0,0,1-5.523,3.709c-2.362,1.336-4.893,2.372-7.267,3.688-2.955,1.638-5.031,3.974-5.158,7.576-.035,1.006-.005,2.014-.005,3.021l.6-1.794a8.656,8.656,0,0,1,4.967-6.414c2.657-1.374,5.377-2.627,8.047-3.975.951-.48,1.839-1.087,2.756-1.635a.144.144,0,0,1,.172.229c-.959.89-1.891,1.813-2.884,2.664a12.964,12.964,0,0,1-7.378,3.362c-1.015.089-1.071.254-1.036,1.769.021.9.573.835,1.177.841a41.711,41.711,0,0,1,4.755.116,20.394,20.394,0,0,1,11.253,5.318,21.249,21.249,0,0,1,7.418,14.17l.3,1.151A23.484,23.484,0,0,0,33.8,150.866a21.271,21.271,0,0,1,4.981,12.591l.5-3.388c.019-.131-.193-.443-.249-.566-.084-.185-.169-.369-.247-.556a2.168,2.168,0,0,1-.251-1.154.978.978,0,0,1,.322-.616.679.679,0,0,1,.666-.126.776.776,0,0,1,.4.431,2.024,2.024,0,0,1,.136.629.106.106,0,0,1-.166.1c-.1-.072-.208-.144-.314-.215s-.265-.235-.375-.25c-.19-.027-.27.3-.27.455a.659.659,0,0,0,.255.513.774.774,0,0,0,.815.044.982.982,0,0,0,.477-.684,1.353,1.353,0,0,0-.133-.837,1.094,1.094,0,0,0-.589-.57,1.609,1.609,0,0,0-.716-.023c-.127.015-.451.086-.718.117a.468.468,0,0,1-.479-.269Z" transform="translate(-7.223 -116.005)" fill="#333"/>
          <path id="Path_2" data-name="Path 2" d="M6.1,2.909A9.777,9.777,0,0,0,4.478,4.2,6.2,6.2,0,0,0,3.365,6.152c-.241.694-.25,1.469-.454,2.2a9.566,9.566,0,0,1,.248-4.7A4.937,4.937,0,0,1,6.651.2,4.086,4.086,0,0,1,11.7,2.42a8.621,8.621,0,0,1,.658,5.193,16.528,16.528,0,0,1-4.622,9.082,4.515,4.515,0,0,0-.866,1.128c1.293-.607,2.6-1.191,3.876-1.826A29.533,29.533,0,0,0,17.6,11.81a9.8,9.8,0,0,0,3.448-6.27,1.964,1.964,0,0,1,.13-.387l.317.038a33.067,33.067,0,0,1-.343,3.342c-.77,3.814-3.336,6.252-6.563,8.033-2.751,1.518-5.62,2.821-8.432,4.227C2.824,22.457.6,22.605.393,26.536.388,26.637.266,29.02,0,29.1c0-.853.012-1.707,0-2.56-.064-4.005,1.815-7.033,4.69-9.632a26.965,26.965,0,0,0,5.414-6.063,7.818,7.818,0,0,0,1.248-5.59A3.036,3.036,0,0,0,7.737,3.048,6.347,6.347,0,0,0,4.43,4.977Z" transform="translate(0 0)" fill="#333"/>
        </g>
      </g>
    </g>
    <text id="AlKafaat_Hospital" data-name="AlKafaat Hospital" transform="translate(517 289)" fill="#333" font-size="29" font-family="GRANCEDEMORegular, GRANCE-DEMO"><tspan x="0" y="0">Al</tspan><tspan y="0" letter-spacing="-0.016em">K</tspan><tspan y="0">a</tspan><tspan y="0" letter-spacing="-0.06em">f</tspan><tspan y="0">a</tspan><tspan y="0" letter-spacing="-0.009em">a</tspan><tspan y="0">t Hospital</tspan></text>
    <path id="Path_3" data-name="Path 3" d="M1090.821,462.793l7.778-4.321-3.928.55Z" transform="translate(-499.665 -188.632)" fill="#333"/>
  </g>
</svg>
