<svg id="Group_22" data-name="Group 22" xmlns="http://www.w3.org/2000/svg" xmlns:xlink="http://www.w3.org/1999/xlink" width="812.824" height="490.909" viewBox="0 0 812.824 490.909">
  <defs>
    <clipPath id="clip-path">
      <rect id="Rectangle_11" data-name="Rectangle 11" width="812.824" height="490.909" fill="none"/>
    </clipPath>
    <clipPath id="clip-path-3">
      <rect id="Rectangle_4" data-name="Rectangle 4" width="41.091" height="12.755" fill="none"/>
    </clipPath>
    <clipPath id="clip-path-4">
      <rect id="Rectangle_5" data-name="Rectangle 5" width="87.669" height="43.718" fill="none"/>
    </clipPath>
    <clipPath id="clip-path-5">
      <rect id="Rectangle_6" data-name="Rectangle 6" width="61.737" height="14.943" fill="none"/>
    </clipPath>
    <clipPath id="clip-path-6">
      <rect id="Rectangle_7" data-name="Rectangle 7" width="65.14" height="54.079" fill="none"/>
    </clipPath>
    <clipPath id="clip-path-7">
      <rect id="Rectangle_8" data-name="Rectangle 8" width="43.505" height="16.584" fill="none"/>
    </clipPath>
    <clipPath id="clip-path-8">
      <rect id="Rectangle_9" data-name="Rectangle 9" width="37.007" height="30.476" fill="none"/>
    </clipPath>
  </defs>
  <g id="Group_21" data-name="Group 21" clip-path="url(#clip-path)">
    <g id="Group_20" data-name="Group 20">
      <g id="Group_19" data-name="Group 19" clip-path="url(#clip-path)">
        <path id="Path_1" data-name="Path 1" d="M589.151,437.648c-29.094-17.819-37.611-53.638-38.471-86.247-.143-5.443-1.085-11.134,1.21-16.057s8.13-8.542,13.132-6.547c4.148,1.656,6.19,6.242,8.68,9.987a31.839,31.839,0,0,0,13.474,11.4c3.568,1.586,7.913,2.426,11.214.337,4.529-2.868,4.691-9.375,4.331-14.776q-1.006-15.1-2.012-30.2c-.359-5.4-.708-10.917.662-16.145s4.8-10.216,9.849-11.966,11.587.83,12.992,6.052c.584,2.173.274,4.486.559,6.718s1.48,4.652,3.648,5.149c2.194.5,4.264-1.159,5.783-2.838,5.247-5.792,8.607-13.047,11.721-20.248s6.116-14.564,10.816-20.819,11.415-11.392,19.125-12.3,16.243,3.373,18.656,10.85c2.421,7.5-1.557,15.495-6.02,21.951a120.812,120.812,0,0,1-23.665,25.45c-1.629,1.311-3.4,2.728-3.927,4.769-.956,3.673,2.673,7.044,6.3,8.013,4.107,1.1,8.452.416,12.694.659s8.918,1.824,10.751,5.71c2.546,5.388-1.722,11.454-6.038,15.519A103.482,103.482,0,0,1,655.11,351.57c-3.886,1.695-7.992,3.223-11.029,6.208s-4.677,7.959-2.511,11.646,7.21,4.611,11.327,3.587,7.706-3.507,11.582-5.244c7.255-3.249,16.873-3.317,22.016,2.813,3.381,4.03,4.01,9.885,2.732,15.009s-4.22,9.646-7.384,13.846c-11.056,14.68-25.612,26.838-42.476,33.85s-32.722,9.591-50.217,4.364" transform="translate(113.438 49.268)" fill="#f5f5f5"/>
        <path id="Path_2" data-name="Path 2" d="M588.467,416.053c3.8-16.712,9.481-34.685,16.07-53.279q2.5-6.963,4.931-13.75c1.628-4.51,3.243-8.981,5.092-13.256A242.024,242.024,0,0,1,626.6,311.8c4.2-7.437,8.45-14.341,12.475-20.767,4.041-6.42,7.918-12.334,11.682-17.573a192.24,192.24,0,0,1,19.587-23.374c2.52-2.569,4.539-4.5,5.926-5.787l1.586-1.456a4.1,4.1,0,0,1,.563-.47,3.682,3.682,0,0,1-.493.545c-.378.38-.88.885-1.517,1.528-1.34,1.335-3.314,3.307-5.789,5.914a203.286,203.286,0,0,0-19.292,23.518c-3.717,5.25-7.553,11.172-11.555,17.6s-8.214,13.35-12.38,20.78a244.966,244.966,0,0,0-11.935,23.894c-1.833,4.255-3.429,8.689-5.058,13.209s-3.26,9.1-4.923,13.745c-6.584,18.579-12.278,36.5-16.116,53.15" transform="translate(121.291 49.957)" fill="#e0e0e0"/>
        <path id="Path_3" data-name="Path 3" d="M612.3,329.837a11.017,11.017,0,0,1-.667-2.272c-.374-1.476-.844-3.628-1.386-6.3-1.088-5.332-2.341-12.749-3.69-20.93s-2.7-15.564-3.869-20.865c-.577-2.652-1.064-4.8-1.421-6.272a10.825,10.825,0,0,1-.443-2.327,10.878,10.878,0,0,1,.815,2.223c.472,1.449,1.066,3.571,1.73,6.212,1.348,5.279,2.818,12.668,4.167,20.861,1.311,8.077,2.5,15.384,3.4,20.967.425,2.52.784,4.642,1.073,6.347a10.748,10.748,0,0,1,.287,2.353" transform="translate(123.835 55.831)" fill="#e0e0e0"/>
        <path id="Path_4" data-name="Path 4" d="M679.012,305.527a14.8,14.8,0,0,1-2.751.5c-1.772.267-4.34.637-7.495,1.2-6.321,1.071-15,2.855-24.489,5.243-9.488,2.4-17.982,4.949-24.072,6.965-3.054.985-5.5,1.851-7.2,2.439a15.164,15.164,0,0,1-2.67.83,14.741,14.741,0,0,1,2.533-1.2c1.658-.7,4.077-1.67,7.11-2.747,6.049-2.2,14.541-4.853,24.056-7.269a245.28,245.28,0,0,1,24.622-4.967c3.181-.473,5.77-.738,7.562-.884a14.987,14.987,0,0,1,2.793-.111" transform="translate(125.798 62.967)" fill="#e0e0e0"/>
        <path id="Path_5" data-name="Path 5" d="M596,400.071a3.531,3.531,0,0,1-.527-.818l-1.34-2.442c-1.153-2.124-2.743-5.243-4.656-9.122-3.832-7.754-8.786-18.633-14.092-30.711s-10.157-22.993-13.821-30.817c-1.794-3.8-3.27-6.929-4.366-9.254-.47-1.01-.858-1.842-1.175-2.526a3.532,3.532,0,0,1-.349-.912,3.67,3.67,0,0,1,.528.82l1.339,2.439c1.153,2.125,2.743,5.244,4.656,9.122,3.832,7.755,8.786,18.634,14.095,30.717s10.154,22.989,13.818,30.814c1.795,3.8,3.27,6.929,4.366,9.252.47,1.011.856,1.844,1.175,2.527a3.594,3.594,0,0,1,.349.912" transform="translate(114.532 64.61)" fill="#e0e0e0"/>
        <path id="Path_6" data-name="Path 6" d="M679.618,355.989a3.777,3.777,0,0,1-.894.433l-2.626,1.06-9.691,3.8c-8.182,3.211-19.432,7.773-31.856,12.833s-23.73,9.526-31.981,12.568c-4.125,1.522-7.475,2.72-9.807,3.5-1.078.353-1.967.644-2.69.883a3.658,3.658,0,0,1-.961.242,3.8,3.8,0,0,1,.893-.435l2.627-1.058c2.427-.953,5.7-2.236,9.689-3.8,8.182-3.21,19.434-7.773,31.861-12.835s23.726-9.523,31.977-12.565c4.125-1.522,7.475-2.72,9.808-3.5,1.08-.353,1.966-.646,2.691-.883a3.624,3.624,0,0,1,.961-.242" transform="translate(121.424 73.373)" fill="#e0e0e0"/>
        <path id="Path_7" data-name="Path 7" d="M597.389,98.768c-4.962,12.422-12.907,32.5-16.553,41.729a5.305,5.305,0,0,0,2.973,6.88l33.938,13.517a5.307,5.307,0,0,0,6.894-2.967l16.466-41.343a11.781,11.781,0,0,0-6.587-15.306l2.422-6.081-22.224-8.852-2.29,5.75-.082-.03a11.781,11.781,0,0,0-14.957,6.7" transform="translate(119.641 17.797)" fill="#f5f5f5"/>
        <path id="Path_8" data-name="Path 8" d="M608.8,86.986l-1.1,2.766,21.91,9.64,1.415-3.554Z" transform="translate(125.255 17.929)" fill="#e0e0e0"/>
        <path id="Path_9" data-name="Path 9" d="M631.045,99.377l-23.092-9.2a2.327,2.327,0,0,1-1.3-3.025l2.2-5.517a3.61,3.61,0,0,1,4.688-2.018l20.715,8.251a3.608,3.608,0,0,1,2.018,4.686l-2.2,5.518a2.329,2.329,0,0,1-3.026,1.3" transform="translate(125.005 16.358)" fill="#ebebeb"/>
        <path id="Path_10" data-name="Path 10" d="M608.807,90.688c-.163-.064.686-2.575,1.895-5.607s2.318-5.44,2.479-5.376-.687,2.575-1.895,5.607-2.317,5.44-2.479,5.376" transform="translate(125.479 16.428)" fill="#e0e0e0"/>
        <path id="Path_11" data-name="Path 11" d="M611.235,91.655c-.162-.064.688-2.575,1.895-5.607s2.318-5.44,2.48-5.376-.687,2.575-1.9,5.608-2.318,5.438-2.478,5.374" transform="translate(125.98 16.627)" fill="#e0e0e0"/>
        <path id="Path_12" data-name="Path 12" d="M613.663,92.622c-.162-.064.688-2.575,1.895-5.607s2.318-5.44,2.48-5.376-.687,2.575-1.9,5.607-2.318,5.44-2.479,5.376" transform="translate(126.48 16.827)" fill="#e0e0e0"/>
        <path id="Path_13" data-name="Path 13" d="M616.091,93.589c-.162-.063.688-2.574,1.895-5.606s2.318-5.441,2.48-5.376-.687,2.574-1.9,5.608-2.317,5.438-2.479,5.373" transform="translate(126.981 17.026)" fill="#e0e0e0"/>
        <path id="Path_14" data-name="Path 14" d="M618.52,94.557c-.162-.064.687-2.575,1.895-5.607s2.318-5.44,2.48-5.376-.687,2.575-1.9,5.607-2.317,5.44-2.478,5.376" transform="translate(127.481 17.226)" fill="#e0e0e0"/>
        <path id="Path_15" data-name="Path 15" d="M620.948,95.524c-.162-.064.688-2.575,1.895-5.607s2.318-5.44,2.48-5.376-.687,2.574-1.9,5.608-2.318,5.438-2.478,5.374" transform="translate(127.982 17.425)" fill="#e0e0e0"/>
        <path id="Path_16" data-name="Path 16" d="M623.376,96.491c-.162-.064.688-2.575,1.895-5.607s2.318-5.44,2.48-5.376-.687,2.575-1.9,5.608-2.318,5.438-2.479,5.374" transform="translate(128.482 17.624)" fill="#e0e0e0"/>
        <path id="Path_17" data-name="Path 17" d="M625.805,97.458c-.163-.064.686-2.575,1.894-5.607s2.318-5.44,2.48-5.376-.688,2.574-1.895,5.608-2.318,5.438-2.479,5.374" transform="translate(128.983 17.823)" fill="#e0e0e0"/>
        <path id="Path_18" data-name="Path 18" d="M620.8,136.653l-28.521-11.359a1.788,1.788,0,0,1-1-2.323l7.065-17.742a1.788,1.788,0,0,1,2.323-1l28.522,11.359a1.788,1.788,0,0,1,1,2.323l-7.065,17.741a1.788,1.788,0,0,1-2.323,1" transform="translate(121.845 21.457)" fill="#ebebeb"/>
        <path id="Path_19" data-name="Path 19" d="M620.656,134.811a2.349,2.349,0,0,1,.116-.362l.364-.993c.346-.909.818-2.153,1.414-3.718,1.251-3.229,3.014-7.776,5.157-13.3l.139.324L599.912,105.7c-.09.036.77-.333.4-.175v0l0,.01-.008.019-.015.037-.03.077-.062.152-.121.3-.242.607-.481,1.207q-.479,1.2-.953,2.391-.948,2.372-1.865,4.668c-1.224,3.055-2.4,6-3.523,8.8l-.162-.375,19.977,8.11,5.746,2.371,1.539.651a4.393,4.393,0,0,1,.544.253,2.965,2.965,0,0,1-.508-.165l-1.511-.564-5.742-2.2-20.258-7.916-.268-.1.106-.27,3.489-8.811q.91-2.3,1.855-4.671.472-1.187.951-2.391l.481-1.207.241-.608.121-.3.062-.152.03-.076.014-.039.008-.019,0-.008v0c-.363.154.5-.217.411-.177l27.887,11.176.234.094-.094.23c-2.267,5.548-4.133,10.111-5.459,13.35-.636,1.525-1.14,2.734-1.51,3.62-.16.375-.292.68-.4.929a1.355,1.355,0,0,1-.146.293" transform="translate(122.095 21.666)" fill="#e0e0e0"/>
        <path id="Path_20" data-name="Path 20" d="M619.567,119.349c-.064.162-4.362-1.4-9.6-3.486s-9.433-3.908-9.369-4.069,4.362,1.4,9.6,3.487,9.432,3.908,9.368,4.068" transform="translate(123.791 23.04)" fill="#e0e0e0"/>
        <path id="Path_21" data-name="Path 21" d="M618.5,122.022c-.064.162-4.363-1.4-9.6-3.486s-9.433-3.908-9.369-4.069,4.363,1.4,9.6,3.486,9.432,3.908,9.368,4.069" transform="translate(123.572 23.591)" fill="#e0e0e0"/>
        <path id="Path_22" data-name="Path 22" d="M617.479,124.591c-.064.162-4.363-1.4-9.6-3.486s-9.433-3.908-9.369-4.069,4.362,1.4,9.6,3.486,9.432,3.908,9.368,4.069" transform="translate(123.361 24.12)" fill="#e0e0e0"/>
        <path id="Path_23" data-name="Path 23" d="M627.832,99.559c-.064.162-4.751-1.555-10.467-3.831s-10.3-4.254-10.236-4.414,4.751,1.553,10.469,3.831,10.3,4.253,10.234,4.414" transform="translate(125.137 18.819)" fill="#e0e0e0"/>
        <path id="Path_24" data-name="Path 24" d="M583.084,137.493a13.69,13.69,0,0,1,.672-2c.52-1.364,1.211-3.173,2.047-5.365,1.755-4.521,4.219-10.749,6.976-17.613l3.913-9.671a20.84,20.84,0,0,1,4.407-7.334,9.276,9.276,0,0,1,5.125-2.617,6.486,6.486,0,0,1,1.58,0,1.807,1.807,0,0,1,.535.128,12.847,12.847,0,0,0-2.078.119,9.35,9.35,0,0,0-4.851,2.692,20.993,20.993,0,0,0-4.182,7.235l-3.867,9.686c-2.757,6.864-5.286,13.066-7.146,17.544-.912,2.161-1.666,3.945-2.233,5.291a13.637,13.637,0,0,1-.9,1.908" transform="translate(120.181 19.136)" fill="#fff"/>
        <path id="Path_25" data-name="Path 25" d="M621.453,150.671a8.97,8.97,0,0,1-1.335-1.081c-.411-.367-.918-.811-1.535-1.291s-1.284-1.07-2.089-1.637a58.4,58.4,0,0,0-5.75-3.809,57.34,57.34,0,0,0-15.636-6.226,58.643,58.643,0,0,0-6.8-1.186c-.973-.142-1.862-.18-2.641-.247s-1.451-.1-2-.118a9.078,9.078,0,0,1-1.713-.133,8.955,8.955,0,0,1,1.716-.111c.554-.023,1.23-.031,2.017.011s1.684.042,2.668.156a52.011,52.011,0,0,1,6.881,1.064,53.833,53.833,0,0,1,15.8,6.291,51.91,51.91,0,0,1,5.728,3.956c.794.595,1.451,1.207,2.046,1.721s1.086.982,1.473,1.379a8.964,8.964,0,0,1,1.17,1.26" transform="translate(119.949 27.787)" fill="#fff"/>
        <path id="Path_26" data-name="Path 26" d="M169.682,275.872l-93.4,44.955a2.9,2.9,0,0,1-3.876-1.358L9.715,189.221a2.9,2.9,0,0,1,1.358-3.876l93.4-44.955a2.9,2.9,0,0,1,3.876,1.358L171.039,272a2.9,2.9,0,0,1-1.357,3.876" transform="translate(1.943 28.877)" fill="#e0e0e0"/>
        <rect id="Rectangle_1" data-name="Rectangle 1" width="97.236" height="139.962" transform="translate(17.296 215.716) rotate(-25.704)" fill="#fafafa"/>
        <path id="Path_27" data-name="Path 27" d="M72.291,157.77a11.914,11.914,0,0,0-12.463-1.3l-2.686-5.33a8.184,8.184,0,1,0-14.748,7.1l2.693,5.6-1.866.936a11.916,11.916,0,0,0-6.572,10.493l-.037,2.773,38.145-18.362Zm-20.359.868a4.405,4.405,0,1,1,2.059-5.88,4.4,4.4,0,0,1-2.059,5.88" transform="translate(7.546 30.196)" fill="#ebebeb"/>
        <path id="Path_28" data-name="Path 28" d="M52.455,180.707c.075.158-5.183,2.844-11.742,6S28.773,192.3,28.7,192.144s5.181-2.843,11.743-6,11.939-5.592,12.014-5.436" transform="translate(5.915 37.245)" fill="#e0e0e0"/>
        <path id="Path_29" data-name="Path 29" d="M41.746,188.944c.075.157-2.427,1.517-5.588,3.038s-5.786,2.629-5.861,2.473,2.425-1.516,5.588-3.038,5.786-2.629,5.861-2.473" transform="translate(6.244 38.941)" fill="#e0e0e0"/>
        <path id="Path_30" data-name="Path 30" d="M101.82,175.921c.075.157-14.666,7.408-32.922,16.2S35.777,207.9,35.7,207.747s14.663-7.407,32.924-16.2,33.119-15.786,33.193-15.629" transform="translate(7.359 36.259)" fill="#e0e0e0"/>
        <path id="Path_31" data-name="Path 31" d="M104.336,181.149c.075.157-14.666,7.408-32.922,16.2s-33.121,15.787-33.2,15.63,14.663-7.407,32.924-16.2,33.119-15.786,33.193-15.629" transform="translate(7.877 37.337)" fill="#e0e0e0"/>
        <path id="Path_32" data-name="Path 32" d="M106.852,186.376c.075.157-14.666,7.408-32.922,16.2s-33.121,15.787-33.2,15.63,14.663-7.407,32.924-16.2,33.119-15.786,33.193-15.629" transform="translate(8.396 38.414)" fill="#e0e0e0"/>
        <path id="Path_33" data-name="Path 33" d="M109.368,191.6c.075.157-14.666,7.408-32.922,16.2s-33.121,15.787-33.2,15.63,14.663-7.407,32.924-16.2,33.119-15.786,33.193-15.629" transform="translate(8.914 39.492)" fill="#e0e0e0"/>
        <path id="Path_34" data-name="Path 34" d="M111.884,196.831c.075.157-14.666,7.408-32.922,16.2s-33.121,15.787-33.2,15.63,14.663-7.407,32.924-16.2,33.119-15.786,33.193-15.629" transform="translate(9.433 40.569)" fill="#e0e0e0"/>
        <path id="Path_35" data-name="Path 35" d="M114.4,202.059c.075.157-14.666,7.408-32.922,16.194s-33.121,15.788-33.2,15.631,14.664-7.407,32.926-16.2S114.326,201.9,114.4,202.059" transform="translate(9.952 41.647)" fill="#e0e0e0"/>
        <path id="Path_36" data-name="Path 36" d="M83.611,219.967a6.412,6.412,0,0,1-1.246.736l-3.5,1.795c-2.967,1.491-7.084,3.512-11.647,5.709s-8.714,4.155-11.729,5.543L51.9,235.365a6.5,6.5,0,0,1-1.352.515,6.388,6.388,0,0,1,1.246-.736l3.5-1.795c2.967-1.492,7.085-3.512,11.65-5.71s8.712-4.154,11.727-5.543l3.586-1.615a6.4,6.4,0,0,1,1.352-.515" transform="translate(10.419 45.337)" fill="#e0e0e0"/>
        <path id="Path_37" data-name="Path 37" d="M88.421,161.73c.075.157-2.235,1.424-5.159,2.832s-5.356,2.422-5.432,2.266S80.065,165.4,82.99,164s5.356-2.423,5.431-2.266" transform="translate(16.042 33.331)" fill="#e0e0e0"/>
        <path id="Path_38" data-name="Path 38" d="M73.92,237.356c.075.157-3.709,2.134-8.45,4.416s-8.648,4.007-8.724,3.851,3.708-2.134,8.451-4.417,8.648-4.007,8.723-3.85" transform="translate(11.696 48.92)" fill="#e0e0e0"/>
        <path id="Path_39" data-name="Path 39" d="M76.728,241.874c.075.157-3.773,2.165-8.594,4.484s-8.791,4.077-8.866,3.92,3.772-2.164,8.594-4.486,8.791-4.075,8.866-3.919" transform="translate(12.216 49.851)" fill="#e0e0e0"/>
        <path id="Path_40" data-name="Path 40" d="M113.354,216.769c.075.157-1.722,1.177-4.014,2.281s-4.212,1.871-4.287,1.715,1.721-1.177,4.014-2.281,4.212-1.872,4.287-1.715" transform="translate(21.652 44.675)" fill="#e0e0e0"/>
        <path id="Path_41" data-name="Path 41" d="M115.647,220.926c.075.157-1.722,1.177-4.014,2.281s-4.212,1.871-4.287,1.715,1.721-1.177,4.014-2.281,4.212-1.872,4.287-1.715" transform="translate(22.125 45.532)" fill="#e0e0e0"/>
        <path id="Path_42" data-name="Path 42" d="M70.868,250.058c.075.157-1.658,1.147-3.87,2.212s-4.068,1.8-4.144,1.645,1.658-1.146,3.872-2.212,4.068-1.8,4.143-1.645" transform="translate(12.954 51.536)" fill="#e0e0e0"/>
        <path id="Path_43" data-name="Path 43" d="M117.892,225.8c.075.157-1.21.931-2.869,1.73s-3.066,1.319-3.142,1.164,1.21-.931,2.869-1.73,3.067-1.321,3.142-1.164" transform="translate(23.059 46.534)" fill="#e0e0e0"/>
        <path id="Path_44" data-name="Path 44" d="M67.832,266.837a1.634,1.634,0,0,1,.334-.257l1.016-.677,3.9-2.5,14-8.791.275-.172.119.3a7.886,7.886,0,0,1,.153,5.314,6.5,6.5,0,0,1-3.854,4.177,6.431,6.431,0,0,1-5.968-.672,5.608,5.608,0,0,1-2-5.874,5.079,5.079,0,0,1,1.153-2.189,3.117,3.117,0,0,1,.452-.431,2.129,2.129,0,0,1,.548-.375.9.9,0,0,1,.842.029,1.422,1.422,0,0,1,.478.554,10.825,10.825,0,0,1,.538,8.873,6.724,6.724,0,0,1-2.594,3.437,3.857,3.857,0,0,1-4.073-.09,5.822,5.822,0,0,1-2.418-3.027c-.786-2.439-.291-4.8.039-6.809l.076-.46.309.346a9.447,9.447,0,0,1,2.3,5.2,10.048,10.048,0,0,1-.4,4.277,8.909,8.909,0,0,1-1.212,2.428c-.183.251-.346.423-.449.545s-.163.176-.171.169a11.275,11.275,0,0,0,1.6-3.213,10.025,10.025,0,0,0,.288-4.161,9.151,9.151,0,0,0-2.276-4.943l.384-.113c-.309,2.014-.741,4.317.016,6.564a5.3,5.3,0,0,0,2.208,2.722,3.282,3.282,0,0,0,3.489.069,6.168,6.168,0,0,0,2.333-3.155,10.238,10.238,0,0,0-.525-8.358.854.854,0,0,0-.253-.318.266.266,0,0,0-.265.008,3.11,3.11,0,0,0-.79.655,4.471,4.471,0,0,0-1.007,1.919,4.991,4.991,0,0,0,1.755,5.218,5.829,5.829,0,0,0,5.387.609,5.92,5.92,0,0,0,3.519-3.791,7.355,7.355,0,0,0-.109-4.933l.394.13-14.119,8.6-3.979,2.372-1.059.607a1.6,1.6,0,0,1-.379.185" transform="translate(13.981 52.443)" fill="#e0e0e0"/>
        <path id="Path_45" data-name="Path 45" d="M122.275,240.577a3.908,3.908,0,0,1-.2,1.131,4.648,4.648,0,0,1-.546,1.28,2.7,2.7,0,0,1-1.514,1.152,1.875,1.875,0,0,1-1.175-.039,2.373,2.373,0,0,1-1-.782,22.824,22.824,0,0,1-1.352-2.3l-3-5.471.55-.128c-.1,2.767-.2,5.785-.315,8.946q-.042,1.131-.084,2.23l-.048,1.247-.545-1.122-4.53-9.311.5-.048a32.05,32.05,0,0,0-1.147,8.413c0,2.059.14,3.232.07,3.24a3.2,3.2,0,0,1-.174-.835,24.039,24.039,0,0,1-.21-2.4,29.523,29.523,0,0,1,.942-8.557l.181-.693.32.644c1.367,2.75,2.932,5.9,4.609,9.274l-.592.125c.027-.731.054-1.476.082-2.229.127-3.161.247-6.179.358-8.945l.042-1.084.507.956,2.916,5.516a24.407,24.407,0,0,0,1.259,2.271,1.615,1.615,0,0,0,1.748.737,3.071,3.071,0,0,0,1.968-2.144,7.665,7.665,0,0,1,.382-1.073" transform="translate(22.164 48.295)" fill="#e0e0e0"/>
        <path id="Path_46" data-name="Path 46" d="M123.507,235.762c.1.144-4.88,3.7-11.116,7.94s-11.372,7.565-11.47,7.421,4.879-3.7,11.117-7.94,11.371-7.565,11.469-7.421" transform="translate(20.801 48.593)" fill="#e0e0e0"/>
        <path id="Path_47" data-name="Path 47" d="M127.574,236.638c.113.133-3.536,3.456-8.151,7.421s-8.448,7.077-8.561,6.946,3.536-3.454,8.152-7.421,8.446-7.076,8.56-6.946" transform="translate(22.85 48.773)" fill="#e0e0e0"/>
        <path id="Path_48" data-name="Path 48" d="M168.62,25.571h-5.075L152.468,10.134V0s-7.845-.482-6.923,12.784-.075,9.889-.075,9.889-16.658.064-18.042,1.511c-1.007,1.052-1.462,17.6-1.635,26.573-.088,4.518,2.682,8.719,6.884,9.786a7.239,7.239,0,0,0,1.792.241c4.155,0,25.384-3.377,25.384-3.377h8.767Z" transform="translate(25.927 0)" fill="#f5f5f5"/>
        <path id="Path_49" data-name="Path 49" d="M175.367,18.895,172.246,53.61h-8.692V19.593Z" transform="translate(33.711 3.894)" fill="#f5f5f5"/>
        <path id="Path_50" data-name="Path 50" d="M500.52,27.953c-1.31-10.562-10.246-20.41-20.889-20.416-6.286,0-12.263,3.282-16.558,7.871a43.224,43.224,0,0,0-4.2,4.979,43.128,43.128,0,0,0-3.136-5.707c-3.308-5.345-8.521-9.743-14.684-10.977-10.437-2.089-21.135,5.809-24.5,15.905s-.563,21.434,4.968,30.527,15.057,20.978,32.6,26.876c12.1-1.55,28.3-12.281,35.513-20.106s12.189-18.39,10.879-28.952" transform="translate(85.558 0.694)" fill="#55bbeb"/>
        <path id="Path_51" data-name="Path 51" d="M496.43,42.979a1.29,1.29,0,0,1-.352,0l-1.026-.066-3.939-.323-14.476-1.326.26-.16-6.031,15.722-.363.948-.239-.988c-1.837-7.63-3.9-16.179-6.066-25.186-.667-2.789-1.323-5.534-1.965-8.212l.613.122c-3.933,5.408-7.655,10.527-11.048,15.19l-.106.147-.177-.019-25.432-2.653-7.2-.8-1.9-.239a3.286,3.286,0,0,1-.65-.115,3.152,3.152,0,0,1,.661.014l1.912.142,7.216.628,25.457,2.4-.283.128c3.376-4.676,7.081-9.806,11-15.228l.438-.607.175.728c.643,2.679,1.3,5.423,1.97,8.211l6.005,25.2-.6-.041c2.284-5.827,4.369-11.14,6.148-15.677l.071-.18.189.021,14.454,1.549,3.926.458,1.019.137a1.311,1.311,0,0,1,.345.071" transform="translate(85.811 4.638)" fill="#fafafa"/>
        <rect id="Rectangle_2" data-name="Rectangle 2" width="7.964" height="35.688" transform="translate(316.237 94.594)" fill="#55bbeb"/>
        <rect id="Rectangle_3" data-name="Rectangle 3" width="35.688" height="7.964" transform="translate(302.375 108.456)" fill="#55bbeb"/>
        <path id="Path_52" data-name="Path 52" d="M300.292,98.418a2.74,2.74,0,0,1-.057-.481c-.025-.347-.059-.815-.1-1.41-.02-.314-.042-.66-.068-1.038-.042-.381-.125-.792-.194-1.241a21.577,21.577,0,0,0-.628-3.062,28.394,28.394,0,0,0-3.306-7.867A29.492,29.492,0,0,0,260.51,70.751a27.051,27.051,0,0,0-7.45,4.012,26.938,26.938,0,0,0-6.224,6.254,28.564,28.564,0,0,0-4.207,8.111,29.178,29.178,0,0,0,0,18.577,28.515,28.515,0,0,0,4.207,8.114,26.911,26.911,0,0,0,6.224,6.255,27.043,27.043,0,0,0,7.451,4.013,29.569,29.569,0,0,0,35.427-12.568,28.4,28.4,0,0,0,3.306-7.866,21.781,21.781,0,0,0,.63-3.064c.068-.447.151-.86.193-1.24.025-.379.047-.725.068-1.038.043-.595.077-1.063.1-1.41a2.739,2.739,0,0,1,.057-.481,2.765,2.765,0,0,1,.008.482c-.011.35-.024.819-.041,1.417-.011.315-.024.663-.037,1.046-.033.384-.106.8-.165,1.251a21.052,21.052,0,0,1-.577,3.1,28.192,28.192,0,0,1-3.241,7.987,29.945,29.945,0,0,1-20.155,14.2,30.051,30.051,0,0,1-15.771-1.265,27.577,27.577,0,0,1-7.612-4.074,27.48,27.48,0,0,1-6.362-6.373,29.093,29.093,0,0,1-4.3-8.281,29.736,29.736,0,0,1,0-18.971,29.054,29.054,0,0,1,4.3-8.278A27.5,27.5,0,0,1,252.7,74.28a27.586,27.586,0,0,1,7.611-4.073,30.042,30.042,0,0,1,15.769-1.265,29.945,29.945,0,0,1,20.157,14.2,28.177,28.177,0,0,1,3.242,7.987,21.227,21.227,0,0,1,.577,3.1c.059.452.133.867.165,1.251.013.382.027.731.037,1.046.017.6.03,1.067.041,1.417a2.766,2.766,0,0,1-.008.482" transform="translate(49.567 14.105)" fill="#55bbeb"/>
        <path id="Path_53" data-name="Path 53" d="M629.921,318.538s35.3-8.414,36.461-9.9l-29.028-74.763a54.7,54.7,0,0,0-33.854-33c-18.864-6.414-34.284-5.294-34.284-5.294l-49-2.6a97.029,97.029,0,0,0-38.661,10.7,77.991,77.991,0,0,0-36.3,40.007l-21.968,54.9,55.428,11.59,2.106,58.977-8.36,81.378H625.524l-1.067-128.989Z" transform="translate(87.245 39.776)" fill="#55bbeb"/>
        <g id="Group_3" data-name="Group 3" transform="translate(706.5 338.643)" opacity="0.3">
          <g id="Group_2" data-name="Group 2">
            <g id="Group_1" data-name="Group 1" clip-path="url(#clip-path-3)">
              <path id="Path_54" data-name="Path 54" d="M626.856,280.779c.052.165-9.106,3.153-20.451,6.67s-20.588,6.237-20.639,6.072,9.1-3.153,20.453-6.671,20.585-6.236,20.637-6.07" transform="translate(-585.766 -280.772)" fill="#fff"/>
            </g>
          </g>
        </g>
        <path id="Path_55" data-name="Path 55" d="M492.33,241.448a7.739,7.739,0,0,1-.942-1.285c-.561-.854-1.418-2.059-2.526-3.5a61.694,61.694,0,0,0-4.156-4.862,59.312,59.312,0,0,0-12.152-9.809,61.308,61.308,0,0,0-5.629-3.036c-1.648-.778-3.007-1.363-3.958-1.73a7.907,7.907,0,0,1-1.455-.65,7.7,7.7,0,0,1,1.538.42,39.967,39.967,0,0,1,4.06,1.556,52.884,52.884,0,0,1,5.745,2.944,54.813,54.813,0,0,1,12.272,9.908,52.727,52.727,0,0,1,4.09,4.993,40.2,40.2,0,0,1,2.376,3.64,7.892,7.892,0,0,1,.737,1.415" transform="translate(95.124 44.637)" fill="#263238"/>
        <path id="Path_56" data-name="Path 56" d="M482.483,251.992c.172.018-1.537,18.025-3.817,40.217s-4.27,40.174-4.442,40.158,1.537-18.023,3.817-40.222,4.27-40.171,4.442-40.153" transform="translate(97.741 51.939)" fill="#263238"/>
        <path id="Path_57" data-name="Path 57" d="M582.441,228.4a33.77,33.77,0,0,1-.789-3.653,64.377,64.377,0,0,0-6.046-16.855,33.821,33.821,0,0,1-1.713-3.322c.036-.024.26.257.634.788s.882,1.32,1.468,2.319a50.316,50.316,0,0,1,6.093,16.988c.183,1.145.3,2.077.34,2.725a3.115,3.115,0,0,1,.012,1.011" transform="translate(118.286 42.163)" fill="#263238"/>
        <path id="Path_58" data-name="Path 58" d="M583.87,284.3a9.85,9.85,0,0,1-.3-1.769c-.152-1.143-.337-2.8-.536-4.855-.4-4.106-.818-9.79-1.041-16.081s-.2-11.994-.09-16.117c.054-2.061.122-3.728.193-4.88a10.012,10.012,0,0,1,.171-1.785,9.765,9.765,0,0,1,.074,1.791c0,1.269,0,2.909.006,4.88,0,4.119.055,9.808.275,16.09s.569,11.957.855,16.067c.136,1.966.248,3.6.336,4.867a9.817,9.817,0,0,1,.053,1.793" transform="translate(119.922 49.223)" fill="#263238"/>
        <path id="Path_59" data-name="Path 59" d="M528.681,267.919a252.036,252.036,0,0,1-38.605-.72v5.014h38.605Z" transform="translate(101.011 55.073)" fill="#fff"/>
        <g id="Group_6" data-name="Group 6" transform="translate(583.027 237.475)" opacity="0.3">
          <g id="Group_5" data-name="Group 5">
            <g id="Group_4" data-name="Group 4" clip-path="url(#clip-path-4)">
              <path id="Path_60" data-name="Path 60" d="M568.451,199.013a4.776,4.776,0,0,1,.148.761c.083.545.194,1.285.337,2.225.245,1.95.583,4.809.86,8.433.579,7.25,1.082,17.551,1.259,29.714l.007.464-.417-.2c-7.7-3.741-16.328-7.82-25.307-12.308l-43.866-21.952-13.259-6.716-3.589-1.854-.925-.5a1.514,1.514,0,0,1-.306-.188,1.508,1.508,0,0,1,.336.132l.955.44,3.645,1.75,13.352,6.54,43.944,21.785c8.978,4.488,17.59,8.578,25.267,12.349l-.41.262c-.128-12.148-.551-22.447-1.03-29.693-.228-3.624-.51-6.482-.7-8.438-.1-.943-.187-1.685-.247-2.233a4.9,4.9,0,0,1-.055-.774" transform="translate(-483.393 -196.893)" fill="#fff"/>
            </g>
          </g>
        </g>
        <g id="Group_9" data-name="Group 9" transform="translate(514.198 328.854)" opacity="0.3">
          <g id="Group_8" data-name="Group 8">
            <g id="Group_7" data-name="Group 7" clip-path="url(#clip-path-5)">
              <path id="Path_61" data-name="Path 61" d="M488.063,287.594a2.515,2.515,0,0,1-.639-.11l-1.8-.432-6.6-1.677c-5.567-1.426-13.262-3.377-21.784-5.438s-16.262-3.841-21.866-5.117l-6.634-1.523-1.8-.438a2.486,2.486,0,0,1-.619-.2,2.556,2.556,0,0,1,.644.071l1.824.323c1.581.292,3.863.744,6.678,1.328,5.63,1.166,13.388,2.879,21.919,4.94s16.209,4.084,21.75,5.62c2.77.767,5.008,1.406,6.548,1.869.712.221,1.3.4,1.769.546a2.529,2.529,0,0,1,.605.232" transform="translate(-426.326 -272.656)" fill="#fff"/>
            </g>
          </g>
        </g>
        <path id="Path_62" data-name="Path 62" d="M548.329,191.086c.057-.178,3.315,1.564,6.517,6.3,3.147,4.719,6.1,12.043,7.758,20.469a83.977,83.977,0,0,1,1.406,12c.026,1.857.081,3.623.024,5.272-.089,1.649-.109,3.188-.255,4.583-.148,1.38-.283,2.639-.405,3.761-.153,1.1-.34,2.044-.476,2.815a9.065,9.065,0,0,1-.571,2.369,9.241,9.241,0,0,1,.086-2.435q.114-1.207.263-2.822c.065-1.118.138-2.37.217-3.745s.055-2.908.1-4.539c.011-1.631-.082-3.372-.139-5.2a94.293,94.293,0,0,0-1.484-11.814c-1.631-8.284-4.408-15.536-7.271-20.23a28.386,28.386,0,0,0-4.021-5.115c-1.091-1.092-1.8-1.579-1.75-1.663" transform="translate(113.018 39.383)" fill="#263238"/>
        <path id="Path_63" data-name="Path 63" d="M505.67,191.37c.118.106-.894,1.345-2.55,3.669a50.9,50.9,0,0,0-5.677,10.6,72.545,72.545,0,0,0-4.217,17.333c-.878,6.692-1.254,14.167-1.745,21.989-.406,7.808-.426,15.283-.437,22.08s-.006,12.916-.008,18.08c-.039,5.149-.131,9.32-.286,12.2s-.318,4.469-.443,4.465-.211-1.6-.291-4.473c-.075-2.93-.182-7.076-.312-12.178-.13-5.143-.3-11.269-.4-18.081s-.119-14.311.291-22.192c.493-7.848.919-15.33,1.907-22.126a68.954,68.954,0,0,1,4.705-17.6,44.242,44.242,0,0,1,6.324-10.535,16.611,16.611,0,0,1,3.135-3.228" transform="translate(100.842 39.443)" fill="#263238"/>
        <path id="Path_64" data-name="Path 64" d="M575.381,282.589a24.29,24.29,0,0,1-.238-3.984c-.071-2.565-.133-6.277-.182-10.863-.019-2.3-.041-4.809-.064-7.5-.048-2.691.049-5.6-.163-8.561a14.11,14.11,0,0,0-3.077-8.425,11.591,11.591,0,0,0-8.5-4.02,13.3,13.3,0,0,0-8.885,3.447,15.273,15.273,0,0,0-4.493,7.826c-.745,2.869-1.061,5.753-1.508,8.411-.422,2.658-.815,5.139-1.175,7.409-.727,4.529-1.338,8.189-1.788,10.716a24.3,24.3,0,0,1-.825,3.9,24.4,24.4,0,0,1,.341-3.977c.3-2.547.778-6.228,1.393-10.774.312-2.277.655-4.764,1.022-7.432.4-2.663.673-5.534,1.42-8.55a16.331,16.331,0,0,1,4.792-8.452,14.441,14.441,0,0,1,9.727-3.785,12.765,12.765,0,0,1,9.414,4.471,15.17,15.17,0,0,1,3.3,9.14c.187,3.091.046,5.952.051,8.653-.033,2.691-.063,5.2-.089,7.5-.065,4.586-.139,8.3-.218,10.862a24.279,24.279,0,0,1-.251,3.983" transform="translate(112.219 49.05)" fill="#263238"/>
        <path id="Path_65" data-name="Path 65" d="M561.247,229.242c-.391,4.225-1.746,8.961-4.679,12.029a16.926,16.926,0,0,1,7.784.15c-1.83-3.664-2.124-8.083-2.072-12.178" transform="translate(114.716 47.25)" fill="#263238"/>
        <path id="Path_66" data-name="Path 66" d="M574.557,254.251c-.229.04-.365-2.024-1.914-4.786a14.852,14.852,0,0,0-3.5-4.192,13,13,0,0,0-5.936-2.825,12.729,12.729,0,0,0-6.532.653,14.355,14.355,0,0,0-4.67,2.822c-2.347,2.123-3.109,4.05-3.317,3.939-.11-.013.363-2.135,2.7-4.58a14,14,0,0,1,4.869-3.261,13.251,13.251,0,0,1,7.168-.811,13.481,13.481,0,0,1,6.468,3.182,14.369,14.369,0,0,1,3.541,4.664c1.437,3.056,1.237,5.215,1.126,5.195" transform="translate(113.088 49.68)" fill="#263238"/>
        <path id="Path_67" data-name="Path 67" d="M599.768,380.436c7.184-.024,13.6-5.175,16.983-11.511s4.237-13.7,4.572-20.872a169.549,169.549,0,0,0-6.9-56.33l-31.479,5.5,8.573,84.773Z" transform="translate(120.152 60.128)" fill="#ffbe9d"/>
        <path id="Path_68" data-name="Path 68" d="M491.331,395.193l102.489-3.735,24.858-120.1-107.95,6Z" transform="translate(101.27 55.93)" fill="#263238"/>
        <path id="Path_69" data-name="Path 69" d="M535.073,276.261l1.544-3.062,8.179-.6s2.077-5.366,13.765-5.914c10.477-.491,10.906,4.78,10.906,4.78h5.651v2.571Z" transform="translate(110.286 54.961)" fill="#455a64"/>
        <path id="Path_70" data-name="Path 70" d="M587.634,342.392l7.77-2.265a9.5,9.5,0,0,1,9.32,2.348c2.573,2.533,6.717,6.719,7.308,7.965.866,1.827.868,4.984,0,6.146s1.907,7.143,1.56,9.135-.865,3.986-1.56,4.817,0,3.673-1.737,5.822a28.417,28.417,0,0,1-3.3,3.48s-21.338,1-23.42,0-5.725-4.817-5.725-4.817-1.908-3.488,1.041-3.82l-12.147-4.651a2.884,2.884,0,0,1-1.762-3.641,2.009,2.009,0,0,1,1.071-1.176s-5.452-1.725-6.713-2.281c-2.521-1.112-3.472-6.979,1.743-6.227,2.756.4,6.477,1.2,6.477,1.2s-1.988-3.24.792-5.167c1.689-1.17,9.291.257,9.291.257Z" transform="translate(114.868 70.027)" fill="#ffbe9d"/>
        <path id="Path_71" data-name="Path 71" d="M586.766,369.108c-.01.165-2.9.039-6.31-.942-3.428-.941-5.912-2.479-5.815-2.626s2.623,1.1,5.987,2.021c3.347.965,6.157,1.365,6.138,1.546" transform="translate(118.441 75.34)" fill="#eb996e"/>
        <path id="Path_72" data-name="Path 72" d="M584.2,363.069c-.043.168-4.478-.819-9.906-2.2s-9.794-2.645-9.75-2.813,4.477.819,9.906,2.2,9.792,2.645,9.75,2.813" transform="translate(116.361 73.795)" fill="#eb996e"/>
        <path id="Path_73" data-name="Path 73" d="M586.559,356.8c-.04.169-4.814-.8-10.663-2.171s-10.56-2.615-10.52-2.784,4.812.8,10.663,2.172,10.56,2.614,10.52,2.782" transform="translate(116.532 72.515)" fill="#eb996e"/>
        <path id="Path_74" data-name="Path 74" d="M592.762,347.892a13.054,13.054,0,0,1-2.74.872c-.93.241-1.936.5-3.009.777q-.868.215-1.789.443a6.567,6.567,0,0,1-2.05.2,11.118,11.118,0,0,1-2-.327l-1.792-.408-3.025-.726a13.15,13.15,0,0,1-2.756-.826,13.154,13.154,0,0,1,2.851.392l3.06.6a35.929,35.929,0,0,0,3.7.672,13.639,13.639,0,0,0,3.654-.571l3.053-.649a13.156,13.156,0,0,1,2.846-.441" transform="translate(118.227 71.701)" fill="#eb996e"/>
        <path id="Path_75" data-name="Path 75" d="M590.915,351.277c.065-.043.353.22.589.79a3.6,3.6,0,0,1-1.346,4.3c-.52.335-.906.386-.935.312-.094-.15,1.265-.82,1.763-2.412s-.233-2.918-.071-2.986" transform="translate(121.446 72.402)" fill="#eb996e"/>
        <path id="Path_76" data-name="Path 76" d="M590.3,358.114c.151-.07.635.789.566,1.959s-.637,1.972-.779,1.885c-.162-.081.1-.9.152-1.92.065-1.02-.109-1.862.061-1.924" transform="translate(121.614 73.811)" fill="#eb996e"/>
        <path id="Path_77" data-name="Path 77" d="M590.448,365.539c.159-.059.48.521.328,1.277s-.671,1.17-.794,1.054c-.139-.112.066-.587.177-1.177s.117-1.1.288-1.154" transform="translate(121.594 75.342)" fill="#eb996e"/>
        <path id="Path_78" data-name="Path 78" d="M594.5,347.683a6.783,6.783,0,0,1-2.052-.1l-2.194-.283a8.328,8.328,0,0,0-2.611-.128,6.383,6.383,0,0,0-2.321,1.043c-.668.452-1.252.948-1.813,1.278a3.437,3.437,0,0,1-1.966.674c-.035-.1.731-.317,1.719-1.043.979-.691,2.2-2.14,4.3-2.576a7.3,7.3,0,0,1,1.465-.034c.492.048.893.145,1.313.212l2.182.419a6.7,6.7,0,0,1,1.978.543" transform="translate(119.864 71.416)" fill="#eb996e"/>
        <path id="Path_79" data-name="Path 79" d="M605.249,370.966a10.617,10.617,0,0,1,.544-1.534,11.79,11.79,0,0,0,.858-4.254,12.169,12.169,0,0,0-.456-2.961c-.25-1.06-.736-2.115-1.007-3.384a10.859,10.859,0,0,1,.263-3.943,6.954,6.954,0,0,0-.7-3.88,18.506,18.506,0,0,0-2.22-3.437c-.831-1.052-1.643-2.07-2.452-2.989a14.267,14.267,0,0,0-5.048-3.948,8.183,8.183,0,0,0-4.241-.643c-1.023.135-1.547.413-1.572.352-.01-.02.116-.094.365-.221a5.269,5.269,0,0,1,1.165-.373,7.982,7.982,0,0,1,4.448.47,14.257,14.257,0,0,1,5.312,3.975c.841.929,1.66,1.937,2.505,3a18.554,18.554,0,0,1,2.306,3.552,7.5,7.5,0,0,1,.737,4.22,10.634,10.634,0,0,0-.305,3.757c.228,1.16.708,2.276.944,3.367a12.146,12.146,0,0,1,.394,3.09,11,11,0,0,1-1.075,4.344,6.592,6.592,0,0,1-.771,1.441" transform="translate(121.447 70)" fill="#eb996e"/>
        <path id="Path_80" data-name="Path 80" d="M565.916,323.121l-84.153,13.367,3.738-43.922-46.8-9.042L433.01,348.55l-.985,14.9a29.094,29.094,0,0,0,38.048,29.582l18.083-5.893,88.191-31.375" transform="translate(89.033 58.438)" fill="#ffbe9d"/>
        <path id="Path_81" data-name="Path 81" d="M593.943,309.326a2.39,2.39,0,0,0-2.4-2.811c-4.745-.021-17.551.052-22.074,1.335-5.6,1.588-26.444,10.532-26.444,10.532l8.837,32.633,32,.339s11.69-5.373,11.834-7.7a39.759,39.759,0,0,0-.289-4.357l3.527-1.89c5.257-3.337,1.888-9.737,1.888-9.737s3.616-2.029,3.809-5.694a5.717,5.717,0,0,0-2.824-5.4s1.451-5.161-1.244-6.549-7.255.4-7.255.4a1.93,1.93,0,0,0,.636-1.1" transform="translate(111.925 63.176)" fill="#ffbe9d"/>
        <path id="Path_82" data-name="Path 82" d="M591.166,309.293a3.338,3.338,0,0,1-.982.344c-.644.181-1.589.392-2.764.593-2.351.42-5.624.773-9.226,1.159a75.871,75.871,0,0,0-9.139,1.393c-2.3.539-3.589,1.254-3.642,1.159-.022-.039.288-.236.876-.568a16.066,16.066,0,0,1,2.651-1.019,55.621,55.621,0,0,1,9.186-1.588c3.611-.388,6.877-.669,9.228-.975s3.787-.593,3.813-.5" transform="translate(116.539 63.746)" fill="#eb996e"/>
        <path id="Path_83" data-name="Path 83" d="M594.586,314.707a7.61,7.61,0,0,1-2.245,1.151,36.221,36.221,0,0,1-5.834,1.7c-2.322.487-4.441.8-5.975,1a10.211,10.211,0,0,1-2.506.2c-.037-.2,3.744-.873,8.351-1.808,2.3-.485,4.352-1.029,5.815-1.5a14.8,14.8,0,0,1,2.394-.732" transform="translate(119.139 64.863)" fill="#eb996e"/>
        <path id="Path_84" data-name="Path 84" d="M593.4,324.107c.062.151-2.937,1.451-6.854,2.33-3.915.895-7.18,1.014-7.188.853-.018-.185,3.183-.581,7.05-1.465,3.869-.868,6.929-1.89,6.993-1.718" transform="translate(119.413 66.799)" fill="#eb996e"/>
        <path id="Path_85" data-name="Path 85" d="M591.228,332.134c.062.152-2.237,1.211-5.261,1.936s-5.55.842-5.564.677,2.442-.563,5.417-1.287,5.342-1.5,5.408-1.326" transform="translate(119.629 68.452)" fill="#eb996e"/>
        <path id="Path_86" data-name="Path 86" d="M576.382,327.917c.024.074-.328.287-.977.347a3.69,3.69,0,0,1-3.85-2.734c-.157-.632-.071-1.035.006-1.036.17-.043.347,1.563,1.789,2.588s3.016.66,3.032.835" transform="translate(117.787 66.882)" fill="#eb996e"/>
        <path id="Path_87" data-name="Path 87" d="M575.571,336.225c.028.17-1.252.247-2.345-.737s-1.171-2.252-1-2.245c.177-.039.487.969,1.418,1.777.908.831,1.944,1.025,1.926,1.2" transform="translate(117.929 68.686)" fill="#eb996e"/>
        <path id="Path_88" data-name="Path 88" d="M572.317,318.977c.068.166-.819.446-1.634-.175s-.795-1.545-.615-1.525c.175-.02.391.587.994,1.023.584.461,1.227.5,1.256.677" transform="translate(117.477 65.395)" fill="#eb996e"/>
        <path id="Path_89" data-name="Path 89" d="M543.024,318.433a1.157,1.157,0,0,1,.251-.137l.761-.353L547,316.63c2.594-1.129,6.382-2.755,11.16-4.715,2.392-.976,5.027-2.043,7.912-3.114a30.259,30.259,0,0,1,4.593-1.426,49.21,49.21,0,0,1,5.085-.628c3.5-.271,7.2-.393,11.073-.45l2.935-.025,1.49,0a3.07,3.07,0,0,1,1.592.329,2.574,2.574,0,0,1,1.369,2.907.947.947,0,0,1-.37.419,3.636,3.636,0,0,1-.361.222c-.24.13-.482.238-.727.341a11.478,11.478,0,0,1-1.518.526.3.3,0,0,1-.371-.217.308.308,0,0,1,.213-.371,32.833,32.833,0,0,1,3.99-.889,14.562,14.562,0,0,1,4.22-.148,3.814,3.814,0,0,1,2.066.9,3.75,3.75,0,0,1,1.024,2.032,10.52,10.52,0,0,1-.27,4.4l-.162-.365a5.839,5.839,0,0,1,1.772,1.561,6.271,6.271,0,0,1,.92,5.709A8.432,8.432,0,0,1,600.972,328l.122-.416a10.05,10.05,0,0,1,1.016,5.572,6.419,6.419,0,0,1-3.017,4.564l-.019.011-3.529,1.886.154-.294c.093.845.171,1.68.231,2.514.029.417.052.833.06,1.252,0,.21,0,.422-.007.639a1.621,1.621,0,0,1-.262.7,7.583,7.583,0,0,1-1.819,1.733c-.654.478-1.322.909-1.992,1.321a84.119,84.119,0,0,1-7.943,4.16.246.246,0,0,1-.109.024l-23.289-.357-6.443-.137-1.689-.055a3.138,3.138,0,0,1-.577-.045,3.232,3.232,0,0,1,.578-.033l1.688-.019h6.446l23.29.138-.109.023A84.926,84.926,0,0,0,591.62,347c.66-.408,1.316-.836,1.948-1.3a7.156,7.156,0,0,0,1.667-1.581,1.1,1.1,0,0,0,.174-.432c.008-.192.01-.39,0-.591-.01-.4-.034-.812-.064-1.222-.062-.821-.144-1.654-.238-2.488a.3.3,0,0,1,.154-.294l3.523-1.9-.018.011a5.8,5.8,0,0,0,2.732-4.141,9.491,9.491,0,0,0-.958-5.2.325.325,0,0,1,.123-.416,7.84,7.84,0,0,0,3.376-4.025,5.652,5.652,0,0,0-.825-5.132,5.285,5.285,0,0,0-1.555-1.381.329.329,0,0,1-.161-.365,9.971,9.971,0,0,0,.261-4.113,3.141,3.141,0,0,0-.839-1.7,3.217,3.217,0,0,0-1.732-.733,14.009,14.009,0,0,0-4.031.142,32.186,32.186,0,0,0-3.908.864l-.157-.589a11.112,11.112,0,0,0,1.423-.491c.232-.1.462-.2.674-.314.211-.083.416-.316.5-.3a2.462,2.462,0,0,0-.2-1.265,2.162,2.162,0,0,0-.925-.931,2.457,2.457,0,0,0-1.316-.264l-1.487,0-2.928.016c-3.862.043-7.558.148-11.041.4a49.16,49.16,0,0,0-5.031.592,30.028,30.028,0,0,0-4.529,1.374c-2.883,1.046-5.526,2.089-7.925,3.039l-11.224,4.546-3.007,1.219-.782.305a1.2,1.2,0,0,1-.273.087" transform="translate(111.924 63.126)" fill="#eb996e"/>
        <path id="Path_90" data-name="Path 90" d="M475.309,327.371c.112.174-3.32,1.828-6.222,5.362-2.949,3.5-3.952,7.172-4.144,7.093a6.793,6.793,0,0,1,.627-2.38,18.815,18.815,0,0,1,7.513-9.027,6.75,6.75,0,0,1,2.227-1.049" transform="translate(95.828 67.474)" fill="#eb996e"/>
        <path id="Path_91" data-name="Path 91" d="M578.07,118.325a42.51,42.51,0,0,0-42.295-39.177l-2.2,0c-23.739,1.339-35.864,22.246-33.87,45.94l4.1,94.983a4.286,4.286,0,0,0,2.462,3.7l53.275,25-1.646-49.85s22.826-3.5,23.155-26.314c.158-11.017-1.362-33.733-2.975-54.275" transform="translate(102.952 16.312)" fill="#ffbe9d"/>
        <path id="Path_92" data-name="Path 92" d="M553.173,179.926s-14.571.847-29.875-8.811c0,0,7,16.433,29.766,14.426Z" transform="translate(107.859 35.269)" fill="#eb996e"/>
        <path id="Path_93" data-name="Path 93" d="M559.046,123.88a3.258,3.258,0,0,1-3.148,3.281,3.116,3.116,0,0,1-3.352-2.944,3.258,3.258,0,0,1,3.144-3.283,3.118,3.118,0,0,1,3.355,2.947" transform="translate(113.887 24.925)" fill="#263238"/>
        <path id="Path_94" data-name="Path 94" d="M562.757,121.463c-.405.423-2.868-1.408-6.375-1.405-3.5-.049-6.079,1.75-6.458,1.319-.187-.191.227-.956,1.348-1.771a8.937,8.937,0,0,1,5.171-1.581,8.581,8.581,0,0,1,5.074,1.649c1.076.83,1.439,1.6,1.24,1.789" transform="translate(113.338 24.327)" fill="#263238"/>
        <path id="Path_95" data-name="Path 95" d="M530.473,124.763a3.259,3.259,0,0,1-3.149,3.281,3.117,3.117,0,0,1-3.353-2.944,3.261,3.261,0,0,1,3.146-3.283,3.12,3.12,0,0,1,3.357,2.947" transform="translate(107.997 25.107)" fill="#263238"/>
        <path id="Path_96" data-name="Path 96" d="M534.185,121.946c-.405.425-2.873-1.408-6.377-1.405-3.5-.048-6.079,1.75-6.457,1.319-.186-.191.223-.955,1.348-1.769a8.94,8.94,0,0,1,5.171-1.582,8.593,8.593,0,0,1,5.074,1.649c1.073.83,1.439,1.6,1.241,1.789" transform="translate(107.448 24.426)" fill="#263238"/>
        <path id="Path_97" data-name="Path 97" d="M542.759,147.931c-.016-.2,2.164-.572,5.7-1.016.895-.09,1.743-.267,1.895-.878a4.56,4.56,0,0,0-.592-2.655q-1.256-3.251-2.633-6.822c-3.657-9.714-6.3-17.7-5.91-17.844s3.675,7.613,7.332,17.327q1.319,3.591,2.522,6.863c.336,1.018.917,2.173.457,3.515a2.243,2.243,0,0,1-1.475,1.305,6.02,6.02,0,0,1-1.521.209c-3.554.183-5.758.2-5.771,0" transform="translate(111.544 24.469)" fill="#263238"/>
        <path id="Path_98" data-name="Path 98" d="M534.028,144.931c.571-.031.569,3.774,3.821,6.482s7.3,2.3,7.332,2.83c.053.239-.9.737-2.617.78a9.48,9.48,0,0,1-6.121-2.147,8.258,8.258,0,0,1-2.96-5.434c-.141-1.592.285-2.534.545-2.511" transform="translate(109.952 29.872)" fill="#263238"/>
        <path id="Path_99" data-name="Path 99" d="M535.493,110.421c-.347.953-3.847.493-7.962.981-4.124.405-7.443,1.6-7.987.747-.242-.41.338-1.305,1.68-2.225a13.945,13.945,0,0,1,12.15-1.316c1.509.611,2.267,1.362,2.118,1.814" transform="translate(107.074 22.215)" fill="#263238"/>
        <path id="Path_100" data-name="Path 100" d="M561.546,113.084c-.619.795-3.032-.036-5.936-.081-2.9-.147-5.364.523-5.928-.311-.247-.4.141-1.2,1.217-1.953a8.593,8.593,0,0,1,9.561.316c1.024.82,1.359,1.64,1.087,2.029" transform="translate(113.282 22.557)" fill="#263238"/>
        <path id="Path_101" data-name="Path 101" d="M505.1,131.366c-.39-.169-15.667-4.669-15.2,10.93s16.029,11.913,16.044,11.464-.843-22.394-.843-22.394" transform="translate(100.972 26.926)" fill="#ffbe9d"/>
        <path id="Path_102" data-name="Path 102" d="M501.46,147.12c-.07-.048-.267.2-.72.422a2.71,2.71,0,0,1-2.029.1c-1.666-.555-3.132-3.13-3.292-5.939a8.982,8.982,0,0,1,.644-3.913,3.143,3.143,0,0,1,1.982-2.147,1.382,1.382,0,0,1,1.626.7c.222.429.133.743.216.768.045.037.327-.271.182-.912a1.73,1.73,0,0,0-.643-.959,2.043,2.043,0,0,0-1.515-.352,3.818,3.818,0,0,0-2.766,2.5,9.229,9.229,0,0,0-.813,4.376c.194,3.14,1.891,6.033,4.166,6.617a2.907,2.907,0,0,0,2.473-.486c.472-.4.543-.751.488-.778" transform="translate(101.885 27.798)" fill="#eb996e"/>
        <path id="Path_103" data-name="Path 103" d="M514.408,96.254l65.043,1.434c-2.021-4.488-5.634-8.08-9.555-11.054a50.827,50.827,0,0,0-29.452-10.6c-10.608-.186-32.2,12.734-39.886,20.049-6.149,5.853-6.11,10.918-6.11,10.918-.977,8.433,3.744,18.021,5.621,26.3.967,4.271,2.836,17.191,2.836,17.191h0c3.583-.013,4.915-2.866,4.371-6.408l-.671-13.9s12.189-8.662,6.413-24.515c-.927-1.262-2.9-7.055,1.388-9.414" transform="translate(101.885 15.671)" fill="#263238"/>
        <path id="Path_104" data-name="Path 104" d="M522.38,133.841a.425.425,0,1,1,.3-.49.407.407,0,0,1-.3.49" transform="translate(107.573 27.414)" fill="#eb996e"/>
        <path id="Path_105" data-name="Path 105" d="M527.939,132.613a.5.5,0,1,1,.286-.55.443.443,0,0,1-.286.55" transform="translate(108.715 27.136)" fill="#eb996e"/>
        <path id="Path_106" data-name="Path 106" d="M531.676,132.58c-.212.027-.419-.234-.461-.58s.094-.649.305-.674.419.233.462.579-.094.649-.306.675" transform="translate(109.489 27.068)" fill="#eb996e"/>
        <path id="Path_107" data-name="Path 107" d="M525.089,137.273c-.213,0-.386-.111-.386-.248s.174-.246.387-.246.386.112.386.248-.174.246-.387.246" transform="translate(108.148 28.192)" fill="#eb996e"/>
        <path id="Path_108" data-name="Path 108" d="M530.191,136.168a.442.442,0,1,1,.349-.47.415.415,0,0,1-.349.47" transform="translate(109.192 27.886)" fill="#eb996e"/>
        <path id="Path_109" data-name="Path 109" d="M556.713,133.055a.44.44,0,1,1,.294-.5.415.415,0,0,1-.294.5" transform="translate(114.648 27.247)" fill="#eb996e"/>
        <path id="Path_110" data-name="Path 110" d="M560.492,132.735a.5.5,0,1,1,.338-.521.444.444,0,0,1-.338.521" transform="translate(115.436 27.158)" fill="#eb996e"/>
        <path id="Path_111" data-name="Path 111" d="M553.366,133.11a.342.342,0,1,1,.314-.408.366.366,0,0,1-.314.408" transform="translate(113.963 27.297)" fill="#eb996e"/>
        <path id="Path_112" data-name="Path 112" d="M556.187,136.931a.452.452,0,1,1,.174-.564.419.419,0,0,1-.174.564" transform="translate(114.519 28.049)" fill="#eb996e"/>
        <path id="Path_113" data-name="Path 113" d="M559.373,136.257a.33.33,0,1,1,.458-.211.359.359,0,0,1-.458.211" transform="translate(115.233 27.952)" fill="#eb996e"/>
        <path id="Path_114" data-name="Path 114" d="M499.247,98.856c-1.661-5.7-.006-12.042,3.651-16.716a19.1,19.1,0,0,1,15.563-7.191c3.037.124,6.056.985,9.078.655,5.626-.615,9.967-5.127,15.187-7.317A19.821,19.821,0,0,1,566.113,75.3c1.979,2.954,3.278,6.6,6.309,8.465,2.621,1.609,5.923,1.474,8.869,2.362,5.955,1.793,10.034,8.116,9.724,14.327s-4.66,11.9-10.385,14.332a20.831,20.831,0,0,1-17.975-1.269c-4.908-2.731-9.3-7.39-14.916-7.225-5.815.17-10.9,5.654-16.6,4.517-2.991-.6-5.3-2.9-7.485-5.022s-4.71-4.284-7.754-4.464-4.63,4-3.541,6.852Z" transform="translate(102.768 13.789)" fill="#263238"/>
        <path id="Path_115" data-name="Path 115" d="M575.977,88.721c.01.006-.025.082-.1.228a6.154,6.154,0,0,1-.378.628,10.624,10.624,0,0,1-1.865,2.118,11.552,11.552,0,0,1-3.868,2.24,11.039,11.039,0,0,1-5.9.352,11.67,11.67,0,0,1-6.225-3.541c-1.778-1.951-2.832-4.562-4.486-6.854a8.445,8.445,0,0,0-7.463-3.8,9.812,9.812,0,0,0-4.426,1.193A8.284,8.284,0,0,0,538,84.643c-.785,1.428-1.348,3-2.294,4.388a5.394,5.394,0,0,1-4.165,2.534A8.089,8.089,0,0,1,527,90.254a17.067,17.067,0,0,1-3.453-2.858c-2.006-2.026-3.987-4.047-6.45-4.594a8.188,8.188,0,0,0-6.532,1.535,11.243,11.243,0,0,0-3.588,4.445,18.475,18.475,0,0,0-1.341,4.182c-.241,1.188-.355,2.126-.432,2.762a6.4,6.4,0,0,1-.138.97.745.745,0,0,1-.014-.25c0-.165.006-.41.027-.731a24.462,24.462,0,0,1,.316-2.8,17.987,17.987,0,0,1,1.263-4.283,11.511,11.511,0,0,1,3.647-4.657,8.617,8.617,0,0,1,6.91-1.683c2.667.577,4.735,2.693,6.741,4.691a16.6,16.6,0,0,0,3.353,2.754,7.536,7.536,0,0,0,4.194,1.212,4.773,4.773,0,0,0,3.689-2.275c.882-1.3,1.445-2.85,2.257-4.336a8.914,8.914,0,0,1,3.509-3.6,10.407,10.407,0,0,1,4.718-1.263,9.019,9.019,0,0,1,7.945,4.073c1.7,2.393,2.719,4.972,4.407,6.848a11.267,11.267,0,0,0,5.929,3.453,10.765,10.765,0,0,0,5.7-.251,11.612,11.612,0,0,0,3.82-2.093,14.786,14.786,0,0,0,2.5-2.789" transform="translate(104.098 16.381)" fill="#455a64"/>
        <path id="Path_116" data-name="Path 116" d="M577.665,87.333a3.546,3.546,0,0,1,.265,1.253,9.99,9.99,0,0,1-.329,3.486,12.115,12.115,0,0,1-2.439,4.592,14.227,14.227,0,0,1-5.143,3.744,21.121,21.121,0,0,1-11.346,1.283,30.421,30.421,0,0,1-3.409-.679,4.609,4.609,0,0,1-1.21-.4c.023-.1,1.784.335,4.67.642a22.042,22.042,0,0,0,11.041-1.417,14.128,14.128,0,0,0,4.957-3.546,12.217,12.217,0,0,0,2.451-4.338,13.809,13.809,0,0,0,.491-4.615" transform="translate(114.198 18.001)" fill="#455a64"/>
        <path id="Path_117" data-name="Path 117" d="M481.6,299.2a13.046,13.046,0,0,0,2.732,6.759c1.394,1.813,4.231,3.587,6.515,3.457,0,0,5.7.487,8.765-4.4,2.778-4.424,3.464-13.624,1.235-19.065-1.532-3.74-4.974-7.219-9.016-7.315-5.306-.125-8.632,3.71-9.767,7.59" transform="translate(99.264 57.431)" fill="#e0e0e0"/>
        <path id="Path_118" data-name="Path 118" d="M482.065,286.269a8.129,8.129,0,0,1,.982-2.6,10.7,10.7,0,0,1,1.991-2.61,9.272,9.272,0,0,1,3.756-2.206,9.481,9.481,0,0,1,2.523-.4,7.66,7.66,0,0,1,2.761.363A10.87,10.87,0,0,1,499,282.344a14.22,14.22,0,0,1,2.9,6.032,25.992,25.992,0,0,1,.538,7.147c-.245,3.776-.987,7.536-3.077,10.409a9.321,9.321,0,0,1-4,3.018,10.886,10.886,0,0,1-4.533.763h.036a6.822,6.822,0,0,1-3.249-.806,10.69,10.69,0,0,1-2.442-1.7,12.141,12.141,0,0,1-2.661-3.966,11.64,11.64,0,0,1-.843-2.928,7.562,7.562,0,0,1-.076-.795c-.006-.181,0-.274.011-.275a16.2,16.2,0,0,0,1.176,3.879,12.244,12.244,0,0,0,2.673,3.779,10.444,10.444,0,0,0,2.37,1.59,6.39,6.39,0,0,0,3.013.713h.036a9.646,9.646,0,0,0,8.017-3.632c1.947-2.69,2.7-6.385,2.926-10.081.259-4.771-.54-9.579-3.255-12.779a10.4,10.4,0,0,0-4.641-3.4,7.161,7.161,0,0,0-2.586-.374,9.045,9.045,0,0,0-6.052,2.382,10.938,10.938,0,0,0-2.018,2.474,22.5,22.5,0,0,0-1.194,2.48" transform="translate(99.262 57.39)" fill="#263238"/>
        <path id="Path_119" data-name="Path 119" d="M479.257,299.4a13.047,13.047,0,0,0,2.732,6.759c1.394,1.814,4.231,3.587,6.515,3.457,0,0,5.7.487,8.765-4.4,2.778-4.424,3.464-13.624,1.235-19.065-1.532-3.74-4.974-7.219-9.016-7.315-5.306-.125-8.632,3.71-9.766,7.59" transform="translate(98.781 57.471)" fill="#e0e0e0"/>
        <path id="Path_120" data-name="Path 120" d="M479.724,286.467a8.129,8.129,0,0,1,.982-2.6,10.672,10.672,0,0,1,1.991-2.61,9.256,9.256,0,0,1,3.756-2.2,9.432,9.432,0,0,1,2.523-.4,7.659,7.659,0,0,1,2.761.363,10.869,10.869,0,0,1,4.926,3.533,14.22,14.22,0,0,1,2.9,6.032,26,26,0,0,1,.538,7.147c-.245,3.776-.987,7.535-3.077,10.408a9.314,9.314,0,0,1-4,3.019,10.887,10.887,0,0,1-4.533.763h.036a6.822,6.822,0,0,1-3.249-.806,10.7,10.7,0,0,1-2.442-1.7,12.14,12.14,0,0,1-2.661-3.966,11.64,11.64,0,0,1-.843-2.928,7.593,7.593,0,0,1-.076-.795c-.006-.181,0-.274.011-.275a16.22,16.22,0,0,0,1.176,3.879,12.243,12.243,0,0,0,2.673,3.779,10.445,10.445,0,0,0,2.37,1.59,6.39,6.39,0,0,0,3.013.713h.036a9.646,9.646,0,0,0,8.017-3.632c1.947-2.69,2.7-6.385,2.926-10.081.259-4.771-.54-9.579-3.255-12.779a10.409,10.409,0,0,0-4.641-3.4,7.158,7.158,0,0,0-2.586-.374,9.046,9.046,0,0,0-6.052,2.382,10.941,10.941,0,0,0-2.018,2.474,22.523,22.523,0,0,0-1.194,2.48" transform="translate(98.779 57.431)" fill="#263238"/>
        <path id="Path_121" data-name="Path 121" d="M484.735,284.02c-2.637-.525-5.361,1.286-6.477,3.732a10.708,10.708,0,0,0,.014,7.871,9.753,9.753,0,0,0,2.008,3.546,5.3,5.3,0,0,0,3.6,1.75,6.264,6.264,0,0,0,4.979-2.943,11.226,11.226,0,0,0,1.7-9.252c-.55-2.091-2.089-4.235-4.25-4.291" transform="translate(98.422 58.521)" fill="#e0e0e0"/>
        <path id="Path_122" data-name="Path 122" d="M486.356,284.446a1.154,1.154,0,0,1,.48-.012,3.353,3.353,0,0,1,1.309.443,6.424,6.424,0,0,1,2.758,4.153,11.4,11.4,0,0,1-.744,7.383,9.642,9.642,0,0,1-2.7,3.55,5.228,5.228,0,0,1-4.654,1.113,6.49,6.49,0,0,1-3.718-3.038,13.588,13.588,0,0,1-1.549-4.167,9.277,9.277,0,0,1,1.2-7.286,6.484,6.484,0,0,1,4.208-2.676,4.685,4.685,0,0,1,1.376,0,1.381,1.381,0,0,1,.461.13,8.881,8.881,0,0,0-1.794.115,6.4,6.4,0,0,0-3.888,2.69,8.936,8.936,0,0,0-1,6.913,13.225,13.225,0,0,0,1.509,3.966,5.92,5.92,0,0,0,3.359,2.752,4.633,4.633,0,0,0,4.108-1,9.144,9.144,0,0,0,2.558-3.308,11.145,11.145,0,0,0,.836-7.039,6.341,6.341,0,0,0-2.454-4.043,5.131,5.131,0,0,0-1.66-.639" transform="translate(98.375 58.506)" fill="#263238"/>
        <path id="Path_123" data-name="Path 123" d="M489.628,300.966c-.1.024-.228-.379-.642-.864a4.477,4.477,0,0,0-2.059-1.321,11.308,11.308,0,0,0-2.532-.393c-.673-.048-1.1-.1-1.1-.192s.413-.187,1.1-.252a7.133,7.133,0,0,1,2.725.238,4.011,4.011,0,0,1,2.231,1.662c.378.637.352,1.113.28,1.122" transform="translate(99.613 61.403)" fill="#263238"/>
        <path id="Path_124" data-name="Path 124" d="M490.538,282.644c.056.053-.186.431-.748.874a6,6,0,0,1-5.312.96c-.681-.22-1.04-.488-1.006-.558.064-.175,1.668.475,3.664.092,2-.339,3.279-1.509,3.4-1.368" transform="translate(99.65 58.254)" fill="#263238"/>
        <path id="Path_125" data-name="Path 125" d="M229.048,113.948c.151-5.254-4.709-9.314-9.6-11.239s-10.327-2.65-14.687-5.584c-3.862-2.6-6.456-6.652-9.725-9.965a32.354,32.354,0,0,0-54.414,14.845c-1.878,7.483-.6,16.328,5.3,21.3,6.846,5.771,16.994,4.489,25.766,2.694s18.7-3.565,26.023,1.585c4.417,3.107,6.948,8.159,9.648,12.837s6.088,9.451,11.194,11.208,12.038-1.277,12.237-6.673" transform="translate(28.819 15.991)" fill="#263238"/>
        <path id="Path_126" data-name="Path 126" d="M231.529,114.138c-.578,4.4,2.609,8.346,5.781,11.456s6.757,6.407,7.316,10.813c.655,5.146-3.1,10.216-2.013,15.289.692,3.22,3.2,5.7,4.715,8.622a18.321,18.321,0,0,1,.935,13.5c-1.307,4.436-3.39,14.34-6.473,17.787-8.526,9.531-22.1,17.756-34.564,20.62s-25.408,2.88-38.171,2.1c-10.449-.643-22.465-.163-31.172-14.537-4.51-7.445-6.743-17.345-9.14-25.712-2.064-7.205-3.849-14.921-1.7-22.1,1.25-4.184,3.767-7.9,5-12.092,1.539-5.233.978-10.83,1.6-16.25a37.282,37.282,0,0,1,53.044-29.439" transform="translate(25.984 18.685)" fill="#263238"/>
        <path id="Path_127" data-name="Path 127" d="M136.667,130.54c.978-14.994,10.955-33.372,25.894-31.758l46.632,11.9a8.792,8.792,0,0,1,7.847,8.935l-5.242,112.5.322.07s-10.628,31.733-41.464,22.038c-6.115-1.921-8.906-8.61-10.118-15.489l-.316.04c-.012-.818-.022-1.578-.033-2.357a73.639,73.639,0,0,1-.183-15.449c-.087-9.083-.077-12.809-.083-12.723,0,0-19.152-3.224-23.066-28.23-1.947-12.435-1.277-32.816-.191-49.475" transform="translate(27.953 20.34)" fill="#ffbe9d"/>
        <path id="Path_128" data-name="Path 128" d="M142.716,138.08a3.206,3.206,0,0,0,3.084,3.242,3.066,3.066,0,0,0,3.311-2.884,3.207,3.207,0,0,0-3.08-3.243,3.069,3.069,0,0,0-3.314,2.885" transform="translate(29.415 27.864)" fill="#263238"/>
        <path id="Path_129" data-name="Path 129" d="M140.144,134.469c.4.419,2.83-1.373,6.279-1.357,3.446-.033,5.974,1.749,6.349,1.327.185-.187-.219-.942-1.319-1.748a8.8,8.8,0,0,0-5.081-1.579,8.453,8.453,0,0,0-5,1.6c-1.063.812-1.423,1.567-1.228,1.755" transform="translate(28.875 27.024)" fill="#263238"/>
        <path id="Path_130" data-name="Path 130" d="M170.83,138.08a3.2,3.2,0,0,0,3.084,3.241,3.066,3.066,0,0,0,3.311-2.883,3.208,3.208,0,0,0-3.082-3.243,3.067,3.067,0,0,0-3.313,2.885" transform="translate(35.21 27.864)" fill="#263238"/>
        <path id="Path_131" data-name="Path 131" d="M168.257,135.065c.4.419,2.833-1.373,6.28-1.356,3.446-.034,5.974,1.746,6.349,1.326.183-.187-.215-.942-1.319-1.746a8.79,8.79,0,0,0-5.081-1.58,8.459,8.459,0,0,0-5,1.6c-1.059.812-1.423,1.568-1.229,1.755" transform="translate(34.67 27.147)" fill="#263238"/>
        <path id="Path_132" data-name="Path 132" d="M159.323,160.59c.014-.2-2.129-.57-5.6-1.023-.88-.094-1.713-.27-1.861-.872a4.488,4.488,0,0,1,.593-2.609q1.25-3.2,2.621-6.7c3.638-9.542,6.274-17.39,5.889-17.532s-3.647,7.474-7.287,17.017c-.876,2.353-1.714,4.6-2.51,6.742a5.1,5.1,0,0,0-.466,3.457,2.212,2.212,0,0,0,1.446,1.291,5.949,5.949,0,0,0,1.5.211c3.5.2,5.668.217,5.681.021" transform="translate(31.028 27.176)" fill="#263238"/>
        <path id="Path_133" data-name="Path 133" d="M155.771,191.034a63.6,63.6,0,0,0,33.5-8.855s-8.456,17.285-33.47,14.891Z" transform="translate(32.107 37.55)" fill="#eb996e"/>
        <path id="Path_134" data-name="Path 134" d="M159.075,162.974a6.216,6.216,0,0,1,5.578-2.3,5.677,5.677,0,0,1,3.914,2.111,3.6,3.6,0,0,1,.264,4.113c-.934,1.307-2.88,1.605-4.525,1.134a13.045,13.045,0,0,1-4.4-2.641,3.807,3.807,0,0,1-.983-1.023,1.151,1.151,0,0,1,.007-1.283" transform="translate(32.716 33.11)" fill="#eb996e"/>
        <path id="Path_135" data-name="Path 135" d="M168.116,157.676c-.561-.034-.577,3.711-3.787,6.361s-7.2,2.23-7.226,2.754c-.053.235.887.73,2.571.779a9.327,9.327,0,0,0,6.032-2.087,8.123,8.123,0,0,0,2.936-5.335c.146-1.564-.27-2.493-.526-2.473" transform="translate(32.381 32.499)" fill="#263238"/>
        <path id="Path_136" data-name="Path 136" d="M166.976,129.919c.338.938,3.784.5,7.829,1,4.057.416,7.317,1.608,7.857.767.241-.4-.326-1.286-1.644-2.2a13.725,13.725,0,0,0-11.95-1.346c-1.487.6-2.236,1.332-2.091,1.777" transform="translate(34.412 26.248)" fill="#263238"/>
        <path id="Path_137" data-name="Path 137" d="M141.22,126.228c.605.784,2.983-.023,5.841-.055,2.856-.131,5.277.538,5.835-.28.245-.4-.134-1.183-1.19-1.927a8.458,8.458,0,0,0-9.408.27c-1.012.8-1.345,1.609-1.078,1.992" transform="translate(29.089 25.284)" fill="#263238"/>
        <path id="Path_138" data-name="Path 138" d="M223.031,193.83a22.2,22.2,0,0,1-26.407-24.547c.778-6.139,4.088-12.386,1.959-18.2C195.77,143.4,185,141.041,182.143,133.375c-1.661-4.455-.17-9.668-2.053-14.034-1.771-4.107-6.091-6.472-10.3-7.992s-8.714-2.57-12.244-5.314-5.733-7.923-3.456-11.772a236.882,236.882,0,0,1,54.624,13.272c4.079,1.523,8.364,3.354,10.777,6.981,2.552,3.837,2.429,8.794,2.214,13.4q-1.57,33.669-3.142,67.336" transform="translate(31.57 19.429)" fill="#263238"/>
        <path id="Path_139" data-name="Path 139" d="M221.737,204.6a1.59,1.59,0,0,0,.4-.258l1.112-.847c.967-.757,2.387-1.884,4.141-3.43a43.989,43.989,0,0,0,5.877-6.185,23.06,23.06,0,0,0,4.675-10.289c.745-4.106.2-9.274-3.224-13.154a50.766,50.766,0,0,0-5.824-4.966,13.59,13.59,0,0,1-4.543-6.2c-1.849-5.1-1.024-11-1.739-17.027a33.886,33.886,0,0,0-7.086-17.223,23.363,23.363,0,0,0-7.413-6.058c-2.837-1.5-5.91-2.114-8.748-2.953a20.368,20.368,0,0,1-7.676-3.782,30.166,30.166,0,0,1-5.572-6.145c-3.14-4.459-5.461-9.211-8.452-13.173a28.612,28.612,0,0,0-4.926-5.23A18.833,18.833,0,0,0,166.9,84.5c-4.034-1.376-8.294-.92-11.1,1.107a10.223,10.223,0,0,0-3.943,7.483,7.457,7.457,0,0,0,1.5,5.149,4.647,4.647,0,0,0,1.019.976c.254.192.388.281.4.265s-.1-.135-.327-.351a5.467,5.467,0,0,1-.914-1.024,7.4,7.4,0,0,1-1.254-4.985,9.834,9.834,0,0,1,3.874-7.014c2.638-1.835,6.661-2.231,10.5-.87a18.119,18.119,0,0,1,5.555,3.1,27.906,27.906,0,0,1,4.727,5.113c2.9,3.9,5.175,8.638,8.357,13.215a31.064,31.064,0,0,0,5.741,6.377,21.383,21.383,0,0,0,8.03,4c2.9.86,5.883,1.474,8.553,2.892a22.354,22.354,0,0,1,7.064,5.785,32.964,32.964,0,0,1,6.866,16.66c.727,5.829-.116,11.819,1.856,17.239a14.569,14.569,0,0,0,4.878,6.594,50.785,50.785,0,0,1,5.762,4.829c3.207,3.571,3.809,8.448,3.136,12.421a22.606,22.606,0,0,1-4.4,10.047,46,46,0,0,1-5.672,6.237c-1.7,1.586-3.074,2.763-3.995,3.576a12.229,12.229,0,0,0-1.374,1.275" transform="translate(31.297 17.254)" fill="#455a64"/>
        <path id="Path_140" data-name="Path 140" d="M215.894,186.883c5.138-4.967,13.917-.649,18.229,5.051s7.368,13.044,13.914,15.911,15.063.4,20.558,4.966c7.576,6.293,3.322,20.879,11.512,26.35,3.252,2.172,7.541,2.1,11.017,3.886,8.191,4.224,8.093,15.777,6.827,24.905-1.775,12.809-3.722,26.088-10.79,36.917s-20.83,18.449-33.068,14.27c-11.761-4.015-17.8-16.706-22.581-28.175q-9.927-23.805-19.856-47.609c-3.829-9.18-7.7-18.5-8.942-28.367s.431-20.527,6.706-28.244" transform="translate(41.703 38.07)" fill="#263238"/>
        <path id="Path_141" data-name="Path 141" d="M218.632,177.441c3.735-.45,6.583,4.125,5.6,7.757s-4.469,6.053-8.021,7.293a11.962,11.962,0,0,1-6.2.716,6.1,6.1,0,0,1-4.691-3.774,3.553,3.553,0,0,1,1.717-4.691c2.456-1.535,3.9-2.743,5.834-3.811,2.966-1.635,2.789-1.855,5.754-3.491" transform="translate(42.26 36.567)" fill="#55bbeb"/>
        <path id="Path_142" data-name="Path 142" d="M146.552,213.262l14.5-10.99,54.644-3.493,2.2,7.327L200.124,317.026l14.022,132.332H137.911Z" transform="translate(28.425 40.971)" fill="#55bbeb"/>
        <g id="Group_12" data-name="Group 12" transform="translate(169.725 436.274)" opacity="0.3">
          <g id="Group_11" data-name="Group 11">
            <g id="Group_10" data-name="Group 10" clip-path="url(#clip-path-6)">
              <path id="Path_143" data-name="Path 143" d="M204.484,368.827c-1.743-1.861-4.6-4.423-7.151-4.478-18.252-.4-36.9-2.226-55.151-2.629L140.72,415.8c4.367-7.7,8.5-15.708,9.649-24.484.5-3.833,1.146-8.414,4.646-10.055,1.979-.929,4.3-.566,6.444-.141,6.593,1.3,13.142,3.007,19.85,3.424s13.728-.562,19.362-4.226a11.814,11.814,0,0,0,4.631-5,6.126,6.126,0,0,0-.819-6.486" transform="translate(-140.721 -361.719)"/>
            </g>
          </g>
        </g>
        <path id="Path_144" data-name="Path 144" d="M155.228,217.078l-1.69-15.86a5.029,5.029,0,0,1,4.547-5.541l50.307-4.546a2.375,2.375,0,0,1,2.587,2.294l.567,18.87L196.98,237.012l-14.974,4.765H163.7l-10.531-11.245Z" transform="translate(31.57 39.393)" fill="#55bbeb"/>
        <path id="Path_145" data-name="Path 145" d="M203.979,203.788c-.011.052-.721-.075-2.012-.206a35.43,35.43,0,0,0-5.483-.093,54.023,54.023,0,0,0-8.053,1.159c-3.006.631-6.271,1.516-9.731,2.357a63.747,63.747,0,0,1-9.9,1.765,25.594,25.594,0,0,1-8.211-.555,17.348,17.348,0,0,1-5.124-2.13,12.327,12.327,0,0,1-1.224-.884c-.263-.224-.393-.35-.38-.367.034-.043.6.4,1.728,1.041a18.812,18.812,0,0,0,5.1,1.907,26.182,26.182,0,0,0,8.063.41,67.6,67.6,0,0,0,9.8-1.8c3.448-.838,6.728-1.709,9.761-2.313a50.033,50.033,0,0,1,8.15-1.036,29.888,29.888,0,0,1,5.534.294c.646.106,1.146.2,1.479.291a1.661,1.661,0,0,1,.5.158" transform="translate(31.712 41.846)" fill="#263238"/>
        <g id="Group_15" data-name="Group 15" transform="translate(187.102 245.172)" opacity="0.3">
          <g id="Group_14" data-name="Group 14">
            <g id="Group_13" data-name="Group 13" clip-path="url(#clip-path-7)">
              <path id="Path_146" data-name="Path 146" d="M156.024,206.229c-1.347,3.7-1.386,8.29,1.347,11.128,2.228,2.315,5.8,2.892,8.953,2.264s5.985-2.286,8.744-3.928c6.926-4.121,13.962-8.389,21.829-10.136a2.846,2.846,0,0,0,1.414-.589.933.933,0,0,0,.045-1.362,1.288,1.288,0,0,0-.651-.187c-6.957-.7-13.864,1.269-20.687,2.8s-14.108,2.616-20.685.242" transform="translate(-155.128 -203.274)"/>
            </g>
          </g>
        </g>
        <path id="Path_147" data-name="Path 147" d="M164.36,194.478a4.611,4.611,0,0,0-1.721,1.645c-.794,1.276-.751,3.44-.687,5.78.129,4.7.9,8.448.72,8.485a8.336,8.336,0,0,1-.68-2.426,37.4,37.4,0,0,1-.668-6.04,27.82,27.82,0,0,1,.069-3.363,5.87,5.87,0,0,1,.87-2.669,3.48,3.48,0,0,1,1.42-1.264c.415-.185.672-.183.679-.148" transform="translate(33.247 40.081)" fill="#263238"/>
        <path id="Path_148" data-name="Path 148" d="M175.229,208.5c-.2-.019.253-3.478-.361-7.678-.578-4.207-1.972-7.4-1.789-7.477a6.638,6.638,0,0,1,1.029,2.043,24.723,24.723,0,0,1,1.541,10.863,6.628,6.628,0,0,1-.421,2.248" transform="translate(35.671 39.85)" fill="#263238"/>
        <path id="Path_149" data-name="Path 149" d="M188.442,192.241a4.8,4.8,0,0,1,.959,1.867,13,13,0,0,1-.661,9.93,4.825,4.825,0,0,1-1.2,1.725c-.182-.087,1.666-2.791,1.89-6.666.291-3.868-1.183-6.794-.99-6.856" transform="translate(38.652 39.623)" fill="#263238"/>
        <path id="Path_150" data-name="Path 150" d="M138.675,216.7s-17.149,11.487-21.655,32.232c-3.545,16.308-13.248,102.444-13.248,102.444L86.783,384.459l11.093,26.389a40.509,40.509,0,0,0,26.653-7.62L132,397.811l13.688-20.31Z" transform="translate(17.887 44.665)" fill="#ebebeb"/>
        <path id="Path_151" data-name="Path 151" d="M162.584,204.09,133.507,219.3l-6.86,22.549-6.116,65.357,11.512,76.623-20.19,64.2,34.819.259.826-37.634,3.477-121.815,3.416-77.6Z" transform="translate(23.054 42.066)" fill="#ebebeb"/>
        <path id="Path_152" data-name="Path 152" d="M143.979,304.48a6.579,6.579,0,0,1-.54-.907l-1.445-2.668c-.6-1.171-1.186-2.678-1.941-4.391-.358-.865-.651-1.824-1.011-2.822s-.737-2.058-1.028-3.2c-2.737-9.025-4.548-22.063-4.167-36.442.039-1.113.081-2.216.157-3.312l.013-.189.177-.076,5.089-2.137-.072.526-5.083-4.084-.106-.086,0-.124c-.239-5.419,1.078-10.293,2.316-14.538,1.28-4.255,2.681-7.919,3.907-10.931s2.3-5.367,3.065-6.968c.382-.8.684-1.414.9-1.822a3.45,3.45,0,0,1,.35-.611,3.935,3.935,0,0,1-.256.656l-.808,1.861c-.706,1.625-1.72,4-2.9,7.023s-2.528,6.7-3.764,10.937c-1.2,4.225-2.462,9.094-2.208,14.346l-.112-.21,5.095,4.069.405.324-.479.2q-2.491,1.049-5.086,2.146l.191-.265c-.074,1.076-.116,2.177-.153,3.283-.379,14.313,1.353,27.3,3.966,36.3.275,1.141.649,2.193.979,3.2s.619,1.958.96,2.824c.72,1.716,1.268,3.23,1.832,4.412q.841,1.708,1.336,2.711a6.752,6.752,0,0,1,.429.969" transform="translate(27.577 43.221)" fill="#263238"/>
        <path id="Path_153" data-name="Path 153" d="M124.355,342.637a5.753,5.753,0,0,1-.281-.946q-.257-1.024-.686-2.741c-.3-1.19-.646-2.654-.982-4.365s-.782-3.648-1.125-5.817c-.381-2.163-.785-4.534-1.111-7.1-.39-2.555-.655-5.3-.964-8.188-.522-5.784-.873-12.165-.879-18.87.031-6.706.406-13.088.95-18.87.32-2.887.595-5.634.993-8.186.337-2.562.75-4.931,1.139-7.092.352-2.169.8-4.106,1.147-5.813s.692-3.171,1-4.36q.436-1.717.7-2.739a5.878,5.878,0,0,1,.283-.944,5.732,5.732,0,0,1-.16.975q-.217,1.033-.581,2.763c-.268,1.2-.584,2.662-.893,4.376s-.73,3.651-1.053,5.819c-.361,2.161-.748,4.529-1.06,7.086-.375,2.55-.631,5.29-.934,8.17-.51,5.769-.866,12.131-.9,18.817.006,6.683.339,13.045.827,18.815.292,2.88.538,5.622.9,8.173.3,2.558.68,4.927,1.032,7.09.316,2.17.721,4.111,1.031,5.823s.613,3.183.877,4.379c.238,1.157.428,2.077.57,2.767a5.857,5.857,0,0,1,.158.974" transform="translate(24.389 50.83)" fill="#263238"/>
        <path id="Path_154" data-name="Path 154" d="M132.222,375.009a13.169,13.169,0,0,1-1.412,2.925,47.793,47.793,0,0,1-9.9,12.091,13.242,13.242,0,0,1-2.59,1.96A22.634,22.634,0,0,1,120.6,389.7a66.249,66.249,0,0,0,9.826-11.995,22.575,22.575,0,0,1,1.791-2.694" transform="translate(24.386 77.294)" fill="#263238"/>
        <path id="Path_155" data-name="Path 155" d="M254.406,215.475a40.012,40.012,0,0,1,24.582,28.463c9.509,41.932,25.785,97.7,26.041,115.7.326,22.917-9.7,38.605-22.777,41.5-10.345,2.288-104.115-2.844-104.115-2.844l-4.385-34.937,75.933-11.179-10.4-58.1,10.292-80.468Z" transform="translate(35.812 44.027)" fill="#ebebeb"/>
        <path id="Path_156" data-name="Path 156" d="M246.712,217.288l-20.995-8.579-22.135-12.968-.139,3.793a22.23,22.23,0,0,1,2.633,15.386l-18.419,96.089,4.179,70.2,8.569,68.8H267l-30.577-71.948,10.794-96.952Z" transform="translate(38.679 40.345)" fill="#ebebeb"/>
        <path id="Path_157" data-name="Path 157" d="M269.086,378.174a2.487,2.487,0,0,1-.452.063l-1.341.129c-1.182.129-2.931.117-5.191.176-4.519.022-11.078-.1-19.237-.364-16.319-.545-39.041-1.638-64.686-3.125l-.259-.014-.031-.257c-.523-4.164-1.076-8.553-1.635-13.009-.944-7.539-1.865-14.891-2.745-21.928l-.037-.3.3-.043,57.984-8.43,17.026-2.415c1.97-.268,3.5-.478,4.576-.622.5-.063.893-.111,1.186-.146a2.365,2.365,0,0,1,.405-.034,2.194,2.194,0,0,1-.4.087l-1.177.2c-1.069.17-2.6.414-4.56.724l-17,2.6c-14.506,2.165-34.772,5.186-57.953,8.644l.261-.341c.885,7.038,1.81,14.388,2.758,21.927.558,4.457,1.11,8.847,1.631,13.009l-.291-.27c25.64,1.506,48.357,2.673,64.666,3.328,8.155.323,14.707.505,19.222.555,2.254-.024,4.007.024,5.183-.066l1.342-.07a2.708,2.708,0,0,1,.46,0" transform="translate(35.754 67.575)" fill="#263238"/>
        <path id="Path_158" data-name="Path 158" d="M227.585,275.456a2.815,2.815,0,0,1,.163.645c.1.495.218,1.11.367,1.86.312,1.709.738,4.032,1.257,6.864,1.024,5.885,2.413,13.862,3.95,22.677,1.471,8.829,2.8,16.818,3.785,22.709.444,2.845.809,5.178,1.077,6.894.106.759.193,1.38.262,1.88a2.634,2.634,0,0,1,.049.662,2.615,2.615,0,0,1-.174-.642c-.1-.493-.226-1.108-.379-1.86-.317-1.708-.748-4.03-1.274-6.859-1.049-5.8-2.454-13.815-3.967-22.68s-2.842-16.889-3.769-22.709c-.437-2.845-.795-5.179-1.059-6.9-.1-.761-.183-1.383-.251-1.884a2.592,2.592,0,0,1-.037-.662" transform="translate(46.906 56.775)" fill="#263238"/>
        <path id="Path_159" data-name="Path 159" d="M212.882,201.351a.835.835,0,0,1,.084.234c.053.189.117.42.194.7.153.621.425,1.532.673,2.732a85.686,85.686,0,0,1,1.6,10.341,117.244,117.244,0,0,1,.4,15.777c-.205,6-.841,12.63-1.745,19.658l-.029.223-.222.041-6.863,1.272.234-.423c.39,1.054.8,2.188,1.11,3.36,2.233,8.152,1.252,16.4-.784,23.294a73.429,73.429,0,0,1-8.063,17.37c-2.865,4.647-5.456,8.223-7.235,10.7-.882,1.194-1.578,2.138-2.083,2.824-.226.294-.409.532-.556.725a1.137,1.137,0,0,1-.207.234,1.189,1.189,0,0,1,.156-.273l.505-.76q.722-1.053,1.985-2.891c1.717-2.515,4.25-6.126,7.056-10.785a74.659,74.659,0,0,0,7.888-17.3c1.985-6.835,2.925-14.968.733-22.964-.308-1.151-.706-2.261-1.087-3.3l-.133-.356.367-.068,6.865-1.264-.251.264c.917-7.015,1.575-13.627,1.816-19.6a122.045,122.045,0,0,0-.261-15.719,96.159,96.159,0,0,0-1.414-10.333c-.213-1.2-.449-2.12-.567-2.75-.057-.287-.1-.521-.14-.715a.85.85,0,0,1-.029-.247" transform="translate(39.036 41.501)" fill="#263238"/>
        <path id="Path_160" data-name="Path 160" d="M209.839,286.217V270.888s.2-3.782-2.986-2.986-2.588,6.769-2.588,6.769-.6,23.292.8,23.093,1.927-1.99,1.927-1.99v-8.96Z" transform="translate(42.076 55.195)" fill="#55bbeb"/>
        <path id="Path_161" data-name="Path 161" d="M222.658,283.914c0,.174-3.677.314-8.212.314s-8.212-.14-8.212-.314,3.676-.314,8.212-.314,8.212.14,8.212.314" transform="translate(42.507 58.454)" fill="#263238"/>
        <path id="Path_162" data-name="Path 162" d="M249.139,222.7a11.468,11.468,0,0,1-1.717.636,39.936,39.936,0,0,0-4.556,1.972,35.423,35.423,0,0,0-12.322,10.5,26.057,26.057,0,0,0-2.422,3.945,24.92,24.92,0,0,0-1.457,4.06,40.767,40.767,0,0,0-1.223,7.244c-.178,2.091-.213,3.794-.227,4.97a14.563,14.563,0,0,1-.043,1.831,7.927,7.927,0,0,1-.2-1.826A45.787,45.787,0,0,1,225,251.02a38,38,0,0,1,1.106-7.36,24.76,24.76,0,0,1,1.459-4.173,25.839,25.839,0,0,1,2.471-4.054,34.135,34.135,0,0,1,12.632-10.527,31.672,31.672,0,0,1,4.677-1.806,9.277,9.277,0,0,1,1.793-.4" transform="translate(46.358 45.9)" fill="#263238"/>
        <path id="Path_163" data-name="Path 163" d="M20.9,328.362l109.7,40.632,92.476,14.137-109.951-53.6Z" transform="translate(4.307 67.68)" fill="#263238"/>
        <path id="Path_164" data-name="Path 164" d="M61.1,368.772a46.74,46.74,0,0,0-5.842-16.62,12.451,12.451,0,0,1-1.5-3.121,3.578,3.578,0,0,1,.621-3.275c1.409-1.533,3.983-.852,5.712.308A20.134,20.134,0,0,1,67.482,356.4,59.939,59.939,0,0,1,69.9,369.087" transform="translate(11.052 71.082)" fill="#ffbe9d"/>
        <path id="Path_165" data-name="Path 165" d="M103.369,359.353H97.914A10.63,10.63,0,0,0,93.13,356.6c-1.257-.359-2.494.31-3.609,1.405,2.438-4.018,5.067-8.44,5.572-9.651.982-2.357-1.178-4.124-4.712-4.124s-19.045,21.99-19.045,21.99,9.639-17.686,10.573-20.388c2.335-6.754-5.049-7.258-7.731-4C70.851,345.881,57.4,366.225,57.4,366.225s-2.552,4.124-.785,8.051,6.871,2.356,6.871,2.356a6.586,6.586,0,0,0,3.6,5.459c3.94,2.189,9.123-.35,9.123-.35l20.065,4.512s3.185-.322,7.263-.727a22.273,22.273,0,0,0,19.832-18.907Z" transform="translate(11.54 70.056)" fill="#ffbe9d"/>
        <path id="Path_166" data-name="Path 166" d="M86.192,354.661c.223.136-2.444,4.338-5.911,9.374-1.734,2.521-3.34,4.779-4.528,6.395a16.557,16.557,0,0,1-2.032,2.539,16.926,16.926,0,0,1,1.667-2.792c1.1-1.68,2.641-3.978,4.376-6.5s3.324-4.785,4.489-6.415c.513-.709.973-1.345,1.392-1.921a4.1,4.1,0,0,1,.548-.681" transform="translate(15.194 73.1)" fill="#eb996e"/>
        <path id="Path_167" data-name="Path 167" d="M83.065,377a18.3,18.3,0,0,1,1.78-3.287c1.186-1.977,2.877-4.674,4.733-7.654.923-1.492,1.814-2.914,2.542-4.229a4.868,4.868,0,0,0,.441-3.723,9.252,9.252,0,0,0-1.713-3.2c.022-.026.333.166.779.651a6.449,6.449,0,0,1,1.362,2.424,5.228,5.228,0,0,1-.357,4.112c-.721,1.365-1.6,2.792-2.522,4.291-1.86,2.986-3.61,5.646-4.891,7.561A27.652,27.652,0,0,1,83.065,377" transform="translate(17.119 73.151)" fill="#eb996e"/>
        <path id="Path_168" data-name="Path 168" d="M92.252,377.656a11.557,11.557,0,0,1,1.066-3.131l1.435-3.27a25.982,25.982,0,0,0,1.471-4.051,4.724,4.724,0,0,0-.633-3.921,3.759,3.759,0,0,0-1.433-1.022,4,4,0,0,0-1.5-.416,5.922,5.922,0,0,0-2.161.754c-.509.253-.806.375-.826.336s.23-.228.7-.549a10.332,10.332,0,0,1,.9-.54,3.334,3.334,0,0,1,1.381-.446,4.269,4.269,0,0,1,1.71.385,4.183,4.183,0,0,1,1.673,1.135,5.191,5.191,0,0,1,.795,4.424,23.275,23.275,0,0,1-1.556,4.148c-.567,1.225-1.112,2.307-1.56,3.219-.911,1.815-1.387,2.972-1.47,2.945" transform="translate(18.483 74.489)" fill="#eb996e"/>
        <path id="Path_169" data-name="Path 169" d="M94.877,359.134a2.2,2.2,0,0,1,.854.258,9.909,9.909,0,0,1,2.1,1.233,11.444,11.444,0,0,1,3.246,14.547,9.882,9.882,0,0,1-1.374,2.007c-.386.425-.636.622-.663.6-.089-.075.8-.988,1.639-2.8a11.627,11.627,0,0,0-3.126-14.005c-1.527-1.285-2.722-1.731-2.673-1.837" transform="translate(19.555 74.021)" fill="#eb996e"/>
        <path id="Path_170" data-name="Path 170" d="M67.224,349.568c.144.1-1.89,3.353-4.542,7.27s-4.919,7.017-5.063,6.919,1.89-3.352,4.543-7.27,4.919-7.017,5.062-6.919" transform="translate(11.874 72.05)" fill="#eb996e"/>
        <path id="Path_171" data-name="Path 171" d="M186.049,341.888l-12.541-2.844L161.465,327.7a8.559,8.559,0,0,0-5.372-2.312l-21.919-1.262a8.558,8.558,0,0,0-6.01,2l-15.671,13.239,68.352,33.323,9.381.829Z" transform="translate(23.186 66.804)" fill="#ffbe9d"/>
        <path id="Path_172" data-name="Path 172" d="M147.186,334.222c-.018.1-1.625-.2-4.223-.527-2.558-.281-6.318-.639-9.925,1.03a25.787,25.787,0,0,0-4.73,2.956c-1.386,1.04-2.629,2-3.728,2.744a20.386,20.386,0,0,1-2.71,1.579,3.753,3.753,0,0,1-1.083.393c-.042-.1,1.445-.76,3.536-2.334,1.053-.777,2.258-1.769,3.634-2.843a24.308,24.308,0,0,1,4.823-3.067,14.15,14.15,0,0,1,5.6-1.252,24.791,24.791,0,0,1,4.647.355c1.306.212,2.347.451,3.064.626a3.962,3.962,0,0,1,1.1.34" transform="translate(24.895 68.614)" fill="#eb996e"/>
        <path id="Path_173" data-name="Path 173" d="M149.014,344.29c-.041.1-.9-.293-2.364-.449a12.76,12.76,0,0,0-5.639.785,29.606,29.606,0,0,0-5.161,2.649,10.357,10.357,0,0,1-2.132,1.19A8.828,8.828,0,0,1,135.6,346.9a22.233,22.233,0,0,1,5.192-2.868,11.541,11.541,0,0,1,5.916-.634,4.627,4.627,0,0,1,2.3.888" transform="translate(27.561 70.749)" fill="#eb996e"/>
        <path id="Path_174" data-name="Path 174" d="M171.233,347.728c-.153.1-1.923-2.523-4.249-5.637s-4.325-5.564-4.19-5.684,2.353,2.161,4.693,5.308,3.888,5.928,3.746,6.014" transform="translate(33.553 69.337)" fill="#eb996e"/>
        <path id="Path_175" data-name="Path 175" d="M142.6,330.407l27.785-25.881a2.653,2.653,0,0,0-3.58-3.916l-32.582,29.219" transform="translate(27.666 61.82)" fill="#55bbeb"/>
        <g id="Group_18" data-name="Group 18" transform="translate(161.894 361.751)" opacity="0.3">
          <g id="Group_17" data-name="Group 17">
            <g id="Group_16" data-name="Group 16" clip-path="url(#clip-path-8)">
              <path id="Path_176" data-name="Path 176" d="M142.6,330.407l27.785-25.881a2.653,2.653,0,0,0-3.58-3.916l-32.582,29.219" transform="translate(-134.228 -299.931)"/>
            </g>
          </g>
        </g>
        <path id="Path_177" data-name="Path 177" d="M332.178,118.57c-.431-.172-17.255-4.586-16.238,12.428s17.889,12.482,17.89,11.992-1.652-24.42-1.652-24.42" transform="translate(65.11 24.307)" fill="#b78876"/>
        <path id="Path_178" data-name="Path 178" d="M327.5,135.889c-.078-.049-.285.224-.771.485a2.97,2.97,0,0,1-2.213.177c-1.836-.551-3.521-3.314-3.786-6.376a9.808,9.808,0,0,1,.574-4.294,3.429,3.429,0,0,1,2.094-2.407,1.511,1.511,0,0,1,1.8.707c.257.462.169.808.261.831.049.041.349-.306.169-1a1.891,1.891,0,0,0-.733-1.026,2.242,2.242,0,0,0-1.666-.335,4.173,4.173,0,0,0-2.937,2.824,10.072,10.072,0,0,0-.744,4.8c.314,3.423,2.261,6.525,4.763,7.09a3.183,3.183,0,0,0,2.684-.613c.5-.451.568-.837.508-.865" transform="translate(65.855 25.273)" fill="#aa6550"/>
        <path id="Path_179" data-name="Path 179" d="M364.621,68.066c8.644,0,17.446,0,28.269,5.651,6.824,3.564,11.081,9.212,14.637,16.04a36.927,36.927,0,0,1,4.021,17.955c-.314,5.883-.334,10-2.685,15.4" transform="translate(75.153 14.029)" fill="#263238"/>
        <path id="Path_180" data-name="Path 180" d="M369.05,69.192a45.871,45.871,0,0,1,49.019,43.345c1.114,21.313,2.1,44.367,1.86,55.975-.507,24.915-25.459,28.59-25.459,28.59s.55,7.389,1.165,16.554a32.817,32.817,0,1,1-65.537,3.421l-3.706-100.417A45.886,45.886,0,0,1,369.05,69.192" transform="translate(67.267 14.238)" fill="#b78876"/>
        <path id="Path_181" data-name="Path 181" d="M388.293,176.907s-15.312.8-31.966-9.849c0,0,7.537,18.128,32.417,16.081Z" transform="translate(73.444 34.433)" fill="#aa6550"/>
        <path id="Path_182" data-name="Path 182" d="M395.7,117.16a3.559,3.559,0,0,1-3.46,3.563,3.4,3.4,0,0,1-3.641-3.237,3.56,3.56,0,0,1,3.456-3.566,3.406,3.406,0,0,1,3.646,3.241" transform="translate(80.095 23.479)" fill="#263238"/>
        <path id="Path_183" data-name="Path 183" d="M399.749,113.078c-.445.461-3.125-1.557-6.954-1.578-3.823-.075-6.649,1.872-7.062,1.4-.2-.209.255-1.043,1.485-1.924a9.754,9.754,0,0,1,5.658-1.695,9.374,9.374,0,0,1,5.53,1.833c1.171.913,1.563,1.755,1.344,1.962" transform="translate(79.495 22.524)" fill="#263238"/>
        <path id="Path_184" data-name="Path 184" d="M364.565,117.159a3.557,3.557,0,0,1-3.459,3.562,3.4,3.4,0,0,1-3.642-3.236,3.559,3.559,0,0,1,3.457-3.565,3.406,3.406,0,0,1,3.645,3.24" transform="translate(73.678 23.48)" fill="#263238"/>
        <path id="Path_185" data-name="Path 185" d="M368.539,113.42c-.445.461-3.129-1.556-6.954-1.576-3.825-.075-6.651,1.873-7.063,1.4-.2-.209.25-1.043,1.486-1.924a9.749,9.749,0,0,1,5.658-1.695,9.372,9.372,0,0,1,5.53,1.833c1.167.913,1.562,1.756,1.344,1.961" transform="translate(73.062 22.595)" fill="#263238"/>
        <path id="Path_186" data-name="Path 186" d="M377.732,141.862c-.016-.218,2.368-.61,6.228-1.072.978-.093,1.906-.28,2.076-.946a4.972,4.972,0,0,0-.63-2.9q-1.352-3.559-2.832-7.467c-3.932-10.633-6.768-19.373-6.339-19.528s3.965,8.339,7.9,18.971q1.418,3.933,2.71,7.513c.362,1.113.988,2.378.478,3.84a2.453,2.453,0,0,1-1.62,1.417,6.665,6.665,0,0,1-1.662.218c-3.884.177-6.291.175-6.3-.042" transform="translate(77.538 22.661)" fill="#263238"/>
        <path id="Path_187" data-name="Path 187" d="M368.218,138.529c.624-.031.6,4.125,4.132,7.1s7.961,2.556,7.989,3.137c.055.262-.994.8-2.863.836a10.343,10.343,0,0,1-6.671-2.384,9.015,9.015,0,0,1-3.2-5.955c-.145-1.738.328-2.764.611-2.738" transform="translate(75.763 28.553)" fill="#263238"/>
        <path id="Path_188" data-name="Path 188" d="M370.044,100.838c-.386,1.037-4.206.514-8.7,1.019-4.508.415-8.141,1.7-8.73.763-.262-.449.377-1.423,1.85-2.421a15.235,15.235,0,0,1,13.279-1.358c1.644.679,2.468,1.5,2.3,2" transform="translate(72.666 20.18)" fill="#263238"/>
        <path id="Path_189" data-name="Path 189" d="M399.128,101.813c-.68.864-3.311-.06-6.483-.127-3.17-.18-5.862.537-6.473-.378-.268-.444.162-1.312,1.344-2.126a9.392,9.392,0,0,1,10.439.406c1.113.9,1.474,1.8,1.174,2.224" transform="translate(79.579 20.156)" fill="#263238"/>
        <path id="Path_190" data-name="Path 190" d="M326.788,124.644s1.083,5.76,1.374,8.362c.106.949-.018,11.508,2.546,12.035,2.2.453,6.589-1.555,8.542-5.921s5.665-14.842,5.264-19.608c-.548-6.5-.85-13.1.447-19.492s4.354-12.624,9.491-16.643,12.542-5.425,18.371-2.5c3.6,1.806,6.29,5,9.643,7.229a14.96,14.96,0,0,0,10.275,2.674c3.582-.531,6.965-3.026,7.943-6.512,1.066-3.8-.894-7.969-3.936-10.487s-6.976-3.674-10.85-4.443c-10.745-2.134-22.137-1.71-32.348,2.259s-19.271,11.59-23.636,21.638c-5.045,11.62-4.459,18.744-3.126,31.41" transform="translate(67.164 14.029)" fill="#263238"/>
        <path id="Path_191" data-name="Path 191" d="M379.694,119.676a30.073,30.073,0,0,0-.649-4.1,16.87,16.87,0,0,0-6.173-9.177,16.655,16.655,0,0,0-15.778-2.348,16.665,16.665,0,0,0-7.719,5.8,16.557,16.557,0,0,0,0,19.651,16.668,16.668,0,0,0,7.72,5.805,16.784,16.784,0,0,0,21.951-11.527,30.045,30.045,0,0,0,.649-4.1.983.983,0,0,1,.017.275c0,.22-.006.485-.01.808a7.7,7.7,0,0,1-.1,1.311,11.969,11.969,0,0,1-.317,1.769,17.043,17.043,0,0,1-13.348,12.723,17.2,17.2,0,0,1-9.039-.713,17.233,17.233,0,0,1-8.019-5.985,17.128,17.128,0,0,1,0-20.38A17.209,17.209,0,0,1,356.9,103.5a17.191,17.191,0,0,1,9.037-.714,17.049,17.049,0,0,1,13.349,12.724,11.942,11.942,0,0,1,.317,1.769,7.686,7.686,0,0,1,.1,1.311c0,.323.007.589.01.808a.984.984,0,0,1-.017.275" transform="translate(71.216 21.125)" fill="#263238"/>
        <path id="Path_192" data-name="Path 192" d="M416.056,119.676a29.672,29.672,0,0,0-.648-4.1,16.874,16.874,0,0,0-6.174-9.177,16.655,16.655,0,0,0-15.78-2.348,16.686,16.686,0,0,0-7.718,5.8,16.562,16.562,0,0,0,0,19.651,16.689,16.689,0,0,0,7.719,5.805,16.785,16.785,0,0,0,21.954-11.527,29.644,29.644,0,0,0,.648-4.1.9.9,0,0,1,.018.275c0,.22-.006.485-.01.808a7.713,7.713,0,0,1-.1,1.311,11.812,11.812,0,0,1-.317,1.769A17.044,17.044,0,0,1,402.3,136.562a17.2,17.2,0,0,1-9.04-.713,17.222,17.222,0,0,1-8.018-5.985,17.123,17.123,0,0,1,0-20.38,17.2,17.2,0,0,1,8.017-5.984,17.2,17.2,0,0,1,9.039-.714,17.046,17.046,0,0,1,13.348,12.724,11.786,11.786,0,0,1,.317,1.769,7.7,7.7,0,0,1,.1,1.311c0,.323.007.589.01.808a.9.9,0,0,1-.018.275" transform="translate(78.71 21.125)" fill="#263238"/>
        <path id="Path_193" data-name="Path 193" d="M384.286,115.527a8.483,8.483,0,0,1-1.564-.54,10.086,10.086,0,0,0-7.578.5c-.9.439-1.412.82-1.478.743-.049-.052.368-.564,1.263-1.131a8.684,8.684,0,0,1,7.954-.529c.962.443,1.444.9,1.4.954" transform="translate(77.017 23.467)" fill="#263238"/>
        <path id="Path_194" data-name="Path 194" d="M388.5,81.525c.245-1.293-.181-2.018.546-2.546.831-.6,2.4.982,2.975,1.613.183.2.769-.586,1-.737a4.327,4.327,0,0,0,.438-1.654c-.107-.9-1.522-1.143-2.189-1.757a6.7,6.7,0,0,0-2.347-1.333,2.243,2.243,0,0,0-2.249.133,2.167,2.167,0,0,0-.5,1.685,4.734,4.734,0,0,0,.34,1.756,2.473,2.473,0,0,0,1.2,1.286" transform="translate(79.595 15.433)" fill="#263238"/>
        <path id="Path_195" data-name="Path 195" d="M325.861,105.039s12.214,4.48,18.574,7.173l-.359-6.246L326.3,98.935s-.452,4.642-.443,6.1" transform="translate(67.164 20.392)" fill="#ebebeb"/>
        <path id="Path_196" data-name="Path 196" d="M326.807,95.95c.068-.16,3.939,1.326,8.648,3.316s8.472,3.735,8.4,3.895-3.939-1.324-8.649-3.316-8.471-3.735-8.4-3.895" transform="translate(67.359 19.774)" fill="#ebebeb"/>
        <path id="Path_197" data-name="Path 197" d="M330.736,210.123l-.944-29.568s5.874,27.06,36.64,26.707c29.4-.338,28.866-23.84,28.866-23.84l1.049,11.916V243.48l-19.18,78.534-24.49,3.107L325.61,217.768Z" transform="translate(67.113 37.215)" fill="#55bbeb"/>
        <path id="Path_198" data-name="Path 198" d="M391.683,197.78a3.079,3.079,0,0,1-.355.63,16.879,16.879,0,0,1-1.165,1.715,25.277,25.277,0,0,1-5.477,5.3,31.505,31.505,0,0,1-10.23,4.8,36.141,36.141,0,0,1-13.8.955,45,45,0,0,1-13.258-3.99,57.472,57.472,0,0,1-9.683-5.836,66.908,66.908,0,0,1-5.865-4.857c-.666-.6-1.149-1.108-1.486-1.44a3.125,3.125,0,0,1-.485-.537,3.2,3.2,0,0,1,.572.444l1.562,1.351c1.357,1.169,3.359,2.82,5.963,4.68a60.107,60.107,0,0,0,9.667,5.671,45.452,45.452,0,0,0,13.092,3.891,36.208,36.208,0,0,0,13.572-.891,31.865,31.865,0,0,0,10.123-4.607,26.842,26.842,0,0,0,5.541-5.09c1.121-1.388,1.657-2.229,1.713-2.193" transform="translate(67.992 40.094)" fill="#263238"/>
        <path id="Path_199" data-name="Path 199" d="M380.764,452.982l-.444-139.556L340.69,211.574l-1.332-30.653-24.148,18.264S280.05,320.191,279.509,316s-.013,136.986-.013,136.986Z" transform="translate(57.56 37.29)" fill="#ebebeb"/>
        <path id="Path_200" data-name="Path 200" d="M362.684,430.172c-.174,0-.314-31.447-.314-70.23s.14-70.236.314-70.236.314,31.44.314,70.236-.14,70.23-.314,70.23" transform="translate(74.689 59.712)" fill="#263238"/>
        <path id="Path_201" data-name="Path 201" d="M309.361,212.59l4.9,3.71-3.446,22.577,57.85,60.594-52.542-69L320.6,212.59Z" transform="translate(63.763 43.818)" fill="#e0e0e0"/>
        <path id="Path_202" data-name="Path 202" d="M389.877,378.369,301.1,352.339l-2.94-67.434,24.349-88.841s-58.043,28.956-61.991,47.383-13.471,63.222-14.487,95.6c-.907,28.949-1.038,48.3,5.572,57.544,18.931,26.463,143.69,31.19,193.534-.037" transform="translate(50.618 40.411)" fill="#ebebeb"/>
        <path id="Path_203" data-name="Path 203" d="M369.831,307.464a2.272,2.272,0,0,1-.288-.326l-.8-1-3.015-3.863c-2.62-3.4-6.372-8.27-11-14.276l-36.094-47.243-2.715-3.568-.092-.119.036-.146c1.551-6.18,3.055-12.17,4.489-17.883l.293.375-11.24-.016h-.288v-.287c.017-7.3.033-14,.047-19.932v-.119l.094-.071,17.448-13.26,4.789-3.594c.531-.39.948-.7,1.259-.923a3.045,3.045,0,0,1,.444-.3,3.039,3.039,0,0,1-.4.352l-1.217.978c-1.11.87-2.692,2.112-4.711,3.7l-17.32,13.426.093-.189c.015,5.933.03,12.629.047,19.932l-.286-.287,11.24-.014h.387l-.094.376c-1.427,5.716-2.924,11.708-4.466,17.889l-.054-.267q1.346,1.769,2.716,3.566c14.027,18.48,26.727,35.21,35.947,47.356l10.838,14.4,2.922,3.933.747,1.032a2.315,2.315,0,0,1,.238.365" transform="translate(63.714 37.29)" fill="#263238"/>
        <path id="Path_204" data-name="Path 204" d="M398.292,193.613c-7.082-12.383-10.754-11.1-10.754-11.1l.369,4.413.008,9.276L384.561,236l-21.51,86.469.444,130.192h81.3l10.12-158.925L454,225.272Z" transform="translate(74.83 37.611)" fill="#ebebeb"/>
        <path id="Path_205" data-name="Path 205" d="M460.866,217.959s21.045,15.536,22.868,40.529c1.48,20.3,4.879,75.889,5.493,87.99.958,18.847-13.717,62.977-51.923,50.476-22.911-7.5-107.565-36.27-107.565-36.27l5.631-35.951,100.477,5.986,1.995-83.8Z" transform="translate(67.964 44.924)" fill="#ebebeb"/>
        <path id="Path_206" data-name="Path 206" d="M342.067,310.25s-28.438-3.074-35.024-1.485c-6.33,1.528-15.343,9.271-15.343,9.271l.128,11.236,45.753,12.787Z" transform="translate(60.123 63.547)" fill="#b78876"/>
        <path id="Path_207" data-name="Path 207" d="M363.051,309.463a2,2,0,0,1,.125-.387l.428-1.111c.4-1.01.975-2.434,1.7-4.25,1.518-3.717,3.688-9.031,6.363-15.583l9.513-23.081c.9-2.163,1.795-4.418,2.912-6.623,1.073-2.226,2.339-4.407,3.642-6.613a145.729,145.729,0,0,1,9.03-13.032c1.64-2.117,3.294-4.177,5-6.151l-.056.32q-1.809-4.6-3.542-9.008l-.117-.3.3-.1c5.189-1.763,10.154-3.451,14.821-5.038l-.152.415-16.8-28.055c-2.034-3.4-3.77-6.123-5.612-7.24a7.4,7.4,0,0,0-2.248-.911,8.262,8.262,0,0,1-.823-.2,6.2,6.2,0,0,1,.842.11,6.994,6.994,0,0,1,2.322.847,10.193,10.193,0,0,1,2.851,2.764,50.326,50.326,0,0,1,2.955,4.445l17.005,27.95.183.3-.335.116-14.807,5.079.186-.4q1.737,4.4,3.554,9l.07.176-.125.145c-1.691,1.958-3.343,4.018-4.976,6.123a147.231,147.231,0,0,0-9,12.968c-1.3,2.19-2.562,4.355-3.63,6.56-1.112,2.181-2,4.407-2.914,6.576-3.624,8.661-6.889,16.463-9.637,23.032l-6.549,15.507-1.809,4.2c-.2.453-.363.813-.485,1.088a1.977,1.977,0,0,1-.186.362" transform="translate(74.829 37.618)" fill="#263238"/>
        <path id="Path_208" data-name="Path 208" d="M480.186,367.751a3.219,3.219,0,0,1-.352.373l-1.082,1.051a31.8,31.8,0,0,1-4.617,3.5,31.256,31.256,0,0,1-8.455,3.544,34.213,34.213,0,0,1-12.107.77,38.571,38.571,0,0,1-6.932-1.468c-2.359-.751-4.721-1.674-7.217-2.552-4.966-1.8-10.289-3.677-15.893-5.645-11.211-3.926-23.577-8.129-36.6-12.4-26.056-8.56-49.814-15.774-67.032-20.914l-20.407-6.038-5.547-1.648-1.438-.444a2.971,2.971,0,0,1-.484-.172,3.306,3.306,0,0,1,.5.111l1.455.384,5.579,1.534c4.841,1.35,11.837,3.337,20.465,5.846,17.253,5.033,41.038,12.182,67.1,20.744,13.028,4.273,25.392,8.5,36.6,12.453,5.6,1.982,10.919,3.876,15.878,5.7,2.483.885,4.874,1.831,7.186,2.579a38.247,38.247,0,0,0,6.836,1.49,34.08,34.08,0,0,0,11.972-.669,31.527,31.527,0,0,0,8.414-3.411,34.541,34.541,0,0,0,4.658-3.388l1.12-1a3.294,3.294,0,0,1,.4-.327" transform="translate(60.189 67.133)" fill="#263238"/>
        <path id="Path_209" data-name="Path 209" d="M295.636,325.952c-.021.132-1.6-.212-4.144-.112a19.111,19.111,0,0,0-4.394.725,20.267,20.267,0,0,0-4.945,2.255,23.041,23.041,0,0,0-6.878,7.068c-1.35,2.171-1.93,3.667-2.042,3.618a3.908,3.908,0,0,1,.337-1.075,19.109,19.109,0,0,1,1.326-2.773,21.566,21.566,0,0,1,6.919-7.368,19.577,19.577,0,0,1,5.127-2.283,17.784,17.784,0,0,1,4.539-.612,14.923,14.923,0,0,1,3.065.274,3.866,3.866,0,0,1,1.092.282" transform="translate(56.315 67.069)" fill="#263238"/>
        <path id="Path_210" data-name="Path 210" d="M268.619,319.044c-.019-.01.019-.117.115-.317a3,3,0,0,1,.557-.789,5.7,5.7,0,0,1,3.154-1.567,16.053,16.053,0,0,1,5.214.012,29.892,29.892,0,0,1,6.185,1.5,27.118,27.118,0,0,1,9.809,6,20.8,20.8,0,0,1,2.274,2.662,4.968,4.968,0,0,1,.66,1.1c-.1.075-1.094-1.468-3.238-3.441a29.062,29.062,0,0,0-9.716-5.735,31.725,31.725,0,0,0-6.054-1.521,16.709,16.709,0,0,0-5.055-.148,5.8,5.8,0,0,0-3.061,1.305c-.59.54-.789.962-.843.931" transform="translate(55.365 65.166)" fill="#263238"/>
        <path id="Path_211" data-name="Path 211" d="M302.247,258.861a10.8,10.8,0,0,1-.405-1.83c-.18-.572-.443-1.26-.715-2.064-.386-.76-.762-1.658-1.315-2.577a36.463,36.463,0,0,0-4.525-6.02,48.528,48.528,0,0,0-6.934-6.1,41.712,41.712,0,0,0-15.16-6.963,31.418,31.418,0,0,0-5.048-.643,11.064,11.064,0,0,1-1.877-.152,10.6,10.6,0,0,1,1.883-.092,26.473,26.473,0,0,1,5.128.451,39.849,39.849,0,0,1,15.439,6.888,46.526,46.526,0,0,1,6.994,6.219,34.5,34.5,0,0,1,4.486,6.192c.537.95.894,1.88,1.254,2.666.248.835.481,1.546.626,2.138a10.67,10.67,0,0,1,.168,1.885" transform="translate(54.882 47.902)" fill="#263238"/>
        <path id="Path_212" data-name="Path 212" d="M457.288,346.619a2.211,2.211,0,0,1-.03-.429c-.007-.316-.016-.733-.028-1.26-.034-1.11-.077-2.743-.238-4.84a67.348,67.348,0,0,0-3.57-17.38,24.6,24.6,0,0,0-2.435-5.311,10.4,10.4,0,0,0-4.705-3.989c-4.039-1.74-8.9-1.511-13.846-1.79-9.955-.42-20.893-.878-32.376-1.361-26.753-1.165-50.551-2.17-65.5-2.967l.2-.163c-.9,5.494-1.619,9.849-2.116,12.87q-.378,2.2-.587,3.412c-.069.363-.123.651-.165.876a1.267,1.267,0,0,1-.074.3,1.389,1.389,0,0,1,.021-.3c.029-.228.066-.517.112-.884.116-.812.28-1.956.488-3.424.456-3.031,1.113-7.4,1.941-12.905l.025-.169.175.008,65.508,2.723c11.482.5,22.419.978,32.374,1.411,2.488.124,4.911.181,7.279.375a21.2,21.2,0,0,1,6.753,1.515,10.921,10.921,0,0,1,4.9,4.2,24.983,24.983,0,0,1,2.448,5.427,65.365,65.365,0,0,1,3.394,17.512c.124,2.106.128,3.745.121,4.855-.015.529-.025.947-.035,1.264a2.193,2.193,0,0,1-.034.428" transform="translate(68.391 63.256)" fill="#263238"/>
        <path id="Path_213" data-name="Path 213" d="M420.014,274.614c.174,0,.314,9.732.314,21.734s-.14,21.737-.314,21.737-.314-9.731-.314-21.737.14-21.734.314-21.734" transform="translate(86.506 56.602)" fill="#263238"/>
        <path id="Path_214" data-name="Path 214" d="M261.253,233.546s-.075.275-.248.8-.472,1.3-.726,2.352c-.586,2.089-1.328,5.21-2.16,9.275-1.68,8.126-3.749,20.015-6.068,34.9-1.152,7.444-2.38,15.637-3.587,24.493-.614,4.422-.994,9.033-1.315,13.805s-.57,9.7-.754,14.769c-.367,10.14-.583,20.851-.289,32.01.086,2.789.188,5.607.421,8.44.071,1.423.3,2.822.479,4.238a34.224,34.224,0,0,0,1.029,4.163,23.686,23.686,0,0,0,4,7.638,17.231,17.231,0,0,0,6.858,5.283l.039.014.012.006a104.442,104.442,0,0,0,17.883,6.83c6.233,1.867,12.675,3.375,19.217,4.721a264.727,264.727,0,0,0,43.179,5.257,200.887,200.887,0,0,0,20.612-.538c6.717-.463,13.262-1.166,19.6-2.106a206.7,206.7,0,0,0,35.171-8.175,180.4,180.4,0,0,0,28.439-12.2l.031.391L404.052,376.1l-10.505-3.751-2.716-.985c-.609-.226-.917-.355-.917-.355s.321.09.937.3q.948.32,2.737.929l10.543,3.645,39.079,13.628.46.16-.429.232a179.712,179.712,0,0,1-28.481,12.311,206.269,206.269,0,0,1-35.25,8.257c-6.348.952-12.907,1.662-19.637,2.135a201.213,201.213,0,0,1-20.673.555,264.259,264.259,0,0,1-43.286-5.256c-6.558-1.348-13.014-2.86-19.27-4.736a104.826,104.826,0,0,1-18-6.886l.051.022a17.773,17.773,0,0,1-7.144-5.485,24.31,24.31,0,0,1-4.095-7.837,34.451,34.451,0,0,1-1.044-4.247c-.179-1.438-.413-2.868-.482-4.294-.23-2.849-.33-5.674-.412-8.468-.281-11.183-.049-21.9.335-32.049q.289-7.611.784-14.783c.332-4.775.724-9.4,1.352-13.835,1.23-8.856,2.483-17.047,3.662-24.49,2.374-14.882,4.5-26.766,6.253-34.886.866-4.06,1.644-7.178,2.266-9.261.273-1.052.6-1.816.78-2.341s.3-.782.3-.782" transform="translate(50.579 48.137)" fill="#263238"/>
        <path id="Path_215" data-name="Path 215" d="M291.7,330.295c14.845-16.437,14.192-45.665,5.674-66.4-.786,22.468-3.437,42.39-5.468,64.222" transform="translate(60.123 54.391)" fill="#e0e0e0"/>
        <path id="Path_216" data-name="Path 216" d="M297.386,267.381a3.087,3.087,0,0,1,0,.719c-.035.538-.08,1.217-.134,2.053-.146,1.863-.346,4.418-.592,7.537-.529,6.436-1.251,15.187-2.047,24.856-.759,9.674-1.444,18.427-1.948,24.865-.235,3.12-.428,5.675-.568,7.538-.072.833-.131,1.511-.177,2.048a3.125,3.125,0,0,1-.1.712,3.063,3.063,0,0,1-.022-.719c.016-.538.035-1.218.06-2.055.059-1.785.189-4.365.368-7.553.365-6.374.973-15.175,1.766-24.887s1.6-18.492,2.23-24.845c.328-3.113.6-5.662.792-7.52.1-.831.184-1.506.251-2.041a3.047,3.047,0,0,1,.13-.708" transform="translate(60.141 55.111)" fill="#263238"/>
        <path id="Path_217" data-name="Path 217" d="M326.827,242.758c.174,0,.314,5.706.314,12.744s-.14,12.746-.314,12.746-.314-5.706-.314-12.746.14-12.744.314-12.744" transform="translate(67.299 50.036)" fill="#263238"/>
        <path id="Path_218" data-name="Path 218" d="M318.755,281.38a13.047,13.047,0,0,0,2.732,6.759c1.394,1.813,4.231,3.587,6.515,3.457,0,0,5.7.487,8.765-4.4,2.778-4.424,3.464-13.624,1.235-19.065-1.532-3.74-4.974-7.219-9.016-7.315-5.306-.125-8.632,3.71-9.767,7.59" transform="translate(65.7 53.758)" fill="#e0e0e0"/>
        <path id="Path_219" data-name="Path 219" d="M319.222,268.449a8.129,8.129,0,0,1,.982-2.6,10.694,10.694,0,0,1,1.991-2.61,9.271,9.271,0,0,1,3.756-2.206,9.482,9.482,0,0,1,2.523-.4,7.658,7.658,0,0,1,2.761.363,10.87,10.87,0,0,1,4.926,3.533,14.205,14.205,0,0,1,2.9,6.032,25.947,25.947,0,0,1,.538,7.147c-.245,3.776-.987,7.536-3.077,10.408a9.314,9.314,0,0,1-4,3.019,10.886,10.886,0,0,1-4.533.763h.036a6.823,6.823,0,0,1-3.249-.806,10.728,10.728,0,0,1-2.442-1.7,12.142,12.142,0,0,1-2.661-3.966,11.645,11.645,0,0,1-.843-2.928,7.567,7.567,0,0,1-.076-.795c-.006-.181,0-.274.011-.275a16.22,16.22,0,0,0,1.176,3.879,12.243,12.243,0,0,0,2.673,3.779,10.447,10.447,0,0,0,2.37,1.59,6.39,6.39,0,0,0,3.013.713h.036a9.646,9.646,0,0,0,8.017-3.632c1.947-2.69,2.7-6.385,2.926-10.081.259-4.771-.54-9.579-3.255-12.779a10.4,10.4,0,0,0-4.641-3.4,7.16,7.16,0,0,0-2.586-.374,9.046,9.046,0,0,0-6.052,2.382,10.937,10.937,0,0,0-2.018,2.474,22.483,22.483,0,0,0-1.194,2.48" transform="translate(65.697 53.717)" fill="#263238"/>
        <path id="Path_220" data-name="Path 220" d="M316.414,281.578a13.035,13.035,0,0,0,2.731,6.759c1.4,1.814,4.231,3.587,6.517,3.457,0,0,5.7.487,8.765-4.4,2.778-4.424,3.464-13.624,1.234-19.065-1.531-3.74-4.974-7.219-9.016-7.315-5.306-.125-8.631,3.71-9.767,7.59" transform="translate(65.217 53.798)" fill="#e0e0e0"/>
        <path id="Path_221" data-name="Path 221" d="M316.881,268.647a8.129,8.129,0,0,1,.982-2.6,10.694,10.694,0,0,1,1.991-2.61,9.265,9.265,0,0,1,3.756-2.2,9.43,9.43,0,0,1,2.523-.4,7.658,7.658,0,0,1,2.761.363,10.879,10.879,0,0,1,4.927,3.533,14.217,14.217,0,0,1,2.9,6.032,25.946,25.946,0,0,1,.538,7.147c-.245,3.776-.987,7.535-3.077,10.408a9.326,9.326,0,0,1-4,3.02,10.9,10.9,0,0,1-4.533.762h.036a6.822,6.822,0,0,1-3.249-.806,10.728,10.728,0,0,1-2.442-1.7,12.151,12.151,0,0,1-2.661-3.965,11.716,11.716,0,0,1-.843-2.93,7.575,7.575,0,0,1-.076-.795c-.006-.181,0-.274.011-.275a16.294,16.294,0,0,0,1.176,3.879,12.244,12.244,0,0,0,2.673,3.779,10.444,10.444,0,0,0,2.37,1.59,6.393,6.393,0,0,0,3.013.713h.036a9.646,9.646,0,0,0,8.017-3.632c1.947-2.69,2.7-6.385,2.926-10.081.259-4.771-.54-9.579-3.255-12.779a10.4,10.4,0,0,0-4.641-3.4,7.153,7.153,0,0,0-2.586-.374,9.046,9.046,0,0,0-6.052,2.382,10.936,10.936,0,0,0-2.018,2.474,22.488,22.488,0,0,0-1.194,2.48" transform="translate(65.215 53.758)" fill="#263238"/>
        <path id="Path_222" data-name="Path 222" d="M321.892,266.2c-2.637-.525-5.361,1.286-6.477,3.733a10.705,10.705,0,0,0,.014,7.87,9.752,9.752,0,0,0,2.008,3.546,5.3,5.3,0,0,0,3.6,1.75,6.264,6.264,0,0,0,4.979-2.943,11.23,11.23,0,0,0,1.7-9.252c-.55-2.091-2.089-4.235-4.25-4.291" transform="translate(64.858 54.849)" fill="#e0e0e0"/>
        <path id="Path_223" data-name="Path 223" d="M323.513,266.626a1.164,1.164,0,0,1,.48-.013,3.357,3.357,0,0,1,1.309.444,6.421,6.421,0,0,1,2.758,4.151,11.4,11.4,0,0,1-.744,7.383,9.608,9.608,0,0,1-2.7,3.548,5.225,5.225,0,0,1-4.654,1.114,6.481,6.481,0,0,1-3.718-3.038,13.585,13.585,0,0,1-1.549-4.167,9.279,9.279,0,0,1,1.2-7.286,6.477,6.477,0,0,1,4.208-2.675,4.607,4.607,0,0,1,1.376,0,1.378,1.378,0,0,1,.461.13,9,9,0,0,0-1.793.115,6.4,6.4,0,0,0-3.889,2.691,8.931,8.931,0,0,0-1,6.912,13.206,13.206,0,0,0,1.509,3.965,5.906,5.906,0,0,0,3.359,2.752,4.626,4.626,0,0,0,4.108-.994,9.127,9.127,0,0,0,2.558-3.31,11.142,11.142,0,0,0,.836-7.039,6.344,6.344,0,0,0-2.454-4.042,5.071,5.071,0,0,0-1.66-.638" transform="translate(64.811 54.833)" fill="#263238"/>
        <path id="Path_224" data-name="Path 224" d="M326.785,283.144c-.1.025-.228-.378-.642-.862a4.467,4.467,0,0,0-2.059-1.321,11.307,11.307,0,0,0-2.532-.393c-.673-.048-1.1-.1-1.1-.193s.412-.186,1.1-.251a7.152,7.152,0,0,1,2.725.236,4.018,4.018,0,0,1,2.231,1.663c.377.637.352,1.113.28,1.121" transform="translate(66.049 57.73)" fill="#263238"/>
        <path id="Path_225" data-name="Path 225" d="M327.695,264.824c.055.053-.186.431-.748.874a6,6,0,0,1-5.312.96c-.681-.219-1.04-.488-1.006-.558.064-.175,1.668.475,3.664.092,2-.339,3.279-1.509,3.4-1.368" transform="translate(66.086 54.581)" fill="#263238"/>
        <path id="Path_226" data-name="Path 226" d="M395.2,193.193c.01-.019.146.031.4.146a11.456,11.456,0,0,1,1.073.555,21.861,21.861,0,0,1,3.614,2.583,25.934,25.934,0,0,1,7.764,12.284,78.492,78.492,0,0,1,2.956,14.3c.209,1.857.323,3.364.392,4.406a8,8,0,0,1,.031,1.625,8.077,8.077,0,0,1-.275-1.6c-.156-1.155-.352-2.622-.589-4.375a92.319,92.319,0,0,0-3.118-14.178,26.718,26.718,0,0,0-7.459-12.131,41.145,41.145,0,0,0-4.787-3.615" transform="translate(81.456 39.819)" fill="#263238"/>
        <path id="Path_227" data-name="Path 227" d="M382.823,303.856c3.5-.134,6.289-3.62,9.782-3.433a4.86,4.86,0,1,1-.819,9.682c-3.67-.426-5.817-4.728-9.419-5.554" transform="translate(78.811 61.92)" fill="#263238"/>
        <path id="Path_228" data-name="Path 228" d="M413.975,322.92a20.792,20.792,0,0,1-3.273-.271l.191-1.192c4.322.694,7.948-.018,10.788-2.1,3.57-2.623,5.87-7.316,6.839-13.95l.037-.252c.394-2.628.94-54.216.941-64.01,0-15.3-13.428-17.386-14-17.467-.544-.1-12.75-2.14-19.227,14.57-6.781,17.5-17.621,51.218-18.339,55.17-.088.485-.221,1.083-.375,1.779-1.128,5.06-3.472,15.588,3.55,21.653,7.828,6.759,14,4.143,14.26,4.031l.495,1.1c-.288.127-7.1,3.073-15.543-4.219-7.568-6.535-5.116-17.539-3.939-22.828.151-.677.281-1.26.367-1.732.722-3.983,11.6-37.845,18.4-55.39,6.849-17.682,20.409-15.353,20.545-15.325s15.013,2.3,15.01,18.657c0,8.069-.536,61.4-.955,64.188l-.036.248c-1.016,6.964-3.478,11.926-7.319,14.747a13.862,13.862,0,0,1-8.417,2.6" transform="translate(77.301 45.833)" fill="#263238"/>
        <path id="Path_229" data-name="Path 229" d="M426.775,248.848a22.508,22.508,0,0,0-2.511-6.012,20.447,20.447,0,0,0-12.513-8.822A22.678,22.678,0,0,0,396.482,236a26.924,26.924,0,0,0-5.308,3.8c-.016-.014.078-.141.275-.37a10.52,10.52,0,0,1,.9-.961,18.2,18.2,0,0,1,3.921-2.862,22.411,22.411,0,0,1,15.622-2.211,20.59,20.59,0,0,1,7.957,3.814,20.034,20.034,0,0,1,4.792,5.387,15.976,15.976,0,0,1,1.86,4.488,9.285,9.285,0,0,1,.242,1.3,1.261,1.261,0,0,1,.03.46" transform="translate(80.626 47.995)" fill="#263238"/>
        <path id="Path_230" data-name="Path 230" d="M450.9,329.218a41.515,41.515,0,0,0-1.655-5.145,22.473,22.473,0,0,0-8.182-9.817,17.672,17.672,0,0,0-6.638-2.4,58.508,58.508,0,0,0-5.841-.605l-3.972-.275a6.527,6.527,0,0,1-1.452-.2,6.7,6.7,0,0,1,1.463-.046l3.983.076a49.892,49.892,0,0,1,5.914.479,17.665,17.665,0,0,1,6.883,2.436,21.866,21.866,0,0,1,8.253,10.176,19.366,19.366,0,0,1,1.1,3.854,5.549,5.549,0,0,1,.144,1.462" transform="translate(87.218 64.046)" fill="#263238"/>
        <path id="Path_231" data-name="Path 231" d="M395.715,314.953s11.859-17.965,14.89-20.318,28.918-14.042,31.951-12.162,1.165,5.957,1.165,5.957,10.96-3.839,12.127-2.327a5.421,5.421,0,0,1,0,6.178s6.062-.932,6.062.934-.7,4.2-3.5,6.3-20.994,14.214-22.454,17.56l-5.9-.358Z" transform="translate(81.562 58.18)" fill="#b78876"/>
        <path id="Path_232" data-name="Path 232" d="M424.015,308.093a4.287,4.287,0,0,1,.542-1.131,21.086,21.086,0,0,1,1.949-2.809,32.654,32.654,0,0,1,8.6-7.241,64.934,64.934,0,0,1,10.175-4.781c1.342-.51,2.438-.9,3.2-1.153a4.843,4.843,0,0,1,1.206-.335,4.806,4.806,0,0,1-1.117.563l-3.123,1.336a82.394,82.394,0,0,0-10.017,4.908,36.02,36.02,0,0,0-8.586,6.991c-1.879,2.142-2.732,3.712-2.83,3.653" transform="translate(87.394 59.904)" fill="#aa6550"/>
        <path id="Path_233" data-name="Path 233" d="M411.541,308.513a6.34,6.34,0,0,1,.575-1.321c.408-.83,1.01-2.026,1.824-3.471a33.142,33.142,0,0,1,3.27-4.84,15.254,15.254,0,0,1,2.485-2.462c1-.675,2.054-1.309,3.142-1.954a86.63,86.63,0,0,1,11.58-5.776,33.975,33.975,0,0,1,3.726-1.247,6.322,6.322,0,0,1,1.421-.253c.025.106-1.966.568-4.978,1.912a110.084,110.084,0,0,0-11.43,5.905c-1.079.64-2.137,1.272-3.112,1.921a15.4,15.4,0,0,0-2.392,2.328,36.611,36.611,0,0,0-3.329,4.692c-.788,1.332-1.455,2.456-1.991,3.363a6.339,6.339,0,0,1-.79,1.2" transform="translate(84.823 59.191)" fill="#aa6550"/>
        <path id="Path_234" data-name="Path 234" d="M812.824,406.81c0,.174-181.971.314-406.393.314-224.5,0-406.431-.14-406.431-.314s181.933-.314,406.431-.314c224.422,0,406.393.14,406.393.314" transform="translate(0 83.784)" fill="#263238"/>
      </g>
    </g>
  </g>
</svg>
