<svg id="Group_29" data-name="Group 29" xmlns="http://www.w3.org/2000/svg" width="500" height="442.54" viewBox="0 0 500 442.54">
  <path id="Path_1" data-name="Path 1" d="M261.47,375.18l-8.55-131.3.29-.02,9.71,131.22c-.48.04-.97.07-1.45.1Zm-26.52-.09-1.26-.1,10.49-131.16.47.04-9.71,131.22Zm54.68-3.93L260.92,242.75l.62-.14L290.7,370.92l-1.08.24Zm-82.45-.21-1.24-.29,29.9-128.14.46.11Zm109.22-7.86-47.26-122.8.34-.13,48.2,122.43C317.26,362.76,316.83,362.92,316.4,363.09Zm-136.12-.41-1.18-.47,48.73-122.22.44.18-48,122.51ZM341.91,351,276.63,236.76l.44-.25,65.91,113.88Zm-187.03-.55c-.39-.23-.78-.45-1.17-.68l66.7-113.42.34.2L154.88,350.46Zm210.18-15.03L283.77,231.96l.25-.2,82.15,102.78C365.8,334.83,365.43,335.13,365.06,335.42Zm-233.32-.75c-.41-.33-.82-.65-1.22-.98l83.05-102.06.14.11L131.75,334.68Zm254.09-18.26-95.9-90.1.3-.33,96.48,89.47-.88.95Zm-274.7-.83-.83-.89,96.85-89.07.36.38-96.38,89.58Zm292.26-20.85L295.36,219.61l.16-.23,108.7,74.15c-.27.4-.55.8-.83,1.2ZM93.63,293.69l-.78-1.14L202,219.07l.2.29L93.63,293.69ZM417.75,270.3,299.52,212.54l.27-.55,118.45,57.29-.5,1.02Zm-338.22-.92c-.2-.42-.4-.84-.6-1.25l118.91-56.34.15.31L79.53,269.38Zm348.62-25.04L302.72,204.59l.1-.31,125.76,38.7c-.14.45-.28.91-.43,1.36ZM69.2,243.15c-.13-.43-.26-.85-.39-1.28l126-37.92.12.39L69.2,243.14Zm365.42-26.38L304.6,196.59l.07-.48,130.14,19.42-.19,1.24ZM62.95,215.75c-.07-.45-.13-.89-.2-1.34L193,195.75l.06.39Zm373.93-26.69-131.57-1.17v-.54H436.89v1.71Zm-244.45-1.33H60.85v-1.21l131.58.68v.53Zm112.28-8.42-.04-.28,130.08-19.8c.07.48.14.96.21,1.45L304.71,179.32Zm-111.65-.2L62.89,159.9c.07-.46.14-.91.21-1.36l130.02,20.21-.05.36Zm109.9-7.75-.18-.6L428.49,131.9l.33,1.06-125.85,38.4Zm-108.07-.34L69.11,132.38l.39-1.24L195.02,170.6l-.13.43Zm105.05-7.52-.23-.47,118.42-57.36.53,1.09Zm-102.01-.25L79.4,106.12l.53-1.1,118.23,57.76-.23.47Zm97.87-7.02-.34-.5L404.03,81.4l.64.94L295.79,156.22Zm-93.62-.34L93.42,81.83c.25-.37.51-.75.77-1.12L202.4,155.57Zm88.18-6.55-.17-.18,96.28-89.68c.34.37.68.73,1.02,1.1l-97.13,88.76Zm-82.9-.08L110.89,59.85c.31-.33.61-.66.92-.99l95.91,90.08-.26.28Zm76.77-5.64-.29-.23L365.9,40.45c.36.28.71.57,1.07.86Zm-70.55-.14L131.41,40.79c.37-.3.74-.59,1.11-.88l81.41,103.37Zm63.66-4.62-.38-.22L342.68,24.65l1.13.66L277.34,138.87Zm-56.7-.14L154.58,24.89c.39-.23.78-.45,1.17-.67L220.97,138.5l-.33.19Zm49.08-3.58-.34-.14L317.31,12.46c.43.17.85.34,1.28.51Zm-41.5-.08L179.85,12.65c.43-.17.86-.34,1.3-.51l47.39,122.75-.32.13Zm33.55-2.41-.35-.08L290.31,4.16c.45.1.9.2,1.35.31l-29.9,128.14Zm-25.61-.04L206.8,4.3c.46-.1.91-.21,1.37-.31l28.3,128.5-.33.07Zm17.26-1.25-.37-.03L262.55.05c.46.03.91.07,1.37.1L253.41,131.31Zm-8.92-.01L234.58.1c.45-.03.91-.07,1.37-.1l8.92,131.28-.37.03Z" fill="#e6e6e6"/>
  <g id="Group_1" data-name="Group 1">
    <path id="Path_2" data-name="Path 2" d="M94.27,347.67a6.846,6.846,0,0,1-4.61-1.7,5.956,5.956,0,0,1-1.97-4.76,6.091,6.091,0,0,1,1.9-4.56,6.467,6.467,0,0,1,4.67-1.85,6.235,6.235,0,0,1,4.59,1.85,6.169,6.169,0,0,1,1.86,4.56,5.967,5.967,0,0,1-1.95,4.73,6.585,6.585,0,0,1-4.5,1.72Z" fill="#ebebeb"/>
    <path id="Path_3" data-name="Path 3" d="M74,297.45a15.131,15.131,0,0,1,2.57-8.07,19.671,19.671,0,0,1,7.5-6.77,23.682,23.682,0,0,1,11.5-2.68,24.77,24.77,0,0,1,10.79,2.24,17.515,17.515,0,0,1,7.23,6.1,14.906,14.906,0,0,1,2.55,8.38,12.907,12.907,0,0,1-1.45,6.25,18.986,18.986,0,0,1-3.46,4.63q-2,1.95-7.18,6.56a31.135,31.135,0,0,0-2.3,2.28,9.811,9.811,0,0,0-1.29,1.8,8.786,8.786,0,0,0-.65,1.63c-.15.55-.39,1.5-.7,2.87-.53,2.91-2.21,4.36-5.01,4.36a5.158,5.158,0,0,1-3.69-1.43,5.567,5.567,0,0,1-1.5-4.23,14.848,14.848,0,0,1,4.01-10.63q1.815-1.95,4.89-4.63,2.7-2.355,3.9-3.54a11.9,11.9,0,0,0,2.02-2.66,6.4,6.4,0,0,0,.82-3.19,7.4,7.4,0,0,0-2.51-5.66,9.174,9.174,0,0,0-6.47-2.31q-4.635,0-6.83,2.33a18.554,18.554,0,0,0-3.71,6.85q-1.44,4.74-5.44,4.74a5.337,5.337,0,0,1-3.98-1.66,5.05,5.05,0,0,1-1.62-3.58Z" fill="#ebebeb"/>
  </g>
  <g id="Group_2" data-name="Group 2">
    <path id="Path_4" data-name="Path 4" d="M406.32,270.86a6.854,6.854,0,0,1-4.47-2.05,5.9,5.9,0,0,1-1.6-4.89,6.112,6.112,0,0,1,2.25-4.4,6.466,6.466,0,0,1,4.8-1.49,6.262,6.262,0,0,1,4.43,2.19,6.182,6.182,0,0,1,1.51,4.69,5.978,5.978,0,0,1-2.3,4.57,6.562,6.562,0,0,1-4.62,1.37Z" fill="#f0f0f0"/>
    <path id="Path_5" data-name="Path 5" d="M389.93,219.24a15.055,15.055,0,0,1,3.18-7.85,19.733,19.733,0,0,1,7.99-6.18,23.79,23.79,0,0,1,11.68-1.8,24.691,24.691,0,0,1,10.59,3.06,17.469,17.469,0,0,1,6.74,6.63,14.873,14.873,0,0,1,1.9,8.55,12.933,12.933,0,0,1-1.92,6.12,19.2,19.2,0,0,1-3.8,4.36c-1.43,1.2-3.98,3.19-7.66,6a28.149,28.149,0,0,0-2.46,2.1,9.437,9.437,0,0,0-1.42,1.7,9.256,9.256,0,0,0-.78,1.58c-.2.53-.5,1.47-.91,2.81q-1.125,4.29-5.33,3.97a5.142,5.142,0,0,1-3.57-1.7,5.6,5.6,0,0,1-1.17-4.34,14.843,14.843,0,0,1,4.8-10.29c1.3-1.2,3.05-2.62,5.23-4.25q2.865-2.13,4.16-3.24a11.992,11.992,0,0,0,2.22-2.5,6.426,6.426,0,0,0,1.06-3.11,7.382,7.382,0,0,0-2.07-5.83,9.172,9.172,0,0,0-6.27-2.79c-3.08-.24-5.41.37-6.98,1.8a18.67,18.67,0,0,0-4.22,6.55c-1.19,3.08-3.12,4.51-5.78,4.31a5.345,5.345,0,0,1-3.84-1.95,5.114,5.114,0,0,1-1.35-3.7Z" fill="#f0f0f0"/>
  </g>
  <g id="Group_3" data-name="Group 3">
    <path id="Path_6" data-name="Path 6" d="M89.79,105.46a6.016,6.016,0,0,1-4-1.72,5.247,5.247,0,0,1-1.52-4.3,5.4,5.4,0,0,1,1.9-3.95,5.709,5.709,0,0,1,4.22-1.42,5.624,5.624,0,0,1,5.42,5.98,5.294,5.294,0,0,1-1.94,4.1,5.819,5.819,0,0,1-4.06,1.32Z" fill="#e6e6e6"/>
    <path id="Path_7" data-name="Path 7" d="M74.16,60.04a13.428,13.428,0,0,1,2.65-7.03,17.481,17.481,0,0,1,6.96-5.65,21.056,21.056,0,0,1,10.31-1.85,22,22,0,0,1,9.45,2.48,15.528,15.528,0,0,1,6.12,5.74,13.19,13.19,0,0,1,1.87,7.54,11.318,11.318,0,0,1-1.58,5.46,16.951,16.951,0,0,1-3.27,3.94q-1.86,1.635-6.67,5.48a23.836,23.836,0,0,0-2.14,1.92,7.914,7.914,0,0,0-1.22,1.54,7.821,7.821,0,0,0-.65,1.42c-.16.48-.41,1.31-.75,2.51-.61,2.55-2.15,3.76-4.64,3.63a4.566,4.566,0,0,1-3.2-1.43,4.938,4.938,0,0,1-1.13-3.82,13.175,13.175,0,0,1,4.03-9.23,57.731,57.731,0,0,1,4.54-3.88q2.49-1.95,3.62-2.96a10.56,10.56,0,0,0,1.91-2.26,5.654,5.654,0,0,0,.87-2.78,6.571,6.571,0,0,0-1.96-5.13,8.12,8.12,0,0,0-5.62-2.34q-4.11-.21-6.15,1.75a16.438,16.438,0,0,0-3.6,5.9c-.99,2.75-2.67,4.07-5.03,3.94a4.744,4.744,0,0,1-3.45-1.65,4.467,4.467,0,0,1-1.27-3.25Z" fill="#e6e6e6"/>
  </g>
  <g id="Group_4" data-name="Group 4">
    <path id="Path_8" data-name="Path 8" d="M132.64,255.85a3.843,3.843,0,0,1-2.52-1.15,3.373,3.373,0,0,1-.91-2.76,3.455,3.455,0,0,1,1.27-2.49,3.639,3.639,0,0,1,2.71-.84,3.519,3.519,0,0,1,2.5,1.24,3.466,3.466,0,0,1,.85,2.65,3.393,3.393,0,0,1-1.3,2.58,3.745,3.745,0,0,1-2.61.78Z" fill="#ebebeb"/>
    <path id="Path_9" data-name="Path 9" d="M123.36,226.71a8.505,8.505,0,0,1,1.79-4.43,11.067,11.067,0,0,1,4.51-3.49,13.306,13.306,0,0,1,6.59-1.02,13.959,13.959,0,0,1,5.98,1.72,9.861,9.861,0,0,1,3.81,3.74,8.387,8.387,0,0,1,1.08,4.83,7.321,7.321,0,0,1-1.08,3.46,10.707,10.707,0,0,1-2.14,2.46c-.81.68-2.25,1.8-4.32,3.39a16.49,16.49,0,0,0-1.39,1.19,5.615,5.615,0,0,0-.8.96,4.9,4.9,0,0,0-.44.89q-.165.45-.51,1.59a2.645,2.645,0,0,1-3.01,2.24,2.917,2.917,0,0,1-2.02-.96,3.156,3.156,0,0,1-.66-2.45,8.413,8.413,0,0,1,2.71-5.82c.74-.68,1.72-1.48,2.95-2.4q1.62-1.2,2.34-1.83a6.984,6.984,0,0,0,1.25-1.41,3.632,3.632,0,0,0,.6-1.76,4.194,4.194,0,0,0-1.17-3.29,5.169,5.169,0,0,0-3.54-1.57,5.074,5.074,0,0,0-3.94,1.02,10.51,10.51,0,0,0-2.38,3.7q-1,2.61-3.26,2.44a3.011,3.011,0,0,1-2.17-1.1,2.839,2.839,0,0,1-.76-2.09Z" fill="#ebebeb"/>
  </g>
  <g id="Group_5" data-name="Group 5">
    <path id="Path_10" data-name="Path 10" d="M333.72,270.45a3.843,3.843,0,0,1-2.52-1.15,3.373,3.373,0,0,1-.91-2.76,3.455,3.455,0,0,1,1.27-2.49,3.639,3.639,0,0,1,2.71-.84,3.519,3.519,0,0,1,2.5,1.24,3.466,3.466,0,0,1,.85,2.65,3.393,3.393,0,0,1-1.3,2.58,3.745,3.745,0,0,1-2.61.78Z" fill="#ebebeb"/>
    <path id="Path_11" data-name="Path 11" d="M324.44,241.32a8.5,8.5,0,0,1,1.79-4.43,11.067,11.067,0,0,1,4.51-3.49,13.306,13.306,0,0,1,6.59-1.02,13.959,13.959,0,0,1,5.98,1.72,9.861,9.861,0,0,1,3.81,3.74,8.387,8.387,0,0,1,1.08,4.83,7.321,7.321,0,0,1-1.08,3.46,10.707,10.707,0,0,1-2.14,2.46c-.81.68-2.25,1.8-4.32,3.39a16.491,16.491,0,0,0-1.39,1.19,5.614,5.614,0,0,0-.8.96,4.9,4.9,0,0,0-.44.89q-.165.45-.51,1.59a2.645,2.645,0,0,1-3.01,2.24,2.917,2.917,0,0,1-2.02-.96,3.157,3.157,0,0,1-.66-2.45,8.706,8.706,0,0,1,.88-3.39,8.539,8.539,0,0,1,1.83-2.43c.74-.68,1.72-1.48,2.95-2.4q1.62-1.2,2.34-1.83a6.984,6.984,0,0,0,1.25-1.41,3.632,3.632,0,0,0,.6-1.76,4.194,4.194,0,0,0-1.17-3.29,5.169,5.169,0,0,0-3.54-1.57,5.074,5.074,0,0,0-3.94,1.02,10.51,10.51,0,0,0-2.38,3.7q-1.005,2.61-3.26,2.44a3.011,3.011,0,0,1-2.17-1.1,2.839,2.839,0,0,1-.76-2.09Z" fill="#ebebeb"/>
  </g>
  <g id="Group_6" data-name="Group 6">
    <path id="Path_12" data-name="Path 12" d="M406.21,112.06a3.856,3.856,0,0,1-2.6-.96,3.357,3.357,0,0,1-1.11-2.69,3.486,3.486,0,0,1,1.07-2.58,3.644,3.644,0,0,1,2.64-1.05,3.586,3.586,0,0,1,3.64,3.63,3.382,3.382,0,0,1-1.1,2.67,3.752,3.752,0,0,1-2.54.97Z" fill="#ebebeb"/>
    <path id="Path_13" data-name="Path 13" d="M394.77,83.7a8.515,8.515,0,0,1,1.45-4.56,11.14,11.14,0,0,1,4.24-3.82,13.393,13.393,0,0,1,6.5-1.51,13.842,13.842,0,0,1,6.09,1.27,9.842,9.842,0,0,1,4.08,3.44,8.407,8.407,0,0,1,1.44,4.73,7.275,7.275,0,0,1-.82,3.53,11.109,11.109,0,0,1-1.95,2.62c-.75.73-2.11,1.97-4.06,3.7a17.664,17.664,0,0,0-1.3,1.29,5.057,5.057,0,0,0-.73,1.02,5.362,5.362,0,0,0-.37.92q-.135.465-.39,1.62a2.645,2.645,0,0,1-2.83,2.46,2.925,2.925,0,0,1-2.08-.8,3.161,3.161,0,0,1-.84-2.39,8.4,8.4,0,0,1,2.26-6,37.485,37.485,0,0,1,2.76-2.62c1.02-.88,1.75-1.55,2.2-2a6.913,6.913,0,0,0,1.14-1.5,3.6,3.6,0,0,0,.46-1.8,4.172,4.172,0,0,0-1.42-3.2,5.163,5.163,0,0,0-3.65-1.3,5.079,5.079,0,0,0-3.85,1.31,10.583,10.583,0,0,0-2.09,3.87c-.54,1.78-1.56,2.67-3.07,2.67a3,3,0,0,1-2.25-.94,2.857,2.857,0,0,1-.92-2.02Z" fill="#ebebeb"/>
  </g>
  <g id="Group_9" data-name="Group 9">
    <g id="Group_8" data-name="Group 8">
      <g id="Group_7" data-name="Group 7">
        <path id="Path_14" data-name="Path 14" d="M443.92,298.43H263.17a5.868,5.868,0,0,1-5.86-5.86V29.3a5.868,5.868,0,0,1,5.86-5.86H443.92a5.868,5.868,0,0,1,5.86,5.86V292.57a5.868,5.868,0,0,1-5.86,5.86ZM263.17,23.69a5.621,5.621,0,0,0-5.61,5.61V292.57a5.621,5.621,0,0,0,5.61,5.61H443.92a5.621,5.621,0,0,0,5.61-5.61V29.3a5.621,5.621,0,0,0-5.61-5.61H263.17Z" fill="#e0e0e0"/>
        <path id="Path_15" data-name="Path 15" d="M235.49,298.43H54.75a5.868,5.868,0,0,1-5.86-5.86V29.3a5.868,5.868,0,0,1,5.86-5.86H235.5a5.868,5.868,0,0,1,5.86,5.86V292.57a5.868,5.868,0,0,1-5.86,5.86ZM54.75,23.69a5.621,5.621,0,0,0-5.61,5.61V292.57a5.621,5.621,0,0,0,5.61,5.61H235.5a5.621,5.621,0,0,0,5.61-5.61V29.3a5.621,5.621,0,0,0-5.61-5.61H54.75Z" fill="#e0e0e0"/>
      </g>
      <rect id="Rectangle_1" data-name="Rectangle 1" width="500" height="0.25" transform="translate(0 359.5)" fill="#e0e0e0"/>
    </g>
    <rect id="Rectangle_2" data-name="Rectangle 2" width="16.06" height="0.25" transform="translate(51.67 373.77)" fill="#e0e0e0"/>
    <rect id="Rectangle_3" data-name="Rectangle 3" width="53.53" height="0.25" transform="translate(170.35 371.06)" fill="#e0e0e0"/>
    <rect id="Rectangle_4" data-name="Rectangle 4" width="36.25" height="0.25" transform="translate(68.73 383.06)" fill="#e0e0e0"/>
    <rect id="Rectangle_5" data-name="Rectangle 5" width="43.19" height="0.25" transform="translate(378.35 370.93)" fill="#e0e0e0"/>
    <rect id="Rectangle_6" data-name="Rectangle 6" width="6.33" height="0.25" transform="translate(430.45 370.93)" fill="#e0e0e0"/>
    <rect id="Rectangle_7" data-name="Rectangle 7" width="53.89" height="0.25" transform="translate(316.21 377.16)" fill="#e0e0e0"/>
  </g>
  <path id="Path_16" data-name="Path 16" d="M461.48,436.3c0,3.45-95.19,6.24-212.62,6.24S36.24,439.75,36.24,436.3s95.19-6.24,212.62-6.24S461.48,432.85,461.48,436.3Z" fill="#f5f5f5"/>
  <g id="Group_15" data-name="Group 15">
    <path id="Path_17" data-name="Path 17" d="M130.49,138.75q0-23.595,14.52-47.81t42.38-40.11q27.855-15.885,65-15.89,34.515,0,60.95,13.29t40.83,36.13a91.414,91.414,0,0,1,14.4,49.67q0,21.105-8.21,37a113.066,113.066,0,0,1-19.52,27.44q-11.31,11.55-40.59,38.87a171.164,171.164,0,0,0-12.98,13.53,55.272,55.272,0,0,0-7.26,10.68,53.368,53.368,0,0,0-3.69,9.69q-1.3,4.845-3.93,17.01-4.53,25.83-28.33,25.83a28.309,28.309,0,0,1-20.83-8.44q-8.445-8.445-8.45-25.08,0-20.865,6.19-36.13a92.3,92.3,0,0,1,16.43-26.82,381.273,381.273,0,0,1,27.62-27.44q15.24-13.905,22.02-20.99a71.23,71.23,0,0,0,11.43-15.77,39.346,39.346,0,0,0,4.64-18.87,44.748,44.748,0,0,0-14.17-33.53q-14.16-13.65-36.55-13.66-26.19,0-38.57,13.78t-20.95,40.6q-8.1,28.065-30.71,28.06a29.594,29.594,0,0,1-22.5-9.81q-9.165-9.81-9.17-21.23Z" fill="#55bbeb"/>
    <g id="Group_14" data-name="Group 14">
      <path id="Path_18" data-name="Path 18" d="M199.12,95.54a.412.412,0,0,1,.09-.02.97.97,0,0,0-.17.01.22.22,0,0,1,.08.01Z" fill="none"/>
      <path id="Path_19" data-name="Path 19" d="M198.08,75.19a.281.281,0,0,1-.08-.01c-.03,0-.06.02-.09.02a.915.915,0,0,0,.17-.01Z" fill="none"/>
      <g id="Group_10" data-name="Group 10" opacity="0.2">
        <path id="Path_20" data-name="Path 20" d="M297.21,210.9c-4.21-23.53-8.57-33-14.21-37.66q-6.66,6.57-18,16.92-14.625,13.365-24.18,23.66c2.42,30.87,5.86,74.71,5.9,75.08l2.08,24.9q13.26-1.635,19.38-12.83c-.75-9.26-2.45-12.87-2.45-12.87s2.15-31.54,4.19-56.11c2.89,9.78,5.66,20.73,9.38,31.07.23-.5.45-1,.7-1.5a55.271,55.271,0,0,1,7.26-10.68,167.672,167.672,0,0,1,12.98-13.53c.53-.49,1.03-.96,1.55-1.45-1.96-9.96-3.67-19.36-4.58-24.99Z"/>
      </g>
      <g id="Group_11" data-name="Group 11" opacity="0.2">
        <path id="Path_21" data-name="Path 21" d="M308.71,177.53,299.4,151.5c-.3.64-.61,1.27-.94,1.9a71.659,71.659,0,0,1-6.27,9.75l9.16,17.22a6.52,6.52,0,0,0-1.12,3.78c.19,2.44-.31,4.44-.04,6.25s1.59-.27,2.07-1.52,1.03-2.66,1.91-2.15,5.26,8.09,6.56,8.66.98-.88.98-.88,1.11,1.81,1.95,1.57c.22-.06.62-.56.24-1.47-.85-2.04-2.85-6.22-2.85-6.22.11.24,2.95,5.23,3.48,5.92.68.9,1.47.98,1.98.57.73-.59-2.59-6.89-2.54-7.25,0,0,1.79,3.69,2.99,3.75s.21-2.32-1.07-4.26c-1.17-1.77-3.01-5.56-4.38-7.25a7.447,7.447,0,0,0-2.78-2.33Z"/>
      </g>
      <g id="Group_12" data-name="Group 12" opacity="0.2">
        <path id="Path_22" data-name="Path 22" d="M202.34,113.09c.06-.03.11-.06.17-.09,1.35-.73.2-6.29.2-6.29s1.39-1.5.86-2.9c-.28-.74-.62-.86-.62-.86a2.666,2.666,0,0,0-.37-3.91l-.18-.13c.46-.61-.04-2.54-1.24-1.99a13.822,13.822,0,0,0-1.51.96V95.57c.13,0,.25,0,.34-.01,4.15-.25,7.23-5.04,6.88-10.7s-3.99-10.03-8.14-9.78a6.258,6.258,0,0,0-.74.1.2.2,0,0,1,.08.01.915.915,0,0,0-.17.01c.03,0,.06-.02.09-.02a4.572,4.572,0,0,0-.74,0c-4.15.25-7.23,5.04-6.88,10.7.32,5.21,3.44,9.33,7.17,9.74v3.82c-2.26,1.74-4.69,3.84-4.62,4.43.13,1.02,2.94,10.29,2.94,10.29h.07c.24,2.35.87,8.03,1.82,14.1a122.5,122.5,0,0,1,5.72-12.12l-1.13-3.05Zm-3.22-17.55a.322.322,0,0,1-.08-.01.97.97,0,0,0,.17-.01c-.03,0-.06.02-.09.02Z"/>
      </g>
      <g id="Group_13" data-name="Group 13" opacity="0.2">
        <path id="Path_23" data-name="Path 23" d="M242.34,63.99h-.07a10.37,10.37,0,0,0-1.86-.08c-2.3-.16-4.28-.36-9.77,1.66a16.253,16.253,0,0,0-10.09,11.82c-.45,5.49.57,9.65.89,15.13l.43-.59c0,.55.01,1.09.04,1.62.02.3.06.58.09.87q11.67-7.05,30.39-7.06c.68,0,1.34.02,2.01.04a3,3,0,0,0-.49-.52c.41-1.45.74-2.95,1.04-4.36a16.325,16.325,0,0,0,.24-4.18,7.926,7.926,0,0,1,4.6,3.8,59.43,59.43,0,0,0,3,6.03,48.652,48.652,0,0,1,21.16,8.66,17.676,17.676,0,0,0,7.42-3.06c3.25-2.43,5.45-7.14,4.08-11.22a5.719,5.719,0,0,1-4.74,1.56A6.749,6.749,0,0,0,292.22,78c-5.62,2.23-12.33,5.01-17.71,2.15-2.47-1.31-4.06-4.14-6.03-6.25s-4.12-4.18-6.76-5.02c-2.15-.68-6.35.64-8.6,2.56a16.081,16.081,0,0,0-1.22-1.86c-2.08-2.11-5.38-5.02-9.56-5.59Z"/>
      </g>
    </g>
  </g>
  <g id="Group_17" data-name="Group 17">
    <path id="Path_24" data-name="Path 24" d="M244.99,436.3a37.554,37.554,0,0,1-26.03-10.07q-11.13-10.08-11.12-28.18,0-16.065,10.76-27.03A35.548,35.548,0,0,1,245,360.05a34.231,34.231,0,0,1,25.91,10.97q10.515,10.965,10.51,27.03,0,17.85-11,28.05A36.265,36.265,0,0,1,245,436.3Z" fill="#55bbeb"/>
    <g id="Group_16" data-name="Group 16" opacity="0.2">
      <path id="Path_25" data-name="Path 25" d="M246.99,369.7a5.748,5.748,0,0,0-3.84-1.25,32.833,32.833,0,0,0-11.09,1.39,24.388,24.388,0,0,0-14.94,28.69c.65,2.6,2.37,5.52,5.04,5.41,1.77-.08,3.14-1.5,4.32-2.82q4.215-4.725,8.43-9.44c4.21-4.71,8.44-9.47,11.62-14.93,1.27-2.2,2.27-5.25.47-7.04Z" fill="#fff"/>
    </g>
  </g>
  <g id="Group_19" data-name="Group 19">
    <g id="Group_18" data-name="Group 18">
      <path id="Path_26" data-name="Path 26" d="M301.68,27.28a22.656,22.656,0,0,0-32.53,30.46l-1.83,6.56,7.15-.77c.1.08.19.16.29.24a22.669,22.669,0,1,0,26.92-36.48Z" fill="#55bbeb"/>
      <path id="Path_27" data-name="Path 27" d="M301.68,27.28a22.656,22.656,0,0,0-32.53,30.46l-1.83,6.56,7.15-.77c.1.08.19.16.29.24a22.669,22.669,0,1,0,26.92-36.48Z" fill="#fff" opacity="0.7"/>
      <path id="Path_28" data-name="Path 28" d="M304.12,25.81a22.464,22.464,0,0,1,9.63,18.88" fill="none" stroke="#55bbeb" stroke-linecap="round" stroke-linejoin="round" stroke-width="0.5"/>
      <path id="Path_29" data-name="Path 29" d="M313.53,48.07a8.071,8.071,0,0,1-.54,3.3" fill="none" stroke="#55bbeb" stroke-linecap="round" stroke-linejoin="round" stroke-width="0.5"/>
    </g>
    <path id="Path_30" data-name="Path 30" d="M286.75,46.63a12.9,12.9,0,0,1,1.67-2.15,9.768,9.768,0,0,0,1.18-1.45,2.407,2.407,0,0,0,.38-1.33,2.073,2.073,0,0,0-.72-1.67,2.848,2.848,0,0,0-1.91-.62,3.679,3.679,0,0,0-2.03.56,4.682,4.682,0,0,0-1.5,1.56l-2.95-2.03a7.227,7.227,0,0,1,2.76-2.83,8.125,8.125,0,0,1,4.13-1,6.832,6.832,0,0,1,4.49,1.4,4.76,4.76,0,0,1,1.69,3.89,5.745,5.745,0,0,1-1.13,3.56c-.32.41-.73.88-1.23,1.42a11.836,11.836,0,0,0-1.32,1.59,2.793,2.793,0,0,0-.41,1.56h-3.68a4.815,4.815,0,0,1,.57-2.46Zm-.39,8.67a2.24,2.24,0,0,1-.67-1.65,2.209,2.209,0,0,1,.66-1.63,2.268,2.268,0,0,1,1.68-.65,2.308,2.308,0,0,1,1.68.65,2.209,2.209,0,0,1,.66,1.63,2.355,2.355,0,0,1-4.01,1.65Z" fill="#fff"/>
  </g>
  <g id="Group_28" data-name="Group 28">
    <g id="Group_20" data-name="Group 20">
      <path id="Path_31" data-name="Path 31" d="M185.64,82.17c-.32-5.31,2.38-9.86,6.15-10.6a4.572,4.572,0,0,0-.74,0c-4.15.25-7.23,5.04-6.88,10.7s3.99,10.03,8.14,9.78a6.258,6.258,0,0,0,.74-.1c-3.83-.27-7.07-4.46-7.39-9.77Z" fill="#263238"/>
      <ellipse id="Ellipse_1" data-name="Ellipse 1" cx="7.29" cy="10.2" rx="7.29" ry="10.2" transform="translate(184.97 71.56)" fill="#fff" opacity="0.5"/>
      <path id="Path_32" data-name="Path 32" d="M196.77,74.53,185.26,84.67a14.043,14.043,0,0,0,.88,2.67l11.89-10.69a8.112,8.112,0,0,0-1.27-2.12Z" fill="#fff" opacity="0.5"/>
      <path id="Path_33" data-name="Path 33" d="M195.21,72.82l-10.23,9.67.09.86,10.87-9.77C195.66,72.85,195.7,73.1,195.21,72.82Z" fill="#fff" opacity="0.5"/>
      <path id="Path_34" data-name="Path 34" d="M200.67,81.25c-.35-5.65-3.99-10.03-8.14-9.78a6.258,6.258,0,0,0-.74.1c3.83.27,7.07,4.46,7.39,9.77s-2.61,9.88-6.38,10.62c.25.02.73,0,.98,0,4.15-.25,7.23-5.04,6.88-10.7Z" fill="#263238"/>
      <path id="Path_35" data-name="Path 35" d="M191.34,91.96h2.1v14.86a1.029,1.029,0,0,1-1.03,1.03h-.04a1.029,1.029,0,0,1-1.03-1.03V91.95h0Z" fill="#263238"/>
      <path id="Path_36" data-name="Path 36" d="M212.99,119.29l-8.35,13.11-9.05-24.39-5.98,1.38s2.83,30.18,7.53,34.85a9.014,9.014,0,0,0,12.11.85c3.55-2.8,15.35-17.58,15.35-17.58l-11.62-8.22Z" fill="#eebe9c"/>
      <path id="Path_37" data-name="Path 37" d="M189.66,110.54s-2.81-9.27-2.94-10.29,7.03-6.4,8.23-6.95,1.71,1.37,1.24,1.99l.18.13a2.666,2.666,0,0,1,.37,3.91h0s.34.12.62.86c.53,1.4-.86,2.9-.86,2.9s1.16,5.56-.2,6.29a8.886,8.886,0,0,1-2.61,1.19l-4.04-.03Z" fill="#eebe9c"/>
      <path id="Path_38" data-name="Path 38" d="M191.79,105.75l1.92-1.43v3.29a1.075,1.075,0,0,1-.96,1.16h0a1.075,1.075,0,0,1-.96-1.16v-1.86Z" fill="#263238"/>
    </g>
    <g id="Group_22" data-name="Group 22">
      <path id="Path_39" data-name="Path 39" d="M245.58,338.19l1.3,13.64,10.25,1.12,1.04-14.66Z" fill="#eebe9c"/>
      <g id="Group_21" data-name="Group 21">
        <path id="Path_40" data-name="Path 40" d="M244.66,349.65a.936.936,0,0,1,.97-.95l3.12.12c.79.01,1.59,1.48,2.05,2.13,1.97,2.82,3.49,1.79,5.71-.81,1.39-.15,1.74,1.48,1.85,1.92l2.47,9.69a1.511,1.511,0,0,1-1.05,1.86,1.267,1.267,0,0,1-.43.05c-4.23-.06-6.23-.09-11.49-.16l-16.09-.22c-4.39-.06-5.23-4.58-3.42-4.97,8.15-1.72,13.93-4.08,16.48-6.45.35-.31-.13-1.23-.17-2.21Z" fill="#263238"/>
        <path id="Path_41" data-name="Path 41" d="M243.15,352.64a4.2,4.2,0,0,1,2.93,1.98" fill="none" stroke="#fff" stroke-linecap="round" stroke-linejoin="round" stroke-width="0.5"/>
        <path id="Path_42" data-name="Path 42" d="M240.84,353.98a4.2,4.2,0,0,1,2.93,1.98" fill="none" stroke="#fff" stroke-linecap="round" stroke-linejoin="round" stroke-width="0.5"/>
        <path id="Path_43" data-name="Path 43" d="M238,355.34a4.2,4.2,0,0,1,2.93,1.98" fill="none" stroke="#fff" stroke-linecap="round" stroke-linejoin="round" stroke-width="0.5"/>
      </g>
    </g>
    <g id="Group_24" data-name="Group 24">
      <path id="Path_44" data-name="Path 44" d="M328.87,316.94l11.04,7.91,7.65-7-10.28-10.39Z" fill="#eebe9c"/>
      <g id="Group_23" data-name="Group 23">
        <path id="Path_45" data-name="Path 45" d="M336.7,325.2a.949.949,0,0,1-.07-1.37l2.11-2.32c.52-.6,2.14-.26,2.92-.19,3.39.33,3.6-1.52,3.1-4.93.79-1.17,2.24-.37,2.64-.17l8.85,4.43a1.537,1.537,0,0,1,.71,2.02,1.467,1.467,0,0,1-.24.37c-2.79,3.22-4.1,4.74-7.57,8.75l-10.6,12.25c-2.89,3.34-6.82,1.04-5.94-.61,4-7.4,5.99-13.4,5.87-16.91,0-.48-1-.7-1.76-1.32Z" fill="#263238"/>
        <path id="Path_46" data-name="Path 46" d="M338.1,328.25a4.158,4.158,0,0,1,3.38-.96" fill="none" stroke="#fff" stroke-linecap="round" stroke-linejoin="round" stroke-width="0.5"/>
        <path id="Path_47" data-name="Path 47" d="M337.6,330.91a4.158,4.158,0,0,1,3.38-.96" fill="none" stroke="#fff" stroke-linecap="round" stroke-linejoin="round" stroke-width="0.5"/>
        <path id="Path_48" data-name="Path 48" d="M336.77,333.99a4.158,4.158,0,0,1,3.38-.96" fill="none" stroke="#fff" stroke-linecap="round" stroke-linejoin="round" stroke-width="0.5"/>
      </g>
    </g>
    <g id="Group_25" data-name="Group 25">
      <path id="Path_49" data-name="Path 49" d="M232.29,180.4s8.17,104.3,8.24,104.89l5.11,61.05h13.27a74.31,74.31,0,0,1,.78-8.15c6.05-40.59-.15-53.71-.15-53.71s5.33-78.37,7.2-84.27c.19-.62-6.16-45.52-34.44-19.81Z" fill="#263238"/>
      <path id="Path_50" data-name="Path 50" d="M232.09,180.27l.37.61c5.47,7.4,15.83,15.28,21.25,22.04l1.88,4.27s39.43-30.57,13.8-43.17c-1.07-.52-8.91-4.72-8.91-4.72-6.79-1.67-28.39,20.97-28.39,20.97Z" fill="#263238"/>
      <path id="Path_51" data-name="Path 51" d="M291.01,207.29c2.15,13.35,8.81,47.84,12.59,60.82,0,0,11.62,6.65,18.19,14.09l20.97,29.52-9.36,8.4-38.24-27.97c-8.65-6.51-12.15-11.33-15.54-17.68-8.3-15.5-12.39-35.25-17.35-50.86-2.29-7.24-11.11-30.55-10.35-38.04,1-10.14,1.36-26.55,13.69-20.97,11.79,3.46,18.78,5.67,25.41,42.7Z" fill="#263238"/>
      <path id="Path_52" data-name="Path 52" d="M261.69,227.1l-9.7-35.82-11.06-3.69,8.63,8.05Z" opacity="0.2"/>
    </g>
    <path id="Path_53" data-name="Path 53" d="M217.52,113.73c-3.59,2.97-9.93,13.12-9.93,13.12l14.28,8.09s7.3-10.63,6.55-15.35A7.539,7.539,0,0,0,217.52,113.73Z" fill="#263238"/>
    <path id="Path_54" data-name="Path 54" d="M217.52,113.73c-3.59,2.97-9.93,13.12-9.93,13.12l14.28,8.09s7.3-10.63,6.55-15.35A7.539,7.539,0,0,0,217.52,113.73Z" fill="#fff" opacity="0.5"/>
    <path id="Path_55" data-name="Path 55" d="M216.75,131.74V121.58s-4.16,12.13-3.2,14.31,1.34,3.31,1.34,3.31l1.6-1.85.27-5.61Z" opacity="0.3"/>
    <path id="Path_56" data-name="Path 56" d="M269.04,157.76a24.655,24.655,0,0,1-5.79-12.46c-1.08-7.04-2.56-16.89-2.4-17.66l.48-18.99c-4.2-4.2-19.78-4.24-19.78-4.24l-10.45,2.67s-3.88,1.71-7.14,3.53c-4.34,2.43-6.63,2.56-7.22,5.35,0,0-.85,9.16-1.09,18.43-.08,3.31,15.29,33.75,15.48,39.48v9.33c22.28,11.22,45.69-16.52,45.69-16.52l-7.78-8.92Z" fill="#263238"/>
    <path id="Path_57" data-name="Path 57" d="M269.04,157.76a24.655,24.655,0,0,1-5.79-12.46c-1.08-7.04-2.56-16.89-2.4-17.66l.48-18.99c-4.2-4.2-19.78-4.24-19.78-4.24l-10.45,2.67s-3.88,1.71-7.14,3.53c-4.34,2.43-6.63,2.56-7.22,5.35,0,0-.85,9.16-1.09,18.43-.08,3.31,15.29,33.75,15.48,39.48v9.33c22.28,11.22,45.69-16.52,45.69-16.52l-7.78-8.92Z" fill="#fff" opacity="0.5"/>
    <path id="Path_58" data-name="Path 58" d="M261.71,135.04s-9.77-8.82-9.27-12.95l8.3,4.46.56,5.59Z" opacity="0.3"/>
    <g id="Group_26" data-name="Group 26">
      <path id="Path_59" data-name="Path 59" d="M268.87,116.94c.23.34,14.37,16.26,20.05,22.28a13.277,13.277,0,0,1,2.78,4.48l11.66,32.59-7.3,2.18L279.3,146.95l-21.07-17.83,10.65-12.19Z" fill="#eebe9c"/>
      <path id="Path_60" data-name="Path 60" d="M295.78,175.87a7.351,7.351,0,0,0-1.76,4.67c.19,2.44-.31,4.44-.04,6.25s1.59-.27,2.07-1.52,1.03-2.66,1.91-2.15,5.26,8.09,6.56,8.66.98-.88.98-.88,1.11,1.81,1.95,1.57c.22-.06.62-.56.24-1.47-.85-2.04-2.85-6.22-2.85-6.22.11.24,2.95,5.23,3.48,5.92.68.9,1.47.98,1.98.57.73-.59-2.59-6.89-2.54-7.25,0,0,1.79,3.69,2.99,3.75s.21-2.32-1.07-4.26c-1.17-1.77-3.01-5.56-4.38-7.25-1.68-2.08-3.28-3.1-5.71-2.47a8.5,8.5,0,0,0-3.8,2.09Z" fill="#eebe9c"/>
      <path id="Path_61" data-name="Path 61" d="M258.65,107.22c4.74.3,13.34,12.15,13.34,12.15l-11.13,12.58s-10.44-9.12-10.62-15.22c-.14-5.16,2.4-9.91,8.42-9.51Z" fill="#263238"/>
      <path id="Path_62" data-name="Path 62" d="M258.65,107.22c4.74.3,13.34,12.15,13.34,12.15l-11.13,12.58s-10.44-9.12-10.62-15.22c-.14-5.16,2.4-9.91,8.42-9.51Z" fill="#fff" opacity="0.5"/>
    </g>
    <g id="Group_27" data-name="Group 27">
      <path id="Path_63" data-name="Path 63" d="M224.44,61.95a16.253,16.253,0,0,0-10.09,11.82c-.45,5.49.57,9.65.89,15.13l20.91-28.53c-3.44,0-4.78-.97-11.7,1.58Z" fill="#263238"/>
      <path id="Path_64" data-name="Path 64" d="M232.13,60.58c6.09-1.49,10.86,2.64,13.57,5.38a16.045,16.045,0,0,1,3.05,12.93c-.92,4.27-2.04,9.44-5.1,11.15a7.09,7.09,0,0,1-5.65.66L221.21,67.07a25.758,25.758,0,0,1,10.91-6.5Z" fill="#263238"/>
      <path id="Path_65" data-name="Path 65" d="M240.26,95.78a2.7,2.7,0,0,0-.04-.49,3.518,3.518,0,0,0-.92-1.95,3.6,3.6,0,0,0-5.13-.25h0l-5.81,2.58a2.643,2.643,0,0,1-.02.27l1.05,8.55c.16,2.55-2.72,4.64-4.33,5.76-.97.75-2.9,7.71,3.57,12.86,1.91,1.53,4.86-.97,6.78-2.63,7.89-7.59,7.72-14.6,7.72-14.6-2.92-2.67-3.12-4.46-2.87-10.11Z" fill="#eebe9c"/>
      <path id="Path_66" data-name="Path 66" d="M226.23,95.17a.849.849,0,0,0,.11-.26h0l6.3-.58a3.6,3.6,0,0,1,4.74,1.98c.29.52,1.02-3.14.26,1.64v.07l-8.34,5.85s-1.01-6.94-1.06-6.97-2.01-1.74-2.01-1.74Z" opacity="0.2"/>
      <path id="Path_67" data-name="Path 67" d="M245.34,79.52c-2.35,9.82-3.13,14.01-8.95,18.45-8.76,6.65-20.06,2.18-20.68-8.04-.48-9.18,3.4-23.68,13.63-26.38s18.35,6.13,16,15.97Z" fill="#eebe9c"/>
      <path id="Path_68" data-name="Path 68" d="M247.86,88.83a8.311,8.311,0,0,1-5.37,3.26c-2.74.37-3.56-4.06-2.3-6.63a5.483,5.483,0,0,1,6.46-2.8c2.48.8,2.88,3.96,1.21,6.17Z" fill="#eebe9c"/>
      <path id="Path_69" data-name="Path 69" d="M242.31,87.67a3.762,3.762,0,0,1,4.31-2.98" fill="none" stroke="#000" stroke-linecap="round" stroke-linejoin="round" stroke-width="0.5" opacity="0.2"/>
      <path id="Path_70" data-name="Path 70" d="M231.63,81.24c-.19,1.06-.88,1.87-1.54,1.81s-1.05-.97-.86-2.03.88-1.87,1.54-1.81S231.82,80.18,231.63,81.24Z" fill="#263238"/>
      <path id="Path_71" data-name="Path 71" d="M221.73,80.11c-.18,1.03-.87,1.81-1.53,1.75s-1.05-.94-.86-1.97.87-1.81,1.53-1.75S221.92,79.08,221.73,80.11Z" fill="#263238"/>
      <path id="Path_72" data-name="Path 72" d="M234.2,77.76a.448.448,0,0,1-.34-.15,3.563,3.563,0,0,0-3.19-1.29.438.438,0,0,1-.53-.4.562.562,0,0,1,.45-.58,4.474,4.474,0,0,1,4.05,1.59.508.508,0,0,1-.08.7.537.537,0,0,1-.35.14Z" fill="#263238"/>
      <path id="Path_73" data-name="Path 73" d="M219.06,74.69a.365.365,0,0,1-.2-.25.559.559,0,0,1,.33-.62,4.16,4.16,0,0,1,4.1.18.455.455,0,0,1,.03.65.479.479,0,0,1-.65.14,3.331,3.331,0,0,0-3.25-.11.45.45,0,0,1-.36,0Z" fill="#263238"/>
      <path id="Path_74" data-name="Path 74" d="M224.49,79.92a35.51,35.51,0,0,1-4.14,5.75.779.779,0,0,0,.21,1.23,5.008,5.008,0,0,0,2.68.34l1.24-7.32Z" fill="#e7996e"/>
      <path id="Path_75" data-name="Path 75" d="M231.14,79.3l-2.23-.8S229.95,80.36,231.14,79.3Z" fill="#263238"/>
      <path id="Path_76" data-name="Path 76" d="M221.11,78.19l-2.23-.8S219.92,79.25,221.11,78.19Z" fill="#263238"/>
      <path id="Path_77" data-name="Path 77" d="M223.3,90.07a22.813,22.813,0,0,1,1.31,3.15c.2-.03.4-.07.6-.11,2.7-.51,3.8-1.64,4.21-2.73a3.556,3.556,0,0,0,.16-1.67,3.461,3.461,0,0,0-.24-.92c-1.29,1.12-3.77,1.79-5.11,2.1-.56.13-.92.19-.92.19Z" fill="#263238"/>
      <path id="Path_78" data-name="Path 78" d="M224.22,89.88l.41.92c2.54-.49,4.28-1.17,4.94-2.09a3.461,3.461,0,0,0-.24-.92c-1.29,1.12-3.77,1.79-5.11,2.1Z" fill="#fff"/>
      <path id="Path_79" data-name="Path 79" d="M225.21,93.11c2.7-.51,3.8-1.64,4.21-2.73a8.948,8.948,0,0,0-2.9,1.16,3.4,3.4,0,0,0-1.31,1.57Z" fill="#de5753"/>
      <path id="Path_80" data-name="Path 80" d="M241.42,81.25s-4.22-7.55-3.2-13.09c0,0-19.1-8.45-21.02,9.32,0,0-1.08-15.91,15.85-15.12s15.66,22.97,6.6,29c-.01-.08,4.36-5.39,1.77-10.11Z" fill="#263238"/>
      <path id="Path_81" data-name="Path 81" d="M225.13,63.04a14.841,14.841,0,0,0-5.8,6.94c-.46,2.15,2.11,4.27,2.11,4.27L226,70.27l-.89,4.11a13.52,13.52,0,0,0,12.95-6.01l-1.98-6.46s-8.66-.18-10.95,1.12Z" fill="#263238"/>
      <path id="Path_82" data-name="Path 82" d="M289.25,78.93a5.719,5.719,0,0,1-4.74,1.56,6.749,6.749,0,0,0,1.51-6.11c-5.62,2.23-12.33,5.01-17.71,2.15-2.47-1.31-4.06-4.14-6.03-6.25s-4.12-4.18-6.76-5.02-8.34,1.33-9.77,3.92l-.34,5.1c2.72-.52,7,1.46,8.19,4.23a66.787,66.787,0,0,0,3.75,7.35c1.89,3.27,3.74,5.33,6.95,6.76,1.46.65,4.78,1.37,9.71,1.05,3.91-.25,7.93-1.1,11.17-3.53s5.45-7.14,4.08-11.22Z" fill="#263238"/>
    </g>
  </g>
</svg>
