<svg xmlns="http://www.w3.org/2000/svg" xmlns:xlink="http://www.w3.org/1999/xlink" id="Group_3" data-name="Group 3" width="53.408" height="80.23" viewBox="0 0 53.408 80.23">
  <defs>
    <clipPath id="clip-path">
      <rect id="Rectangle_1" data-name="Rectangle 1" width="53.408" height="80.23" fill="none"/>
    </clipPath>
  </defs>
  <text id="AlKafaat" transform="translate(3.134 73.093)" fill="#333" font-size="12" font-family="GRANCEDEMORegular, GRANCE-DEMO"><tspan x="0" y="0">Al</tspan><tspan y="0" letter-spacing="-0.016em">K</tspan><tspan y="0">a</tspan><tspan y="0" letter-spacing="-0.06em">f</tspan><tspan y="0">a</tspan><tspan y="0" letter-spacing="-0.009em">a</tspan><tspan y="0">t</tspan></text>
  <g id="Group_2" data-name="Group 2">
    <g id="Group_1" data-name="Group 1" clip-path="url(#clip-path)">
      <text id="Hospital" transform="translate(3.492 77.816)" fill="#333" font-size="5" font-family="GRANCEDEMORegular, GRANCE-DEMO"><tspan x="0" y="0">Hosp</tspan><tspan y="0" letter-spacing="-0.006em">i</tspan><tspan y="0" letter-spacing="-0.023em">t</tspan><tspan y="0">al</tspan></text>
      <path id="Path_1" data-name="Path 1" d="M54.748,172.837a21.48,21.48,0,0,0-1.064-1.944,36.606,36.606,0,0,0-5.238-6.929,37.921,37.921,0,0,0-6.586-5.418,45.827,45.827,0,0,0-7.77-4.027c-1.961-.8-4-1.411-6.216-2.186A39.093,39.093,0,0,0,38.446,140.6c2.64-4.409,4.383-13.2,3.267-15.783,0,.227-.142,1.134-.162,1.3a13.676,13.676,0,0,1-4.951,9.24,65.4,65.4,0,0,1-8.863,5.951c-3.79,2.144-7.851,3.806-11.661,5.918C11.335,149.854,8,153.6,7.8,159.383c-.057,1.614-.009,3.231-.009,4.847l.969-2.879c.819-4.849,3.758-8.114,7.97-10.292,4.264-2.2,8.627-4.215,12.913-6.379,1.526-.771,2.951-1.744,4.422-2.623a.231.231,0,0,1,.277.367c-1.539,1.429-3.034,2.91-4.627,4.275a20.8,20.8,0,0,1-11.838,5.394c-1.629.143-1.719.407-1.662,2.838.034,1.443.919,1.339,1.888,1.35a66.926,66.926,0,0,1,7.629.187A32.724,32.724,0,0,1,43.789,165c6.775,6.1,11.048,13.527,11.9,22.737l.484,1.847a37.683,37.683,0,0,0-6.635-22.974,34.131,34.131,0,0,1,7.992,20.2l.8-5.436c.031-.21-.31-.71-.4-.908-.135-.3-.271-.592-.4-.893a3.478,3.478,0,0,1-.4-1.852,1.569,1.569,0,0,1,.516-.989,1.089,1.089,0,0,1,1.069-.2,1.245,1.245,0,0,1,.649.692,3.247,3.247,0,0,1,.219,1.01.171.171,0,0,1-.267.157c-.167-.115-.335-.231-.5-.345-.15-.1-.425-.376-.6-.4-.3-.043-.434.48-.433.729a1.057,1.057,0,0,0,.409.823,1.242,1.242,0,0,0,1.308.071,1.576,1.576,0,0,0,.766-1.1,2.171,2.171,0,0,0-.214-1.343,1.755,1.755,0,0,0-.946-.915,2.581,2.581,0,0,0-1.148-.037c-.2.024-.723.139-1.152.188a.752.752,0,0,1-.769-.431Z" transform="translate(-6.891 -110.674)" fill="#333"/>
      <path id="Path_2" data-name="Path 2" d="M9.794,4.668A15.689,15.689,0,0,0,7.186,6.736,9.954,9.954,0,0,0,5.4,9.872c-.387,1.114-.4,2.357-.729,3.531a15.35,15.35,0,0,1,.4-7.546,7.923,7.923,0,0,1,5.6-5.532,6.557,6.557,0,0,1,8.094,3.558,13.833,13.833,0,0,1,1.056,8.332,26.522,26.522,0,0,1-7.416,14.573,7.244,7.244,0,0,0-1.39,1.811c2.074-.974,4.167-1.911,6.219-2.929,3.861-1.915,7.735-3.794,11-6.72A15.724,15.724,0,0,0,33.768,8.888a3.151,3.151,0,0,1,.209-.621l.508.061a53.061,53.061,0,0,1-.55,5.362C32.7,19.811,28.583,23.723,23.406,26.58c-4.413,2.436-9.017,4.527-13.53,6.783C4.531,36.034.955,36.272.631,42.58c-.008.162-.2,3.985-.626,4.117,0-1.369.019-2.739,0-4.108C-.1,36.162,2.914,31.3,7.527,27.133c3.232-2.922,6.433-5.922,8.688-9.729,1.636-2.763,2.639-5.713,2-8.97-.513-2.625-3.132-3.916-5.8-3.543-2.938.41-5.307,3.1-5.307,3.1Z" transform="translate(0 0)" fill="#333"/>
    </g>
  </g>
</svg>