<?xml version="1.0" standalone="no"?>
<!DOCTYPE svg PUBLIC "-//W3C//DTD SVG 20010904//EN"
 "http://www.w3.org/TR/2001/REC-SVG-20010904/DTD/svg10.dtd">
<svg version="1.0" xmlns="http://www.w3.org/2000/svg"
 width="260.000000pt" height="260.000000pt" viewBox="0 0 260.000000 260.000000"
 preserveAspectRatio="xMidYMid meet">
<metadata>
Created by potrace 1.14, written by Peter Selinger 2001-2017
</metadata>
<g transform="translate(0.000000,260.000000) scale(0.100000,-0.100000)"
fill="#000000" stroke="none">
<path d="M780 2591 c-97 -32 -157 -92 -186 -185 -20 -66 -28 -173 -15 -211 l9
-30 2 30 c5 95 49 175 123 227 l32 22 -21 -25 c-32 -37 -42 -58 -18 -38 48 42
106 61 166 57 104 -8 152 -65 151 -182 -2 -147 -76 -267 -295 -483 -240 -238
-287 -326 -294 -553 -2 -87 -1 -114 6 -90 5 19 10 60 11 90 5 123 52 185 188
248 228 104 530 257 603 305 180 118 277 260 293 429 4 35 8 78 11 96 6 49
-19 36 -27 -14 -31 -176 -154 -315 -394 -445 -113 -61 -325 -162 -330 -157 -2
2 19 28 46 58 191 211 281 501 214 690 -22 63 -61 116 -104 141 -39 23 -129
34 -171 20z"/>
<path d="M1555 2108 c-2 -7 -6 -31 -10 -53 -11 -69 -63 -163 -123 -224 -82
-83 -270 -203 -488 -310 -297 -147 -375 -207 -437 -339 -27 -57 -32 -81 -35
-162 -6 -145 0 -158 27 -60 29 108 63 172 124 231 41 41 153 119 171 119 12 0
446 220 486 246 22 15 43 25 45 22 8 -7 -124 -130 -196 -183 -95 -70 -172
-105 -279 -127 -52 -11 -98 -25 -102 -31 -11 -17 -10 -75 1 -96 8 -15 26 -17
113 -18 280 -4 471 -61 667 -201 272 -194 430 -444 485 -766 9 -49 18 -92 22
-95 6 -6 -2 159 -12 219 -20 129 -81 304 -143 409 -46 78 -37 76 15 -4 83
-125 151 -299 169 -426 14 -105 18 -109 31 -29 11 68 10 79 -7 119 -26 59 -25
97 3 112 18 10 24 8 40 -11 29 -36 24 -49 -13 -30 -24 13 -38 -12 -19 -35 16
-19 35 -19 54 1 22 22 20 60 -5 85 -18 18 -29 20 -65 15 l-43 -5 -32 67 c-151
314 -428 549 -784 667 -44 14 -84 30 -88 34 -4 4 9 21 29 36 111 85 260 267
319 390 30 63 64 169 80 250 10 49 18 195 11 195 -4 0 -8 -6 -11 -12z"/>
</g>
</svg>
